<?xml version="1.0" encoding="utf-8"?>
<svg version="1.1" xmlns:xlink="http://www.w3.org/1999/xlink" width="10px" height="8px" xmlns="http://www.w3.org/2000/svg">
  <defs>
    <mask fill="white" id="clip297">
      <path d="M 9.45833333333333 7.89583333333333  C 9.45833333333333 7.89583333333333  9.45833333333333 0.0833333333333335  9.45833333333333 0.0833333333333335  C 9.45833333333333 0.0833333333333335  0.0833333333333335 0.0833333333333335  0.0833333333333335 0.0833333333333335  C 0.0833333333333335 0.0833333333333335  0.0833333333333335 7.89583333333333  0.0833333333333335 7.89583333333333  C 0.0833333333333335 7.89583333333333  9.45833333333333 7.89583333333333  9.45833333333333 7.89583333333333  Z " fill-rule="evenodd" />
    </mask>
  </defs>
  <g transform="matrix(1 0 0 1 -353 -711 )">
    <path d="M 9.45833333333333 7.89583333333333  C 9.45833333333333 7.89583333333333  9.45833333333333 0.0833333333333335  9.45833333333333 0.0833333333333335  C 9.45833333333333 0.0833333333333335  0.0833333333333335 0.0833333333333335  0.0833333333333335 0.0833333333333335  C 0.0833333333333335 0.0833333333333335  0.0833333333333335 7.89583333333333  0.0833333333333335 7.89583333333333  C 0.0833333333333335 7.89583333333333  9.45833333333333 7.89583333333333  9.45833333333333 7.89583333333333  Z " fill-rule="nonzero" fill="#ffffff" stroke="none" fill-opacity="0" transform="matrix(1 0 0 1 353 711 )" />
    <path d="M 9.45833333333333 7.89583333333333  C 9.45833333333333 7.89583333333333  9.45833333333333 0.0833333333333335  9.45833333333333 0.0833333333333335  C 9.45833333333333 0.0833333333333335  0.0833333333333335 0.0833333333333335  0.0833333333333335 0.0833333333333335  C 0.0833333333333335 0.0833333333333335  0.0833333333333335 7.89583333333333  0.0833333333333335 7.89583333333333  C 0.0833333333333335 7.89583333333333  9.45833333333333 7.89583333333333  9.45833333333333 7.89583333333333  Z " stroke-width="4" stroke="#555555" fill="none" transform="matrix(1 0 0 1 353 711 )" mask="url(#clip297)" />
  </g>
</svg>