<?xml version="1.0" encoding="utf-8"?>
<svg version="1.1" xmlns:xlink="http://www.w3.org/1999/xlink" width="10px" height="12px" xmlns="http://www.w3.org/2000/svg">
  <defs>
    <mask fill="white" id="clip170">
      <path d="M 9.45833333333333 11.9166666666667  C 9.45833333333333 11.9166666666667  9.45833333333333 0.979166666666668  9.45833333333333 0.979166666666668  C 9.45833333333333 0.979166666666668  0.0833333333333335 0.979166666666668  0.0833333333333335 0.979166666666668  C 0.0833333333333335 0.979166666666668  0.0833333333333335 11.9166666666667  0.0833333333333335 11.9166666666667  C 0.0833333333333335 11.9166666666667  9.45833333333333 11.9166666666667  9.45833333333333 11.9166666666667  Z " fill-rule="evenodd" />
    </mask>
  </defs>
  <g transform="matrix(1 0 0 1 -353 -720 )">
    <path d="M 9.45833333333333 11.9166666666667  C 9.45833333333333 11.9166666666667  9.45833333333333 0.979166666666668  9.45833333333333 0.979166666666668  C 9.45833333333333 0.979166666666668  0.0833333333333335 0.979166666666668  0.0833333333333335 0.979166666666668  C 0.0833333333333335 0.979166666666668  0.0833333333333335 11.9166666666667  0.0833333333333335 11.9166666666667  C 0.0833333333333335 11.9166666666667  9.45833333333333 11.9166666666667  9.45833333333333 11.9166666666667  Z " fill-rule="nonzero" fill="#ffffff" stroke="none" fill-opacity="0" transform="matrix(1 0 0 1 353 720 )" />
    <path d="M 9.45833333333333 11.9166666666667  C 9.45833333333333 11.9166666666667  9.45833333333333 0.979166666666668  9.45833333333333 0.979166666666668  C 9.45833333333333 0.979166666666668  0.0833333333333335 0.979166666666668  0.0833333333333335 0.979166666666668  C 0.0833333333333335 0.979166666666668  0.0833333333333335 11.9166666666667  0.0833333333333335 11.9166666666667  C 0.0833333333333335 11.9166666666667  9.45833333333333 11.9166666666667  9.45833333333333 11.9166666666667  Z " stroke-width="4" stroke="#555555" fill="none" transform="matrix(1 0 0 1 353 720 )" mask="url(#clip170)" />
  </g>
</svg>