<?xml version="1.0" encoding="utf-8"?>
<svg version="1.1" xmlns:xlink="http://www.w3.org/1999/xlink" width="10px" height="12px" xmlns="http://www.w3.org/2000/svg">
  <defs>
    <mask fill="white" id="clip299">
      <path d="M 9.91666666666667 11.0208333333333  C 9.91666666666667 11.0208333333333  9.91666666666667 0.0833333333333335  9.91666666666667 0.0833333333333335  C 9.91666666666667 0.0833333333333335  0.541666666666668 0.0833333333333335  0.541666666666668 0.0833333333333335  C 0.541666666666668 0.0833333333333335  0.541666666666668 11.0208333333333  0.541666666666668 11.0208333333333  C 0.541666666666668 11.0208333333333  9.91666666666667 11.0208333333333  9.91666666666667 11.0208333333333  Z " fill-rule="evenodd" />
    </mask>
  </defs>
  <g transform="matrix(1 0 0 1 -364 -711 )">
    <path d="M 9.91666666666667 11.0208333333333  C 9.91666666666667 11.0208333333333  9.91666666666667 0.0833333333333335  9.91666666666667 0.0833333333333335  C 9.91666666666667 0.0833333333333335  0.541666666666668 0.0833333333333335  0.541666666666668 0.0833333333333335  C 0.541666666666668 0.0833333333333335  0.541666666666668 11.0208333333333  0.541666666666668 11.0208333333333  C 0.541666666666668 11.0208333333333  9.91666666666667 11.0208333333333  9.91666666666667 11.0208333333333  Z " fill-rule="nonzero" fill="#ffffff" stroke="none" fill-opacity="0" transform="matrix(1 0 0 1 364 711 )" />
    <path d="M 9.91666666666667 11.0208333333333  C 9.91666666666667 11.0208333333333  9.91666666666667 0.0833333333333335  9.91666666666667 0.0833333333333335  C 9.91666666666667 0.0833333333333335  0.541666666666668 0.0833333333333335  0.541666666666668 0.0833333333333335  C 0.541666666666668 0.0833333333333335  0.541666666666668 11.0208333333333  0.541666666666668 11.0208333333333  C 0.541666666666668 11.0208333333333  9.91666666666667 11.0208333333333  9.91666666666667 11.0208333333333  Z " stroke-width="4" stroke="#555555" fill="none" transform="matrix(1 0 0 1 364 711 )" mask="url(#clip299)" />
  </g>
</svg>