<?xml version="1.0" encoding="utf-8"?>
<svg version="1.1" xmlns:xlink="http://www.w3.org/1999/xlink" width="20px" height="24px" xmlns="http://www.w3.org/2000/svg">
  <defs>
    <mask fill="white" id="clip174">
      <path d="M 18.9166666666667 23.8333333333333  C 18.9166666666667 23.8333333333333  18.9166666666667 1.95833333333334  18.9166666666667 1.95833333333334  C 18.9166666666667 1.95833333333334  0.166666666666667 1.95833333333334  0.166666666666667 1.95833333333334  C 0.166666666666667 1.95833333333334  0.166666666666667 23.8333333333333  0.166666666666667 23.8333333333333  C 0.166666666666667 23.8333333333333  18.9166666666667 23.8333333333333  18.9166666666667 23.8333333333333  Z " fill-rule="evenodd" />
    </mask>
  </defs>
  <g transform="matrix(1 0 0 1 -576 -854 )">
    <path d="M 18.9166666666667 23.8333333333333  C 18.9166666666667 23.8333333333333  18.9166666666667 1.95833333333334  18.9166666666667 1.95833333333334  C 18.9166666666667 1.95833333333334  0.166666666666667 1.95833333333334  0.166666666666667 1.95833333333334  C 0.166666666666667 1.95833333333334  0.166666666666667 23.8333333333333  0.166666666666667 23.8333333333333  C 0.166666666666667 23.8333333333333  18.9166666666667 23.8333333333333  18.9166666666667 23.8333333333333  Z " fill-rule="nonzero" fill="#ffffff" stroke="none" fill-opacity="0" transform="matrix(1 0 0 1 576 854 )" />
    <path d="M 18.9166666666667 23.8333333333333  C 18.9166666666667 23.8333333333333  18.9166666666667 1.95833333333334  18.9166666666667 1.95833333333334  C 18.9166666666667 1.95833333333334  0.166666666666667 1.95833333333334  0.166666666666667 1.95833333333334  C 0.166666666666667 1.95833333333334  0.166666666666667 23.8333333333333  0.166666666666667 23.8333333333333  C 0.166666666666667 23.8333333333333  18.9166666666667 23.8333333333333  18.9166666666667 23.8333333333333  Z " stroke-width="4" stroke="#ffffff" fill="none" transform="matrix(1 0 0 1 576 854 )" mask="url(#clip174)" />
  </g>
</svg>