<?xml version="1.0" encoding="utf-8"?>
<svg version="1.1" xmlns:xlink="http://www.w3.org/1999/xlink" width="20px" height="24px" xmlns="http://www.w3.org/2000/svg">
  <defs>
    <mask fill="white" id="clip177">
      <path d="M 19.8333333333333 22.0416666666667  C 19.8333333333333 22.0416666666667  19.8333333333333 0.166666666666667  19.8333333333333 0.166666666666667  C 19.8333333333333 0.166666666666667  1.08333333333334 0.166666666666667  1.08333333333334 0.166666666666667  C 1.08333333333334 0.166666666666667  1.08333333333334 22.0416666666667  1.08333333333334 22.0416666666667  C 1.08333333333334 22.0416666666667  19.8333333333333 22.0416666666667  19.8333333333333 22.0416666666667  Z " fill-rule="evenodd" />
    </mask>
  </defs>
  <g transform="matrix(1 0 0 1 -264 -1176 )">
    <path d="M 19.8333333333333 22.0416666666667  C 19.8333333333333 22.0416666666667  19.8333333333333 0.166666666666667  19.8333333333333 0.166666666666667  C 19.8333333333333 0.166666666666667  1.08333333333334 0.166666666666667  1.08333333333334 0.166666666666667  C 1.08333333333334 0.166666666666667  1.08333333333334 22.0416666666667  1.08333333333334 22.0416666666667  C 1.08333333333334 22.0416666666667  19.8333333333333 22.0416666666667  19.8333333333333 22.0416666666667  Z " fill-rule="nonzero" fill="#ffffff" stroke="none" fill-opacity="0" transform="matrix(1 0 0 1 264 1176 )" />
    <path d="M 19.8333333333333 22.0416666666667  C 19.8333333333333 22.0416666666667  19.8333333333333 0.166666666666667  19.8333333333333 0.166666666666667  C 19.8333333333333 0.166666666666667  1.08333333333334 0.166666666666667  1.08333333333334 0.166666666666667  C 1.08333333333334 0.166666666666667  1.08333333333334 22.0416666666667  1.08333333333334 22.0416666666667  C 1.08333333333334 22.0416666666667  19.8333333333333 22.0416666666667  19.8333333333333 22.0416666666667  Z " stroke-width="4" stroke="#000000" fill="none" transform="matrix(1 0 0 1 264 1176 )" mask="url(#clip177)" />
  </g>
</svg>