<?xml version="1.0" encoding="utf-8"?>
<svg version="1.1" xmlns:xlink="http://www.w3.org/1999/xlink" width="20px" height="16px" xmlns="http://www.w3.org/2000/svg">
  <defs>
    <mask fill="white" id="clip175">
      <path d="M 18.9166666666667 15.7916666666667  C 18.9166666666667 15.7916666666667  18.9166666666667 0.166666666666667  18.9166666666667 0.166666666666667  C 18.9166666666667 0.166666666666667  0.166666666666667 0.166666666666667  0.166666666666667 0.166666666666667  C 0.166666666666667 0.166666666666667  0.166666666666667 15.7916666666667  0.166666666666667 15.7916666666667  C 0.166666666666667 15.7916666666667  18.9166666666667 15.7916666666667  18.9166666666667 15.7916666666667  Z " fill-rule="evenodd" />
    </mask>
  </defs>
  <g transform="matrix(1 0 0 1 -242 -1176 )">
    <path d="M 18.9166666666667 15.7916666666667  C 18.9166666666667 15.7916666666667  18.9166666666667 0.166666666666667  18.9166666666667 0.166666666666667  C 18.9166666666667 0.166666666666667  0.166666666666667 0.166666666666667  0.166666666666667 0.166666666666667  C 0.166666666666667 0.166666666666667  0.166666666666667 15.7916666666667  0.166666666666667 15.7916666666667  C 0.166666666666667 15.7916666666667  18.9166666666667 15.7916666666667  18.9166666666667 15.7916666666667  Z " fill-rule="nonzero" fill="#ffffff" stroke="none" fill-opacity="0" transform="matrix(1 0 0 1 242 1176 )" />
    <path d="M 18.9166666666667 15.7916666666667  C 18.9166666666667 15.7916666666667  18.9166666666667 0.166666666666667  18.9166666666667 0.166666666666667  C 18.9166666666667 0.166666666666667  0.166666666666667 0.166666666666667  0.166666666666667 0.166666666666667  C 0.166666666666667 0.166666666666667  0.166666666666667 15.7916666666667  0.166666666666667 15.7916666666667  C 0.166666666666667 15.7916666666667  18.9166666666667 15.7916666666667  18.9166666666667 15.7916666666667  Z " stroke-width="4" stroke="#000000" fill="none" transform="matrix(1 0 0 1 242 1176 )" mask="url(#clip175)" />
  </g>
</svg>