<?xml version="1.0" encoding="utf-8"?>
<svg version="1.1" xmlns:xlink="http://www.w3.org/1999/xlink" width="20px" height="16px" xmlns="http://www.w3.org/2000/svg">
  <defs>
    <mask fill="white" id="clip306">
      <path d="M 19.8333333333333 15.8333333333333  C 19.8333333333333 15.8333333333333  19.8333333333333 0.208333333333336  19.8333333333333 0.208333333333336  C 19.8333333333333 0.208333333333336  1.08333333333334 0.208333333333336  1.08333333333334 0.208333333333336  C 1.08333333333334 0.208333333333336  1.08333333333334 15.8333333333333  1.08333333333334 15.8333333333333  C 1.08333333333334 15.8333333333333  19.8333333333333 15.8333333333333  19.8333333333333 15.8333333333333  Z " fill-rule="evenodd" />
    </mask>
  </defs>
  <g transform="matrix(1 0 0 1 -264 -1202 )">
    <path d="M 19.8333333333333 15.8333333333333  C 19.8333333333333 15.8333333333333  19.8333333333333 0.208333333333336  19.8333333333333 0.208333333333336  C 19.8333333333333 0.208333333333336  1.08333333333334 0.208333333333336  1.08333333333334 0.208333333333336  C 1.08333333333334 0.208333333333336  1.08333333333334 15.8333333333333  1.08333333333334 15.8333333333333  C 1.08333333333334 15.8333333333333  19.8333333333333 15.8333333333333  19.8333333333333 15.8333333333333  Z " fill-rule="nonzero" fill="#ffffff" stroke="none" fill-opacity="0" transform="matrix(1 0 0 1 264 1202 )" />
    <path d="M 19.8333333333333 15.8333333333333  C 19.8333333333333 15.8333333333333  19.8333333333333 0.208333333333336  19.8333333333333 0.208333333333336  C 19.8333333333333 0.208333333333336  1.08333333333334 0.208333333333336  1.08333333333334 0.208333333333336  C 1.08333333333334 0.208333333333336  1.08333333333334 15.8333333333333  1.08333333333334 15.8333333333333  C 1.08333333333334 15.8333333333333  19.8333333333333 15.8333333333333  19.8333333333333 15.8333333333333  Z " stroke-width="4" stroke="#000000" fill="none" transform="matrix(1 0 0 1 264 1202 )" mask="url(#clip306)" />
  </g>
</svg>