<?xml version="1.0" encoding="utf-8"?>
<svg version="1.1" xmlns:xlink="http://www.w3.org/1999/xlink" width="12px" height="10px" xmlns="http://www.w3.org/2000/svg">
  <defs>
    <mask fill="white" id="clip309">
      <path d="M 11.35 9.86979166666667  C 11.35 9.86979166666667  11.35 0.104166666666667  11.35 0.104166666666667  C 11.35 0.104166666666667  0.1 0.104166666666667  0.1 0.104166666666667  C 0.1 0.104166666666667  0.1 9.86979166666667  0.1 9.86979166666667  C 0.1 9.86979166666667  11.35 9.86979166666667  11.35 9.86979166666667  Z " fill-rule="evenodd" />
    </mask>
  </defs>
  <g transform="matrix(1 0 0 1 -770 -1082 )">
    <path d="M 11.35 9.86979166666667  C 11.35 9.86979166666667  11.35 0.104166666666667  11.35 0.104166666666667  C 11.35 0.104166666666667  0.1 0.104166666666667  0.1 0.104166666666667  C 0.1 0.104166666666667  0.1 9.86979166666667  0.1 9.86979166666667  C 0.1 9.86979166666667  11.35 9.86979166666667  11.35 9.86979166666667  Z " fill-rule="nonzero" fill="#ffffff" stroke="none" fill-opacity="0" transform="matrix(1 0 0 1 770 1082 )" />
    <path d="M 11.35 9.86979166666667  C 11.35 9.86979166666667  11.35 0.104166666666667  11.35 0.104166666666667  C 11.35 0.104166666666667  0.1 0.104166666666667  0.1 0.104166666666667  C 0.1 0.104166666666667  0.1 9.86979166666667  0.1 9.86979166666667  C 0.1 9.86979166666667  11.35 9.86979166666667  11.35 9.86979166666667  Z " stroke-width="4" stroke="#000000" fill="none" transform="matrix(1 0 0 1 770 1082 )" mask="url(#clip309)" />
  </g>
</svg>