<?xml version="1.0" encoding="utf-8"?>
<svg version="1.1" xmlns:xlink="http://www.w3.org/1999/xlink" width="12px" height="10px" xmlns="http://www.w3.org/2000/svg">
  <defs>
    <mask fill="white" id="clip180">
      <path d="M 11.9 9.89583333333334  C 11.9 9.89583333333334  11.9 0.130208333333335  11.9 0.130208333333335  C 11.9 0.130208333333335  0.650000000000001 0.130208333333335  0.650000000000001 0.130208333333335  C 0.650000000000001 0.130208333333335  0.650000000000001 9.89583333333334  0.650000000000001 9.89583333333334  C 0.650000000000001 9.89583333333334  11.9 9.89583333333334  11.9 9.89583333333334  Z " fill-rule="evenodd" />
    </mask>
  </defs>
  <g transform="matrix(1 0 0 1 -783 -1098 )">
    <path d="M 11.9 9.89583333333334  C 11.9 9.89583333333334  11.9 0.130208333333335  11.9 0.130208333333335  C 11.9 0.130208333333335  0.650000000000001 0.130208333333335  0.650000000000001 0.130208333333335  C 0.650000000000001 0.130208333333335  0.650000000000001 9.89583333333334  0.650000000000001 9.89583333333334  C 0.650000000000001 9.89583333333334  11.9 9.89583333333334  11.9 9.89583333333334  Z " fill-rule="nonzero" fill="#ffffff" stroke="none" fill-opacity="0" transform="matrix(1 0 0 1 783 1098 )" />
    <path d="M 11.9 9.89583333333334  C 11.9 9.89583333333334  11.9 0.130208333333335  11.9 0.130208333333335  C 11.9 0.130208333333335  0.650000000000001 0.130208333333335  0.650000000000001 0.130208333333335  C 0.650000000000001 0.130208333333335  0.650000000000001 9.89583333333334  0.650000000000001 9.89583333333334  C 0.650000000000001 9.89583333333334  11.9 9.89583333333334  11.9 9.89583333333334  Z " stroke-width="4" stroke="#000000" fill="none" transform="matrix(1 0 0 1 783 1098 )" mask="url(#clip180)" />
  </g>
</svg>