<?xml version="1.0" encoding="utf-8"?>
<svg version="1.1" xmlns:xlink="http://www.w3.org/1999/xlink" width="12px" height="15px" xmlns="http://www.w3.org/2000/svg">
  <defs>
    <mask fill="white" id="clip182">
      <path d="M 11.35 14.8958333333333  C 11.35 14.8958333333333  11.35 1.22395833333333  11.35 1.22395833333333  C 11.35 1.22395833333333  0.1 1.22395833333333  0.1 1.22395833333333  C 0.1 1.22395833333333  0.1 14.8958333333333  0.1 14.8958333333333  C 0.1 14.8958333333333  11.35 14.8958333333333  11.35 14.8958333333333  Z " fill-rule="evenodd" />
    </mask>
  </defs>
  <g transform="matrix(1 0 0 1 -770 -1093 )">
    <path d="M 11.35 14.8958333333333  C 11.35 14.8958333333333  11.35 1.22395833333333  11.35 1.22395833333333  C 11.35 1.22395833333333  0.1 1.22395833333333  0.1 1.22395833333333  C 0.1 1.22395833333333  0.1 14.8958333333333  0.1 14.8958333333333  C 0.1 14.8958333333333  11.35 14.8958333333333  11.35 14.8958333333333  Z " fill-rule="nonzero" fill="#ffffff" stroke="none" fill-opacity="0" transform="matrix(1 0 0 1 770 1093 )" />
    <path d="M 11.35 14.8958333333333  C 11.35 14.8958333333333  11.35 1.22395833333333  11.35 1.22395833333333  C 11.35 1.22395833333333  0.1 1.22395833333333  0.1 1.22395833333333  C 0.1 1.22395833333333  0.1 14.8958333333333  0.1 14.8958333333333  C 0.1 14.8958333333333  11.35 14.8958333333333  11.35 14.8958333333333  Z " stroke-width="4" stroke="#000000" fill="none" transform="matrix(1 0 0 1 770 1093 )" mask="url(#clip182)" />
  </g>
</svg>