<?xml version="1.0" encoding="utf-8"?>
<svg version="1.1" xmlns:xlink="http://www.w3.org/1999/xlink" width="922px" height="209px" xmlns="http://www.w3.org/2000/svg">
  <g transform="matrix(1 0 0 1 -123 -2246 )">
    <path d="M 124 2251  A 4 4 0 0 1 128 2247 L 1040 2247  A 4 4 0 0 1 1044 2251 L 1044 2450  A 4 4 0 0 1 1040 2454 L 128 2454  A 4 4 0 0 1 124 2450 L 124 2251  Z " fill-rule="nonzero" fill="#ffffff" stroke="none" fill-opacity="0" />
    <path d="M 123.5 2251  A 4.5 4.5 0 0 1 128 2246.5 L 1040 2246.5  A 4.5 4.5 0 0 1 1044.5 2251 L 1044.5 2450  A 4.5 4.5 0 0 1 1040 2454.5 L 128 2454.5  A 4.5 4.5 0 0 1 123.5 2450 L 123.5 2251  Z " stroke-width="1" stroke-dasharray="3,1" stroke="#d9001b" fill="none" stroke-dashoffset="0.5" />
  </g>
</svg>