<?xml version="1.0" encoding="utf-8"?>
<svg version="1.1" xmlns:xlink="http://www.w3.org/1999/xlink" width="28px" height="28px" viewBox="695 4009  28 28" xmlns="http://www.w3.org/2000/svg">
  <path d="M 709 4009  C 716.84 4009  723 4015.16  723 4023  C 723 4030.84  716.84 4037  709 4037  C 701.16 4037  695 4030.84  695 4023  C 695 4015.16  701.16 4009  709 4009  Z " fill-rule="nonzero" fill="#ffffff" stroke="none" />
  <path d="M 709 4009.5  C 716.56 4009.5  722.5 4015.44  722.5 4023  C 722.5 4030.56  716.56 4036.5  709 4036.5  C 701.44 4036.5  695.5 4030.56  695.5 4023  C 695.5 4015.44  701.44 4009.5  709 4009.5  Z " stroke-width="1" stroke="#797979" fill="none" />
  <path d="M 709 4030  C 705.08 4030  702 4026.92  702 4023  C 702 4019.08  705.08 4016  709 4016  C 712.92 4016  716 4019.08  716 4023  C 716 4026.92  712.92 4030  709 4030  " fill-rule="nonzero" fill="#797979" stroke="none" />
</svg>