<?xml version="1.0" encoding="utf-8"?>
<svg version="1.1" xmlns:xlink="http://www.w3.org/1999/xlink" width="28px" height="28px" viewBox="761 6365  28 28" xmlns="http://www.w3.org/2000/svg">
  <path d="M 775 6365  C 782.84 6365  789 6371.16  789 6379  C 789 6386.84  782.84 6393  775 6393  C 767.16 6393  761 6386.84  761 6379  C 761 6371.16  767.16 6365  775 6365  Z " fill-rule="nonzero" fill="#f0f0f0" stroke="none" />
  <path d="M 775 6365.5  C 782.56 6365.5  788.5 6371.44  788.5 6379  C 788.5 6386.56  782.56 6392.5  775 6392.5  C 767.44 6392.5  761.5 6386.56  761.5 6379  C 761.5 6371.44  767.44 6365.5  775 6365.5  Z " stroke-width="1" stroke="#797979" fill="none" />
  <path d="M 775 6386  C 771.08 6386  768 6382.92  768 6379  C 768 6375.08  771.08 6372  775 6372  C 778.92 6372  782 6375.08  782 6379  C 782 6382.92  778.92 6386  775 6386  " fill-rule="nonzero" fill="#797979" stroke="none" />
</svg>