<?xml version="1.0" encoding="utf-8"?>
<svg version="1.1" xmlns:xlink="http://www.w3.org/1999/xlink" width="28px" height="28px" viewBox="761 6807  28 28" xmlns="http://www.w3.org/2000/svg">
  <path d="M 775 6807  C 782.84 6807  789 6813.16  789 6821  C 789 6828.84  782.84 6835  775 6835  C 767.16 6835  761 6828.84  761 6821  C 761 6813.16  767.16 6807  775 6807  Z " fill-rule="nonzero" fill="#f0f0f0" stroke="none" />
  <path d="M 775 6807.5  C 782.56 6807.5  788.5 6813.44  788.5 6821  C 788.5 6828.56  782.56 6834.5  775 6834.5  C 767.44 6834.5  761.5 6828.56  761.5 6821  C 761.5 6813.44  767.44 6807.5  775 6807.5  Z " stroke-width="1" stroke="#797979" fill="none" />
  <path d="M 775 6828  C 771.08 6828  768 6824.92  768 6821  C 768 6817.08  771.08 6814  775 6814  C 778.92 6814  782 6817.08  782 6821  C 782 6824.92  778.92 6828  775 6828  " fill-rule="nonzero" fill="#797979" stroke="none" />
</svg>