<?xml version="1.0" encoding="utf-8"?>
<svg version="1.1" xmlns:xlink="http://www.w3.org/1999/xlink" width="28px" height="28px" viewBox="761 6662  28 28" xmlns="http://www.w3.org/2000/svg">
  <path d="M 775 6662  C 782.84 6662  789 6668.16  789 6676  C 789 6683.84  782.84 6690  775 6690  C 767.16 6690  761 6683.84  761 6676  C 761 6668.16  767.16 6662  775 6662  Z " fill-rule="nonzero" fill="#ffffff" stroke="none" />
  <path d="M 775 6662.5  C 782.56 6662.5  788.5 6668.44  788.5 6676  C 788.5 6683.56  782.56 6689.5  775 6689.5  C 767.44 6689.5  761.5 6683.56  761.5 6676  C 761.5 6668.44  767.44 6662.5  775 6662.5  Z " stroke-width="1" stroke="#797979" fill="none" />
  <path d="M 775 6683  C 771.08 6683  768 6679.92  768 6676  C 768 6672.08  771.08 6669  775 6669  C 778.92 6669  782 6672.08  782 6676  C 782 6679.92  778.92 6683  775 6683  " fill-rule="nonzero" fill="#797979" stroke="none" />
</svg>