<?xml version="1.0" encoding="utf-8"?>
<svg version="1.1" xmlns:xlink="http://www.w3.org/1999/xlink" width="28px" height="28px" viewBox="1508 6365  28 28" xmlns="http://www.w3.org/2000/svg">
  <path d="M 1522 6365  C 1529.84 6365  1536 6371.16  1536 6379  C 1536 6386.84  1529.84 6393  1522 6393  C 1514.16 6393  1508 6386.84  1508 6379  C 1508 6371.16  1514.16 6365  1522 6365  Z " fill-rule="nonzero" fill="#ffffff" stroke="none" />
  <path d="M 1522 6365.5  C 1529.56 6365.5  1535.5 6371.44  1535.5 6379  C 1535.5 6386.56  1529.56 6392.5  1522 6392.5  C 1514.44 6392.5  1508.5 6386.56  1508.5 6379  C 1508.5 6371.44  1514.44 6365.5  1522 6365.5  Z " stroke-width="1" stroke="#797979" fill="none" />
  <path d="M 1522 6386  C 1518.08 6386  1515 6382.92  1515 6379  C 1515 6375.08  1518.08 6372  1522 6372  C 1525.92 6372  1529 6375.08  1529 6379  C 1529 6382.92  1525.92 6386  1522 6386  " fill-rule="nonzero" fill="#797979" stroke="none" />
</svg>