<?xml version="1.0" encoding="utf-8"?>
<svg version="1.1" xmlns:xlink="http://www.w3.org/1999/xlink" width="28px" height="28px" viewBox="1508 6510  28 28" xmlns="http://www.w3.org/2000/svg">
  <path d="M 1522 6510  C 1529.84 6510  1536 6516.16  1536 6524  C 1536 6531.84  1529.84 6538  1522 6538  C 1514.16 6538  1508 6531.84  1508 6524  C 1508 6516.16  1514.16 6510  1522 6510  Z " fill-rule="nonzero" fill="#f0f0f0" stroke="none" />
  <path d="M 1522 6510.5  C 1529.56 6510.5  1535.5 6516.44  1535.5 6524  C 1535.5 6531.56  1529.56 6537.5  1522 6537.5  C 1514.44 6537.5  1508.5 6531.56  1508.5 6524  C 1508.5 6516.44  1514.44 6510.5  1522 6510.5  Z " stroke-width="1" stroke="#797979" fill="none" />
  <path d="M 1522 6531  C 1518.08 6531  1515 6527.92  1515 6524  C 1515 6520.08  1518.08 6517  1522 6517  C 1525.92 6517  1529 6520.08  1529 6524  C 1529 6527.92  1525.92 6531  1522 6531  " fill-rule="nonzero" fill="#797979" stroke="none" />
</svg>