<?xml version="1.0" encoding="utf-8"?>
<svg version="1.1" xmlns:xlink="http://www.w3.org/1999/xlink" width="28px" height="28px" viewBox="1508 6662  28 28" xmlns="http://www.w3.org/2000/svg">
  <path d="M 1522 6662  C 1529.84 6662  1536 6668.16  1536 6676  C 1536 6683.84  1529.84 6690  1522 6690  C 1514.16 6690  1508 6683.84  1508 6676  C 1508 6668.16  1514.16 6662  1522 6662  Z " fill-rule="nonzero" fill="#f0f0f0" stroke="none" />
  <path d="M 1522 6662.5  C 1529.56 6662.5  1535.5 6668.44  1535.5 6676  C 1535.5 6683.56  1529.56 6689.5  1522 6689.5  C 1514.44 6689.5  1508.5 6683.56  1508.5 6676  C 1508.5 6668.44  1514.44 6662.5  1522 6662.5  Z " stroke-width="1" stroke="#797979" fill="none" />
  <path d="M 1522 6683  C 1518.08 6683  1515 6679.92  1515 6676  C 1515 6672.08  1518.08 6669  1522 6669  C 1525.92 6669  1529 6672.08  1529 6676  C 1529 6679.92  1525.92 6683  1522 6683  " fill-rule="nonzero" fill="#797979" stroke="none" />
</svg>