<?xml version="1.0" encoding="utf-8"?>
<svg version="1.1" xmlns:xlink="http://www.w3.org/1999/xlink" width="10px" height="8px" xmlns="http://www.w3.org/2000/svg">
  <defs>
    <mask fill="white" id="clip184">
      <path d="M 9.91666666666667 7.91666666666667  C 9.91666666666667 7.91666666666667  9.91666666666667 0.104166666666668  9.91666666666667 0.104166666666668  C 9.91666666666667 0.104166666666668  0.541666666666668 0.104166666666668  0.541666666666668 0.104166666666668  C 0.541666666666668 0.104166666666668  0.541666666666668 7.91666666666667  0.541666666666668 7.91666666666667  C 0.541666666666668 7.91666666666667  9.91666666666667 7.91666666666667  9.91666666666667 7.91666666666667  Z " fill-rule="evenodd" />
    </mask>
  </defs>
  <g transform="matrix(1 0 0 1 -521 -724 )">
    <path d="M 9.91666666666667 7.91666666666667  C 9.91666666666667 7.91666666666667  9.91666666666667 0.104166666666668  9.91666666666667 0.104166666666668  C 9.91666666666667 0.104166666666668  0.541666666666668 0.104166666666668  0.541666666666668 0.104166666666668  C 0.541666666666668 0.104166666666668  0.541666666666668 7.91666666666667  0.541666666666668 7.91666666666667  C 0.541666666666668 7.91666666666667  9.91666666666667 7.91666666666667  9.91666666666667 7.91666666666667  Z " fill-rule="nonzero" fill="#ffffff" stroke="none" fill-opacity="0" transform="matrix(1 0 0 1 521 724 )" />
    <path d="M 9.91666666666667 7.91666666666667  C 9.91666666666667 7.91666666666667  9.91666666666667 0.104166666666668  9.91666666666667 0.104166666666668  C 9.91666666666667 0.104166666666668  0.541666666666668 0.104166666666668  0.541666666666668 0.104166666666668  C 0.541666666666668 0.104166666666668  0.541666666666668 7.91666666666667  0.541666666666668 7.91666666666667  C 0.541666666666668 7.91666666666667  9.91666666666667 7.91666666666667  9.91666666666667 7.91666666666667  Z " stroke-width="4" stroke="#aaaaaa" fill="none" transform="matrix(1 0 0 1 521 724 )" mask="url(#clip184)" />
  </g>
</svg>