<?xml version="1.0" encoding="utf-8"?>
<svg version="1.1" xmlns:xlink="http://www.w3.org/1999/xlink" width="60px" height="80px" xmlns="http://www.w3.org/2000/svg">
  <g transform="matrix(1 0 0 1 -1033 -658 )">
    <path d="M 1092.5 670  C 1092.5 670  1092.5 726  1092.5 726  C 1092.5 732.608  1079.1 737.5  1063 737.5  C 1046.9 737.5  1033.5 732.608  1033.5 726  C 1033.5 726  1033.5 670  1033.5 670  C 1033.5 663.392  1046.9 658.5  1063 658.5  C 1079.1 658.5  1092.5 663.392  1092.5 670  Z " fill-rule="nonzero" fill="#d2d2d2" stroke="none" />
    <path d="M 1033.5 670.35  C 1033.5 663.714  1046.48 658.5  1063 658.5  C 1079.52 658.5  1092.5 663.714  1092.5 670.35  C 1092.5 670.35  1092.5 725.65  1092.5 725.65  C 1092.5 732.286  1079.52 737.5  1063 737.5  C 1046.48 737.5  1033.5 732.286  1033.5 725.65  C 1033.5 725.65  1033.5 670.35  1033.5 670.35  Z " stroke-width="1" stroke="#ff0e0e" fill="none" />
    <path d="M 1092.5 670  C 1092.5 676.44  1079.52 681.5  1063 681.5  C 1046.48 681.5  1033.5 676.44  1033.5 670  " stroke-width="1" stroke="#ff0e0e" fill="none" />
  </g>
</svg>