<?xml version="1.0" encoding="utf-8"?>
<svg version="1.1" xmlns:xlink="http://www.w3.org/1999/xlink" width="364px" height="37px" xmlns="http://www.w3.org/2000/svg">
  <g transform="matrix(1 0 0 1 -32 -1999 )">
    <path d="M 34 2005  A 4 4 0 0 1 38 2001 L 390 2001  A 4 4 0 0 1 394 2005 L 394 2030  A 4 4 0 0 1 390 2034 L 38 2034  A 4 4 0 0 1 34 2030 L 34 2005  Z " fill-rule="nonzero" fill="#ffffff" stroke="none" fill-opacity="0" />
    <path d="M 33 2005  A 5 5 0 0 1 38 2000 L 390 2000  A 5 5 0 0 1 395 2005 L 395 2030  A 5 5 0 0 1 390 2035 L 38 2035  A 5 5 0 0 1 33 2030 L 33 2005  Z " stroke-width="2" stroke-dasharray="6,2" stroke="#ff0000" fill="none" />
  </g>
</svg>