<?xml version="1.0" encoding="utf-8"?>
<svg version="1.1" xmlns:xlink="http://www.w3.org/1999/xlink" width="10px" height="18px" xmlns="http://www.w3.org/2000/svg">
  <g transform="matrix(1 0 0 1 -236 -243 )">
    <path d="M 9.96376810886549 3.1986755044495  L 9.96376810886549 0.615894031974338  C 9.96376810886549 0.341580418794862  9.76099852409481 0.119205298013245  9.51086956521739 0.119205298013245  L 7.24637680451767 0.119205298013245  C 4.87256925221286 -0.0104757266698814  2.84898102734263 1.98684605813741  2.71739130434783 4.58940397350993  L 2.71739130434783 7.27152317880795  L 0.452898543648098 7.27152317880795  C 0.202769584770681 7.27152317880795  0 7.49389829958957  0 7.76821191276904  L 0 10.3509933852442  C 0 10.6253069984237  0.202769584770677 10.8476821192053  0.452898543648098 10.8476821192053  L 2.71739130434783 10.8476821192053  L 2.71739130434783 17.5033112660389  C 2.71739130434783 17.7776248792184  2.9201608891185 18  3.17028984799592 18  L 5.88768115234375 18  C 6.13781013245079 18  6.34057971722147 17.7776248792184  6.34057971722147 17.5033112660389  L 6.34057971722147 10.8476821192053  L 8.71376810886549 10.8476821192053  C 8.92096419143913 10.8509462992883  9.10375353882424 10.6995762634605  9.15760869565217 10.4801324425704  L 9.80978260869565 7.89735099337748  C 9.82012272022449 7.85523876489255  9.82536033385714 7.81181641297591  9.82536033385714 7.76820411247623  C 9.82536033385714 7.49497694878473  9.6241343827803 7.27305444419125  9.375 7.27152317880795  L 6.34057971722147 7.27152317880795  L 6.34057971722147 4.58940397350993  C 6.38726629719237 4.07989938565915  6.77945827107175 3.69279810949823  7.24637680451766 3.6953642384106  L 9.51086956521739 3.6953642384106  C 9.76099852409481 3.6953642384106  9.96376810886549 3.47298911762898  9.96376810886549 3.1986755044495  Z " fill-rule="nonzero" fill="#231f20" stroke="none" transform="matrix(1 0 0 1 236 243 )" />
  </g>
</svg>