<?xml version="1.0" encoding="utf-8"?>
<svg version="1.1" xmlns:xlink="http://www.w3.org/1999/xlink" width="17px" height="18px" xmlns="http://www.w3.org/2000/svg">
  <g transform="matrix(1 0 0 1 -294 -244 )">
    <path d="M 16.966796875 9.21865472560975  C 16.966796875 8.23685213414634  16.871337890625 7.65377286585366  16.8671875 7.6280487804878  L 16.780029296875 7.24647484756098  L 8.7490234375 7.24647484756098  L 8.7490234375 10.7578125  L 13.546875 10.7578125  C 13.048828125 13.2016006097561  10.737060546875 14.4878048780488  8.8486328125 14.4878048780488  C 7.474853515625 14.4878048780488  6.0263671875 13.8918635670732  5.067626953125 12.9314977134146  C 4.083984375 11.9454077743902  3.457275390625 10.4919969512195  3.457275390625 8.99571265243902  C 3.457275390625 7.51657774390244  4.1005859375 6.03744283536585  5.03857421875 5.06421493902439  C 5.972412109375 4.0952743902439  7.3876953125 3.54649390243902  8.794677734375 3.54649390243902  C 10.405029296875 3.54649390243902  11.558837890625 4.4296875  11.990478515625 4.83269817073171  L 14.406005859375 2.35032393292683  C 13.6962890625 1.70722179878049  11.749755859375 0.0866044207317065  8.7158203125 0.0866044207317065  C 6.375 0.0866044207317065  4.129638671875 1.01267149390244  2.490234375 2.70188643292683  C 0.87158203125 4.36537728658537  0.033203125 6.77057926829268  0.033203125 9  C 0.033203125 11.2294207317073  0.825927734375 13.5188643292683  2.394775390625 15.1952172256098  C 4.071533203125 16.9830411585366  6.445556640625 17.9176829268293  8.89013671875 17.9176829268293  C 11.11474609375 17.9176829268293  13.22314453125 17.0173399390244  14.7255859375 15.3838605182927  C 16.203125 13.7761051829268  16.966796875 11.5509717987805  16.966796875 9.21865472560975  Z " fill-rule="nonzero" fill="#000000" stroke="none" transform="matrix(1 0 0 1 294 244 )" />
  </g>
</svg>