<?xml version="1.0" encoding="utf-8"?>
<svg version="1.1" xmlns:xlink="http://www.w3.org/1999/xlink" width="85px" height="82px" xmlns="http://www.w3.org/2000/svg">
  <g transform="matrix(1 0 0 1 -167 -99 )">
    <path d="M 85 37  L 45 37  L 45 17.504377125947  C 45 17.504377125947  43.8888888671875 17.2835016619318  43.222222265625 17.2835016619318  L 43 17.2835016619318  C 41.8888888671875 17.504377125947  40.777777734375 17.504377125947  40 17.7252524928977  L 40 37  L 1 37  L 1 21.4801347017046  C 0.111111132812501 19.0505050828598  2.1111111328125 17.2835016619318  4.33333330078125 18  L 22.1111111328125 18  C 17.4444444335938 16.1791245359848  13.8888888671875 14.1912457481061  13.6666666992188 10.4363636363636  C 13.4444444335938 6.01885522964015  18.5555555664063 -1.27003362689394  25.8888888671875 0.496969696969697  C 33.4444444335938 2.26397302083333  38.777777734375 8.00673401751894  42.777777734375 13.0868687192235  C 46.777777734375 8.00673401751894  52.777777734375 1.38047145596591  60.5555555664062 0.276094232954546  C 67.4444444335937 -0.607407428977273  72.777777734375 6.01885522964015  72.1111111328125 10.4363636363636  C 71.4444444335937 14.1912457481061  67.8888888671875 16.4  63.222222265625 18  L 80.777777734375 18  C 83.2222221679688 17.2835016619318  85 19.2713804498106  85 21.4801347017045  L 85 37  Z M 38.777777734375 14.4121212121212  C 35.6666666015625 10.6572391003788  31.8888888671875 6.46060606060606  26.777777734375 4.47272727272727  C 23.2222221679687 3.14747477982955  21 4.69360273674243  19.4444444335938 7.12323235558712  C 18.5555555664063 8.44848484848485  17.6666666992188 10.4363636363636  19 11.7616161292614  C 22.5555555664062 15.295622874053  32.1111111328125 15.0747474100379  38.777777734375 14.4121212121212  Z M 55.222222265625 14.6329966761364  C 58.7777778320312 14.4121212121212  65 14.1912458451705  66.777777734375 11.7616161292614  C 69.2222221679687 8.44848484848485  64.3333333007812 1.82222218986742  59 4.25185180871212  C 53.8888888671875 6.68148142755682  50.3333333007812 10.4363636363636  47 14.4121212121212  C 49.6666666992187 14.6329966761364  52.5555555664062 14.6329966761364  55.222222265625 14.6329966761364  Z M 40 40  L 40 81  L 7.66666669921875 81  C 5.44444443359375 81.7791245359848  3.66666669921875 80.0121212121212  4 77.8033669602273  L 4 40  L 40 40  Z M 81 40  L 81 77.8033669602273  C 81.4444444335937 80.0121212121212  79.6666666992188 81.7791245359848  77.4444444335937 81  L 45 81  L 45 40  L 81 40  Z " fill-rule="nonzero" fill="#000000" stroke="none" transform="matrix(1 0 0 1 167 99 )" />
  </g>
</svg>