<?xml version="1.0" encoding="utf-8"?>
<svg version="1.1" xmlns:xlink="http://www.w3.org/1999/xlink" width="135px" height="128px" xmlns="http://www.w3.org/2000/svg">
  <g transform="matrix(1 0 0 1 -265 -310 )">
    <path d="M 134.134615384615 85.8513513513514  C 134.283353365385 77.0810810810811  130.443209134615 74.7162162162162  129.821213942308 74.1891891891892  C 129.740084134615 74.1891891891892  129.604867788462 74.1756756756757  129.402043269231 74.1756756756757  C 128.780048076923 59.9189189189189  121.302584134615 47.0810810810811  116.069711538462 39.7567567567568  C 118.517127403846 38.2702702702703  120.301983173077 35.7297297297297  120.680588942308 32.6621621621622  C 121.356670673077 27.3378378378378  117.584134615385 22.4864864864865  112.256610576923 21.8108108108108  C 106.929086538462 21.1351351351351  102.074819711538 24.9054054054054  101.398737980769 30.2297297297297  C 101.317608173077 30.8648648648649  101.304086538462 31.4864864864865  101.344651442308 32.0945945945946  C 98.6673677884615 29.3108108108108  95.4897836538462 26.9189189189189  91.8659855769231 25.0810810810811  C 86.0922475961538 22.1486486486486  79.9128605769231 20.9459459459459  73.8822115384615 21.2702702702703  C 66.3641826923077 4.28378378378378  46.8118990384615 -4.16216216216216  29.1256009615385 2.36486486486486  C 10.7091346153846 9.14864864864865  1.28455528846154 29.5675675675676  8.07241586538461 47.9594594594595  C 8.84314903846154 50.0405405405405  9.78966346153846 52  10.8713942307692 53.8378378378378  C 12.8455528846154 53.7432432432432  15.5363581730769 53.6216216216216  18.4705528846154 53.4864864864865  C 16.6856971153846 51.1891891891892  15.2118389423077 48.5945945945946  14.1571514423077 45.7162162162162  C 8.62680288461538 30.6756756756757  16.3206129807692 14  31.3701923076923 8.45945945945946  C 45.2569110576923 3.33783783783784  60.5498798076923 9.5  67.1754807692308 22.2972972972973  C 61.5369591346154 23.7162162162162  56.2635216346154 26.5  51.8825120192308 30.4864864864865  C 50.4627403846154 29.8783783783784  48.8671875 29.5  47.0688100961538 29.3378378378378  C 44.7295673076923 29.2972972972973  42.4038461538462 29.2432432432432  40.0510817307692 29.1756756756757  L 36.1298076923077 18.527027027027  L 37.4819711538462 17.972972972973  C 38.6313100961538 17.5540540540541  39.8482572115385 17.3108108108108  41.1192908653846 17.2567567567568  C 42.3903245192308 17.2027027027027  43.0934495192308 17.3513513513513  43.2286658653846 17.7162162162162  C 43.3368389423077 18.0135135135135  43.0799278846154 18.3243243243243  42.4579326923077 18.6486486486486  C 41.8359375 18.972972972973  41.3221153846154 19.6351351351351  40.9299879807692 20.6621621621622  C 40.5378605769231 21.6891891891892  40.5513822115385 22.7972972972973  40.9840745192308 23.972972972973  C 41.4708533653846 25.3108108108108  42.3091947115385 26.1756756756757  43.4990985576923 26.5810810810811  C 44.6890024038462 26.9864864864865  45.9059495192308 26.9594594594595  47.1634615384615 26.5  C 48.4209735576923 26.0405405405405  49.3134014423077 25.2162162162162  49.8677884615385 24.027027027027  C 50.4221754807692 22.8378378378378  50.4627403846154 21.6486486486487  50.0165264423077 20.4324324324324  C 49.1646634615385 18.1216216216216  47.5285456730769 16.7297297297297  45.0946514423077 16.2567567567568  C 42.6607572115385 15.7702702702703  39.8076923076923 16.1351351351351  36.5219350961539 17.3513513513514  L 35.7917668269231 17.6216216216216  L 34.7641225961539 14.8513513513514  L 33.8040865384616 15.2027027027027  L 34.8317307692308 17.972972972973  C 32.0462740384616 19  29.5988581730769 20.9459459459459  27.5030048076923 23.7972972972973  C 25.4071514423077 26.6486486486486  24.9744591346154 29.7567567567568  26.2049278846154 33.0810810810811  C 26.9215745192308 35.027027027027  28.1114783653846 36.5945945945946  29.7881610576923 37.8108108108108  C 31.4513221153846 39.0135135135135  33.0333533653846 39.7162162162162  34.4936899038462 39.9054054054054  C 35.9540264423077 40.0945945945946  37.3873197115385 40.2027027027027  38.7935697115385 40.2567567567568  C 40.1862980769231 40.3108108108108  41.5384615384615 40.3513513513514  42.8230168269231 40.3918918918919  L 43.4585336538462 42.1216216216216  C 42.2821514423077 44.7432432432432  41.4438100961539 47.4459459459459  40.9299879807692 50.1621621621622  C 42.1739783653846 49.5540540540541  43.3774038461539 49.472972972973  43.3774038461539 49.472972972973  C 43.3774038461539 49.472972972973  45.0540865384615 49.472972972973  47.7313701923077 49.4594594594595  C 48.2451923076923 47.4459459459459  48.9888822115385 45.472972972973  49.9624399038462 43.5405405405405  C 57.2235576923077 29.2837837837838  74.6664663461539 23.5945945945946  88.9453125 30.8513513513514  C 97.9507211538462 35.4324324324324  103.521634615385 44.0675675675676  104.58984375 53.4054054054054  L 111.161358173077 53.7702702702703  C 110.769230769231 49.0945945945946  109.444110576923 44.5405405405405  107.294170673077 40.3783783783784  C 108.091947115385 40.7162162162162  108.943810096154 40.9594594594595  109.849759615385 41.0675675675676  C 111.066706730769 41.2162162162162  112.270132211538 41.1351351351351  113.392427884615 40.8513513513514  C 120.612980769231 51.2162162162162  123.371394230769 61.7297297297297  124.196213942308 70.1891891891892  C 121.032151442308 60.6891891891892  115.474759615385 57.445945945946  114.271334134615 56.5  C 111.999699519231 56.4594594594595  87.36328125 54.9594594594595  87.36328125 54.9594594594595  C 87.36328125 54.9594594594595  96.1658653846154 57.972972972973  95.1923076923077 80.6216216216216  C 94.6784855769231 92.6216216216216  92.3527644230769 103.27027027027  90.0270432692308 111.121621621622  C 91.9065504807692 102.121621621622  93.1775841346154 89.2972972972973  91.6902043269231 72.1351351351351  C 90.4191706730769 57.4189189189189  85.3215144230769 51.9189189189189  83.9963942307692 51.2027027027027  C 70.7587139423077 51.2027027027027  43.4450120192308 51.3108108108108  43.4450120192308 51.3108108108108  C 43.4450120192308 51.3108108108108  37.6983173076923 54.0810810810811  36.0486778846154 72.8513513513514  C 34.7100360576923 88.2027027027027  34.6694711538461 101.297297297297  38.2391826923077 116.945945945946  C 35.5889423076923 108.918918918919  32.34375 95.9189189189189  31.9381009615385 80.8513513513514  C 31.3161057692308 58.0810810810811  40.1457331730769 55.2027027027027  40.1457331730769 55.2027027027027  C 40.1457331730769 55.2027027027027  15.6174879807692 56.3378378378378  13.359375 56.3378378378378  C 11.6150841346154 57.6756756756757  0.838341346153846 63.6216216216216  0.838341346153846 86.3918918918919  C 0.838341346153846 108.135135135135  12.6427283653846 125.121621621622  12.6427283653846 125.121621621622  C 12.6427283653846 125.121621621622  34.3043870192308 124.986486486486  40.3215144230769 124.972972972973  C 40.5919471153846 125.918918918919  40.8759014423077 126.864864864865  41.1733774038462 127  L 84.1856971153846 127  C 84.1856971153846 127.837837837838  84.9158653846154 126.702702702703  85.9435096153846 124.364864864865  C 91.8118990384615 124.472972972973  113.892728365385 124.945945945946  113.892728365385 124.945945945946  C 113.892728365385 124.945945945946  121.086237980769 115.027027027027  124.547776442308 100.581081081081  C 127.130408653846 100.635135135135  129.672475961538 100.702702702703  129.672475961538 100.702702702703  C 129.672475961538 100.702702702703  134.012920673077 94.2297297297297  134.134615384615 85.8513513513514  Z M 44.2563100961538 40.445945945946  C 44.2292668269231 40.5  44.2022235576923 40.5675675675676  44.1751802884615 40.6216216216216  L 44.0534855769231 40.8648648648649  L 43.8912259615385 40.4324324324324  C 44.0129206730769 40.4324324324324  44.1346153846154 40.445945945946  44.2563100961538 40.445945945946  Z M 115.826322115385 26.0810810810811  C 115.623497596154 27.6486486486486  114.230769230769 28.7567567567568  112.689302884615 28.5675675675676  C 111.147836538462 28.3648648648649  110.066105769231 26.9324324324324  110.255408653846 25.3648648648649  C 110.444711538462 23.7972972972973  111.850961538462 22.6891891891892  113.392427884615 22.8783783783784  C 114.933894230769 23.0810810810811  116.015625 24.5135135135135  115.826322115385 26.0810810810811  Z M 116.421274038462 38.945945945946  C 116.123798076923 37.6621621621622  114.284855769231 37.4594594594595  113.581730769231 38  C 114.541766826923 36.8783783783784  115.217848557692 37.3648648648649  115.934495192308 37.4054054054054  C 116.786358173077 37.4594594594595  117.002704326923 37.3513513513514  117.705829326923 36.8108108108108  C 118.395432692308 36.2702702702703  119.585336538462 34.6756756756757  120.05859375 32.5810810810811  C 120.05859375 32.5810810810811  120.274939903846 35.7837837837838  116.421274038462 38.945945945946  Z M 4.55679086538461 72.1486486486487  C 4.17818509615385 73.1486486486486  3.85366586538462 72.945945945946  3.94831730769231 72.2432432432432  C 6.59855769230769 63.2297297297297  10.9390024038462 59.4189189189189  11.4663461538462 58.8108108108108  C 11.9936899038462 58.1891891891892  13.0618990384615 57.5675675675676  14.2923677884615 57.5675675675676  C 15.5228365384615 57.5675675675676  27.3813100961538 56.7702702702703  27.3813100961538 56.7702702702703  C 27.3813100961538 56.7702702702703  18.8897235576923 58.1891891891892  16.8479567307692 58.4459459459459  C 14.8197115384615 58.7162162162162  13.0348557692308 59.2297297297297  10.9390024038462 60.972972972973  C 8.49158653846154 63  6.54447115384615 67.054054054054  4.55679086538461 72.1486486486487  Z M 16.9426081730769 124.067567567568  C 16.9426081730769 124.067567567568  15.1983173076923 124.081081081081  14.2923677884615 124.081081081081  C 13.3864182692308 124.081081081081  13.1295072115385 123.864864864865  12.5615985576923 122.72972972973  C 11.25 120.081081081081  10.4927884615385 117.783783783784  10.4927884615385 117.783783783784  C 10.4927884615385 117.783783783784  12.1153846153846 120.918918918919  12.6832932692308 121.810810810811  C 13.4269831730769 122.972972972973  13.8596754807692 123.337837837838  14.3734975961538 123.5  C 15.2794471153846 123.783783783784  16.9426081730769 124.067567567568  16.9426081730769 124.067567567568  Z M 29.0850360576923 76.2702702702703  C 29.5988581730769 76.6891891891892  29.4365985576923 77.9594594594595  28.7605168269231 78.8108108108108  C 28.0844350961538 79.6621621621622  26.8134014423077 82.2702702702703  24.7040264423077 88.027027027027  C 22.5946514423077 93.7837837837838  24.0279447115385 99.4324324324324  23.7710336538462 103.662162162162  C 23.5141225961538 107.891891891892  17.6862980769231 108.310810810811  15.9149639423077 107.972972972973  C 14.1436298076923 107.635135135135  11.8584735576923 106.108108108108  11.8584735576923 101.297297297297  C 11.8584735576923 96.4864864864865  19.3765024038462 88.1216216216216  20.0525841346154 87.0135135135135  C 20.7286658653846 85.9189189189189  20.9855769230769 84.5675675675676  19.5387620192308 85.1486486486487  C 18.10546875 85.7432432432433  13.9272836538462 85.4864864864865  12.7238581730769 85.0945945945946  C 11.5069110576923 84.7027027027027  10.8037860576923 84.8108108108108  10.1277043269231 85.7972972972973  C 9.45162259615384 86.7837837837838  9.05949519230769 89.0945945945946  8.88371394230769 90.2297297297298  C 8.73497596153846 91.1486486486487  8.65384615384615 91.8108108108108  8.05889423076923 91.8108108108108  C 7.4639423076923 91.8108108108108  6.81490384615384 91.8243243243244  6.50390625 91.8243243243244  C 5.90895432692307 91.8243243243244  5.54387019230769 91.3648648648649  5.40865384615384 90.445945945946  C 5.2734375 89.527027027027  4.66496394230769 81.6486486486487  4.55679086538461 79.5810810810811  C 4.46213942307692 77.8243243243244  5.36808894230769 77.4594594594595  5.89543269230769 77.4594594594595  L 8.19411057692307 77.4594594594595  C 9.31640625 77.4594594594595  9.27584134615384 78.5405405405406  9.27584134615384 78.6756756756757  L 9.27584134615384 79.7297297297297  C 10.0060096153846 78.2837837837838  11.25 77.6351351351351  12.3452524038462 76.9594594594595  C 13.4405048076923 76.2837837837838  17.3347355769231 76.6216216216216  18.0919471153846 77.0405405405405  C 18.8491586538461 77.4594594594595  21.4723557692308 78.3918918918919  22.8245192307692 78.3918918918919  C 24.1766826923077 78.3918918918919  25.1908052884615 76.9594594594595  26.1237980769231 75.8513513513514  C 27.0567908653846 74.7567567567568  28.5712139423077 75.8513513513514  29.0850360576923 76.2702702702703  Z M 48.5291466346154 53.6756756756757  C 46.5009014423077 53.945945945946  43.0123197115385 55.472972972973  42.1604567307692 56.8648648648649  C 40.1322115384615 60.2297297297297  39.4155649038462 61.9864864864865  38.9693509615385 66.6756756756757  C 38.7935697115385 68.5405405405405  37.9957932692308 68.972972972973  38.0904447115385 67.3783783783784  C 39.3344350961538 58.1891891891892  42.0658052884615 54.6486486486487  42.6066706730769 54.027027027027  C 43.1340144230769 53.4054054054054  44.2022235576923 52.7837837837838  45.4326923076923 52.7837837837838  C 46.6631610576923 52.7837837837838  58.7920673076923 52.2567567567568  58.7920673076923 52.2567567567568  C 58.7920673076923 52.2567567567568  50.5709134615385 53.4054054054054  48.5291466346154 53.6756756756757  Z M 75.0991586538461 83  C 69.5147235576923 95.9054054054054  73.4900841346154 101.945945945946  70.6505408653846 107.378378378378  C 68.1760817307692 112.108108108108  63.0919471153846 113.689189189189  59.6980168269231 112.918918918919  C 57.1424278846154 112.324324324324  52.8966346153846 110.324324324324  53.0453725961538 103.743243243243  C 53.2346754807692 95.3378378378378  63.1460336538462 88.5675675675676  67.7163461538461 82.8918918918919  C 68.5141225961538 81.9054054054054  68.0679086538461 81.1756756756757  66.7563100961538 81.3378378378378  C 64.0925480769231 81.6486486486486  60.3064903846154 80.3513513513514  58.6433293269231 79.6216216216216  C 57.0342548076923 78.9189189189189  54.5597956730769 78.8648648648649  53.3563701923077 81.4864864864865  C 52.6262019230769 83.054054054054  52.4368990384615 84.554054054054  52.1799879807692 86.2027027027027  C 51.9771634615384 87.5405405405405  51.8013822115384 88.4864864864865  50.9359975961538 88.4864864864865  C 50.0841346153846 88.4864864864865  47.8530649038461 88.5135135135135  47.4068509615384 88.5135135135135  C 46.5414663461538 88.5135135135135  46.40625 88.0675675675676  47 86.7162162162162  L 47 68.3513513513514  C 46.40625 67.3918918918919  47.109375 67.1486486486487  47.8665865384615 67.1486486486487  C 48.6237980769231 67.1486486486487  49.8677884615385 67.1351351351351  51.4903846153846 67.1351351351351  C 53.1265024038461 67.1351351351351  53.0588942307692 68.2972972972973  53.0588942307692 68.4864864864865  L 53.0588942307692 70.4189189189189  C 54.9654447115385 69.0405405405405  56.1012620192308 68.6756756756757  57.6968149038461 67.7027027027027  C 59.2923677884615 66.7297297297297  63.9438100961538 67.1891891891892  65.0525841346154 67.7972972972973  C 66.1613581730769 68.4054054054054  71.4077524038461 71.0135135135135  73.3548677884615 71.0135135135135  C 75.3019831730769 71.0135135135135  76.2214543269231 70.1351351351351  77.5600961538461 68.5405405405405  C 78.2361778846154 67.7432432432432  79.2503004807692 67.5  79.9399038461539 68.0135135135135  C 80.7106370192308 68.5945945945946  81.8464543269231 69.3918918918919  82.2250600961539 69.7027027027027  C 82.9552283653846 70.3108108108108  83.1715745192308 71.2972972972973  82.2250600961539 72.2702702702703  C 80.4131610576923 74.1351351351351  78.3443509615385 75.4864864864865  75.0991586538461 83  Z M 83.7530048076923 119.364864864865  C 83.7530048076923 119.364864864865  82.9957932692308 121.635135135135  81.6841947115385 124.297297297297  C 81.1162860576923 125.432432432432  80.859375 125.648648648649  79.9534254807692 125.648648648649  L 77.3031850961539 125.648648648649  C 77.3031850961539 125.648648648649  78.9663461538462 125.351351351351  79.8722956730769 125.081081081081  C 80.3996394230769 124.918918918919  80.8188100961538 124.554054054054  81.5625 123.391891891892  C 82.1304086538462 122.5  83.7530048076923 119.364864864865  83.7530048076923 119.364864864865  Z M 98.61328125 56.7702702702703  C 98.61328125 56.7702702702703  110.471754807692 57.5675675675676  111.715745192308 57.5675675675676  C 112.959735576923 57.5675675675676  114.014423076923 58.1891891891892  114.541766826923 58.8108108108108  C 115.069110576923 59.4324324324324  119.409555288462 63.2297297297297  122.059795673077 72.2432432432432  C 122.154447115385 72.945945945946  121.829927884615 73.1486486486486  121.437800480769 72.1486486486486  C 119.450120192308 67.054054054054  117.503004807692 63  115.055588942308 60.972972972973  C 112.946213942308 59.2297297297297  111.174879807692 58.7027027027027  109.146634615385 58.4459459459459  C 107.118389423077 58.1756756756757  98.61328125 56.7702702702703  98.61328125 56.7702702702703  Z M 116.110276442308 117.418918918919  C 116.110276442308 117.418918918919  115.366586538462 119.702702702703  114.041466346154 122.351351351351  C 113.473557692308 123.486486486486  113.216646634615 123.702702702703  112.310697115385 123.702702702703  L 109.660456730769 123.702702702703  C 109.660456730769 123.702702702703  111.323617788462 123.405405405405  112.229567307692 123.135135135135  C 112.756911057692 122.972972972973  113.176081730769 122.608108108108  113.919771634615 121.445945945946  C 114.487680288462 120.554054054054  116.110276442308 117.418918918919  116.110276442308 117.418918918919  Z M 124.385516826923 79.6351351351351  C 124.750600961538 80.1756756756757  124.304387019231 81.3648648648649  123.466045673077 82.0405405405405  C 122.614182692308 82.7162162162162  120.802283653846 85  117.489483173077 90.1351351351351  C 114.163161057692 95.2702702702703  114.325420673077 101.108108108108  113.149038461538 105.175675675676  C 111.97265625 109.243243243243  106.185396634615 108.378378378378  104.535757211538 107.648648648649  C 102.872596153846 106.932432432432  100.979567307692 104.945945945946  102.047776442308 100.243243243243  C 103.102463942308 95.5405405405405  112.283653846154 89.0405405405405  113.189603365385 88.1081081081081  C 114.095552884615 87.1891891891892  114.636418269231 85.9189189189189  113.108473557692 86.1891891891892  C 111.580528846154 86.4459459459459  107.564603365385 85.2837837837838  106.469350961538 84.6351351351351  C 105.374098557692 83.9864864864865  104.657451923077 83.9459459459459  103.778545673077 84.7567567567567  C 102.899639423077 85.5675675675676  102.020733173077 87.7297297297297  101.6015625 88.8108108108108  C 101.263521634615 89.6756756756757  101.033653846154 90.2972972972973  100.452223557692 90.1756756756757  C 99.8707932692308 90.0405405405405  99.2352764423077 89.9189189189189  98.9378004807692 89.8513513513514  C 98.3563701923077 89.7162162162162  98.0994591346154 89.1891891891892  98.1670673076923 88.2702702702703  C 98.2346754807692 87.3378378378378  99.3840144230769 79.527027027027  99.7355769230769 77.472972972973  C 100.033052884615 75.7432432432432  100.993088942308 75.5810810810811  101.506911057692 75.7027027027027  C 102.007211538462 75.8108108108108  102.642728365385 75.9594594594595  103.751502403846 76.2027027027027  C 104.846754807692 76.4459459459459  104.562800480769 77.4864864864865  104.535757211538 77.6216216216216  C 104.508713942308 77.7567567567568  104.305889423077 78.6486486486486  104.305889423077 78.6486486486486  C 105.347055288462 77.3918918918919  106.685697115385 77.027027027027  107.902644230769 76.6216216216216  C 109.119591346154 76.2027027027027  112.838040865385 77.3918918918919  113.487079326923 77.9594594594595  C 114.136117788462 78.5405405405405  116.488882211538 80.027027027027  117.814002403846 80.3108108108108  C 119.139122596154 80.6081081081081  120.437199519231 79.4324324324324  121.586538461538 78.5675675675676  C 122.735877403846 77.7027027027027  123.979867788462 79.1081081081081  124.385516826923 79.6351351351351  Z M 130.037560096154 98.7027027027027  C 129.483173076923 99.8378378378378  129.226262019231 100.040540540541  128.3203125 100.040540540541  L 125.670072115385 100.040540540541  C 125.670072115385 100.040540540541  127.333233173077 99.7432432432432  128.239182692308 99.472972972973  C 128.766526442308 99.3108108108108  129.185697115385 98.945945945946  129.929387019231 97.7837837837838  C 130.497295673077 96.8918918918919  132.119891826923 93.7567567567568  132.119891826923 93.7567567567568  C 132.119891826923 93.7567567567568  131.362680288462 96.054054054054  130.037560096154 98.7027027027027  Z " fill-rule="nonzero" fill="#bebebe" stroke="none" transform="matrix(1 0 0 1 265 310 )" />
  </g>
</svg>