<?xml version="1.0" encoding="utf-8"?>
<svg version="1.1" xmlns:xlink="http://www.w3.org/1999/xlink" width="64px" height="16px" xmlns="http://www.w3.org/2000/svg">
  <g transform="matrix(1 0 0 1 -295 -347 )">
    <path d="M 7.75675675675677 14.6184210526316  C 7.62162162162163 14.25  7.79729729729731 13.9868421052631  8.28378378378378 13.8157894736842  C 9.12162162162162 13.3815789473684  9.77027027027027 12.7105263157895  10.2567567567568 11.8026315789474  C 10.7432432432433 10.8947368421053  10.7567567567568 9.85526315789474  10.3243243243243 8.71052631578947  C 9.81081081081082 7.35526315789474  8.94594594594595 6.43421052631579  7.72972972972974 5.96052631578948  C 6.51351351351352 5.48684210526316  5.21621621621622 5.50000000000001  3.82432432432434 6.01315789473684  C 2.51351351351353 6.48684210526316  1.55405405405407 7.35526315789474  0.972972972972985 8.63157894736842  C 0.391891891891904 9.89473684210526  0.33783783783785 11.1578947368421  0.810810810810823 12.4078947368421  C 1.29729729729731 13.6710526315789  2.09459459459461 14.6315789473684  3.20270270270272 15.3026315789474  C 5.31081081081083 15.2368421052632  7.06756756756759 15.1973684210526  8.20270270270271 15.1973684210526  C 8.22972972972974 15.1184210526316  8.25675675675677 15.0526315789474  8.29729729729731 14.9868421052631  C 8.00000000000001 14.8947368421053  7.82432432432434 14.7763157894737  7.75675675675677 14.6184210526316  Z M 56.2162162162162 0.513157894736836  L 55.3108108108108 0.0526315789473684  L 53.972972972973 2.61842105263158  C 51.3243243243243 1.30263157894737  48.2432432432433 0.855263157894737  44.7297297297297 1.23684210526316  C 41.2162162162162 1.63157894736842  38.6486486486487 3.36842105263158  37.0405405405406 6.44736842105263  C 36.1351351351351 8.18421052631579  35.7837837837838 10  35.9864864864865 11.921052631579  C 40.2972972972973 11.9078947368421  44.5 11.8947368421053  47.9054054054054 11.8947368421053  C 47.4054054054054 11.0657894736842  47.0405405405406 10.25  46.8378378378379 9.44736842105264  C 46.5540540540541 8.31578947368421  46.7162162162162 7.14473684210527  47.3513513513514 5.94736842105263  C 47.9459459459459 4.80263157894737  48.7837837837838 4.03947368421053  49.8648648648649 3.64473684210526  C 50.945945945946 3.26315789473685  52.1486486486486 3.23684210526316  53.472972972973 3.57894736842105  L 49.1351351351351 11.8815789473684  L 50.2837837837838 11.8815789473684  L 54.4459459459459 3.90789473684211  L 55.7567567567568 4.51315789473685  C 56.8513513513514 5.05263157894737  57.8513513513514 5.76315789473685  58.7567567567568 6.63157894736843  C 59.6621621621622 7.50000000000001  60.027027027027 8.10526315789474  59.8513513513514 8.44736842105264  C 59.7027027027027 8.72368421052633  59.3108108108108 8.75000000000001  58.6486486486487 8.51315789473685  C 57.9864864864865 8.27631578947369  57.1621621621622 8.35526315789475  56.1351351351352 8.75000000000001  C 55.1081081081081 9.14473684210527  54.3243243243244 9.88157894736843  53.7432432432433 10.9736842105263  C 53.5810810810811 11.2763157894737  53.4594594594595 11.5921052631579  53.3648648648649 11.8815789473684  L 55.4189189189189 11.8815789473684  C 58.0135135135136 11.8815789473684  60.2567567567568 15.0657894736842  60.2567567567568 15.0657894736842  L 62.3918918918919 15.1842105263158  C 62.4054054054054 15.1447368421053  62.4324324324324 15.1184210526316  62.4594594594595 15.0789473684211  C 63.5675675675676 12.9473684210526  63.4864864864865 10.8552631578947  62.1891891891892 8.81578947368421  C 60.8918918918919 6.76315789473684  58.6891891891892 4.97368421052632  55.5675675675676 3.42105263157894  L 54.8783783783784 3.07894736842105  L 56.2162162162162 0.513157894736836  Z " fill-rule="nonzero" fill="#bebebe" stroke="none" transform="matrix(1 0 0 1 295 347 )" />
  </g>
</svg>