<?xml version="1.0" encoding="utf-8"?>
<svg version="1.1" xmlns:xlink="http://www.w3.org/1999/xlink" width="130px" height="123px" xmlns="http://www.w3.org/2000/svg">
  <g transform="matrix(1 0 0 1 -275 -473 )">
    <path d="M 119.328358208955 27.1886479591837  C 124.902304852154 27.0360109283117  129.34234313019 22.613232548657  129.353233830846 17.2027423469388  C 129.355928557874 17.1093708765639  129.357276119403 17.0159673801909  129.357276119403 16.9225593079068  C 129.357276119403 11.3944989178275  124.738681237682 6.91312053239659  119.041355721393 6.91312053239659  C 113.344030205104 6.91312053239659  108.725435323383 11.3944989178275  108.725435323383 16.9225593079068  C 108.725435323383 17.0159673801909  108.726782884913 17.1093708765639  108.72947761194 17.2027423469388  C 108.72947761194 20.3640306122449  110.257462686567 23.1566326530612  112.626243781095 24.9922193877551  L 105.616915422886 46.7447066326531  L 102.706467661692 46.7447066326531  C 102.706467661692 46.815306122449  102.682213930348 46.8780612244898  102 46.9408163265306  L 102 71.1329081632653  L 95.7213930348259 71.1329081632653  C 95.0841298907423 71.1453279364773  94.4521927553623 71.2484026756443  93 71.4388392857143  L 93 36.6803571428571  L 93.7487562189055 36.6803571428571  C 92.7900634136289 16.4884720915225  75.6456458374874 0.592590564578834  54.8134328358209 1  L 39.0485074626866 1  C 18.2131663631794 0.588401503262338  1.0639383026463 16.4854423122337  0.105099502487562 36.6803571428571  L 0 36.6803571428571  L 0 109.797895408163  C 0 116.779400510204  5.82898009950249 122.419515306122  13.0080845771144 122  L 80.8215174129353 122  C 88.0087064676617 122.419515306122  93.8296019900497 116.771556122449  93 109.797895408163  L 93 88.2022959183674  C 94.4377101948261 88.3838163016623  95.0690910755223 88.4815190793646  95.705223880597 88.4925382653061  L 103.005597014925 88.4925382653061  C 103.838308457711 90.2575255102041  106.26368159204 90.0692602040816  109.174129353234 90.0692602040816  L 109.449004975124 90.0692602040816  C 112.375621890547 90.0692602040816  114.825248756219 90.2575255102041  115.641791044776 88.4454719387755  C 118.746268656716 88.2179846938776  118.47947761194 85.5116709183673  118.47947761194 82.177806122449  L 118.47947761194 77.4397959183674  C 118.47947761194 74.2392857142857  118.722014925373 71.6114158163265  116 71.2113520408163  L 116 46.9408163265306  L 115.932835820896 46.7447066326531  L 113.030472636816 46.7447066326531  L 119.328358208955 27.1886479591837  Z M 74.6772388059701 102  L 19.1442786069652 102  C 19.7101990049751 95.3720663265306  29.8159203980099 89.94375  42.2419154228856 89.94375  L 51.5876865671642 89.94375  C 63.9975124378109 89.94375  74.1032338308458 95.3642219387755  74.6772388059701 102  Z M 82 32  L 82 74  L 10 74  L 10 32  L 82 32  Z " fill-rule="nonzero" fill="#bebebe" stroke="none" transform="matrix(1 0 0 1 275 473 )" />
  </g>
</svg>