<?xml version="1.0" encoding="utf-8"?>
<svg version="1.1" xmlns:xlink="http://www.w3.org/1999/xlink" width="10px" height="17px" xmlns="http://www.w3.org/2000/svg">
  <g transform="matrix(1 0 0 1 -70 -1514 )">
    <path d="M 9.96376810886549 3.02097130975787  L 9.96376810886549 0.581677696864652  C 9.96376810886549 0.322603728861814  9.76099852409481 0.112582781456954  9.51086956521739 0.112582781456954  L 7.24637680451767 0.112582781456954  C 4.87256925221286 -0.00989374185488795  2.84898102734263 1.87646572157422  2.71739130434783 4.33443708609272  L 2.71739130434783 6.86754966887417  L 0.452898543648098 6.86754966887417  C 0.202769584770681 6.86754966887417  0 7.07757061627903  0 7.33664458428187  L 0 9.77593819717508  C 0 10.0350121651779  0.202769584770677 10.2450331125828  0.452898543648098 10.2450331125828  L 2.71739130434783 10.2450331125828  L 2.71739130434783 16.5309050845923  C 2.71739130434783 16.7899790525951  2.9201608891185 17  3.17028984799592 17  L 5.88768115234375 17  C 6.13781013245079 17  6.34057971722147 16.7899790525951  6.34057971722147 16.5309050845923  L 6.34057971722147 10.2450331125828  L 8.71376810886549 10.2450331125828  C 8.92096419143913 10.2481159493278  9.10375353882424 10.1051553599349  9.15760869565217 9.89790286242757  L 9.80978260869565 7.45860927152318  C 9.82012272022449 7.4188366112874  9.82536033385714 7.37782661225503  9.82536033385714 7.33663721733866  C 9.82536033385714 7.07858934051891  9.6241343827803 6.86899586395841  9.375 6.86754966887417  L 6.34057971722147 6.86754966887417  L 6.34057971722147 4.33443708609272  C 6.38726629719237 3.85323830867809  6.77945827107175 3.48764265897055  7.24637680451766 3.49006622516556  L 9.51086956521739 3.49006622516556  C 9.76099852409481 3.49006622516556  9.96376810886549 3.2800452777607  9.96376810886549 3.02097130975787  Z " fill-rule="nonzero" fill="#231f20" stroke="none" transform="matrix(1 0 0 1 70 1514 )" />
  </g>
</svg>