<?xml version="1.0" encoding="utf-8"?>
<svg version="1.1" xmlns:xlink="http://www.w3.org/1999/xlink" width="17px" height="17px" xmlns="http://www.w3.org/2000/svg">
  <g transform="matrix(1 0 0 1 -178 -1514 )">
    <path d="M 16.966796875 8.70650724085366  C 16.966796875 7.77924923780488  16.871337890625 7.22856326219512  16.8671875 7.20426829268293  L 16.780029296875 6.84389291158537  L 8.7490234375 6.84389291158537  L 8.7490234375 10.16015625  L 13.546875 10.16015625  C 13.048828125 12.4681783536585  10.737060546875 13.6829268292683  8.8486328125 13.6829268292683  C 7.474853515625 13.6829268292683  6.0263671875 13.1200933689024  5.067626953125 12.2130811737805  C 4.083984375 11.2817740091463  3.457275390625 9.90910823170732  3.457275390625 8.49595083841463  C 3.457275390625 7.09899009146341  4.1005859375 5.70202934451219  5.03857421875 4.78286966463415  C 5.972412109375 3.86775914634146  7.3876953125 3.34946646341463  8.794677734375 3.34946646341463  C 10.405029296875 3.34946646341463  11.558837890625 4.18359375  11.990478515625 4.56421493902439  L 14.406005859375 2.21975038109756  C 13.6962890625 1.61237614329268  11.749755859375 0.0817930640243895  8.7158203125 0.0817930640243895  C 6.375 0.0817930640243895  4.129638671875 0.956411966463414  2.490234375 2.55178163109756  C 0.87158203125 4.12285632621951  0.033203125 6.39443597560976  0.033203125 8.5  C 0.033203125 10.6055640243902  0.825927734375 12.7678163109756  2.394775390625 14.3510384908537  C 4.071533203125 16.0395388719512  6.445556640625 16.922256097561  8.89013671875 16.922256097561  C 11.11474609375 16.922256097561  13.22314453125 16.0719321646341  14.7255859375 14.5292016006098  C 16.203125 13.0107660060976  16.966796875 10.9092511432927  16.966796875 8.70650724085366  Z " fill-rule="nonzero" fill="#000000" stroke="none" transform="matrix(1 0 0 1 178 1514 )" />
  </g>
</svg>