<?xml version="1.0" encoding="utf-8"?>
<svg version="1.1" xmlns:xlink="http://www.w3.org/1999/xlink" width="4px" height="11px" xmlns="http://www.w3.org/2000/svg">
  <g transform="matrix(1 0 0 1 -304 -103 )">
    <path d="M 0.699599999999999 8.5514  C 0.699599999999999 9.35708888888889  1.34413333333333 9.96575555555556  2.26213333333333 9.96575555555556  C 3.18986666666666 9.96575555555556  3.82466666666667 9.35708888888889  3.82466666666667 8.5514  C 3.82466666666667 7.73678888888889  3.18986666666666 7.13704444444444  2.26213333333333 7.13704444444444  C 1.34413333333333 7.13704444444444  0.699599999999999 7.73678888888889  0.699599999999999 8.5514  Z M 0.699599999999999 1.84646  C 0.699599999999999 2.6521  1.34413333333333 3.25184444444444  2.26213333333333 3.25184444444444  C 3.18986666666666 3.25184444444444  3.82466666666667 2.6521  3.82466666666667 1.84646  C 3.82466666666667 1.03184888888889  3.18986666666666 0.432079999999999  2.26213333333333 0.432079999999999  C 1.34413333333333 0.432079999999999  0.699599999999999 1.03184888888889  0.699599999999999 1.84646  Z " fill-rule="nonzero" fill="#383838" stroke="none" transform="matrix(1 0 0 1 304 103 )" />
  </g>
</svg>