<?xml version="1.0" encoding="utf-8"?>
<svg version="1.1" xmlns:xlink="http://www.w3.org/1999/xlink" width="25px" height="14px" xmlns="http://www.w3.org/2000/svg">
  <defs>
    <mask fill="white" id="clip193">
      <path d="M 0 11.0833333333333  C 0 11.0833333333333  0 2.91671333333333  0 2.91671333333333  C 0 1.52065666666667  1.10227272727276 0.388931666666667  2.46136363636363 0.388931666666667  C 2.46136363636363 0.388931666666667  22.5375 0.388931666666667  22.5375 0.388931666666667  C 23.8977272727272 0.388931666666667  25 1.52065666666667  25 2.91671333333333  C 25 2.91671333333333  25 11.0833333333333  25 11.0833333333333  C 25 12.4794833333333  23.8977272727272 13.61115  22.5375 13.61115  C 22.5375 13.61115  2.46136363636363 13.61115  2.46136363636363 13.61115  C 1.10227272727276 13.61115  0 12.4794833333333  0 11.0833333333333  Z " fill-rule="evenodd" />
    </mask>
  </defs>
  <g transform="matrix(1 0 0 1 -646 -101 )">
    <path d="M 0 11.0833333333333  C 0 11.0833333333333  0 2.91671333333333  0 2.91671333333333  C 0 1.52065666666667  1.10227272727276 0.388931666666667  2.46136363636363 0.388931666666667  C 2.46136363636363 0.388931666666667  22.5375 0.388931666666667  22.5375 0.388931666666667  C 23.8977272727272 0.388931666666667  25 1.52065666666667  25 2.91671333333333  C 25 2.91671333333333  25 11.0833333333333  25 11.0833333333333  C 25 12.4794833333333  23.8977272727272 13.61115  22.5375 13.61115  C 22.5375 13.61115  2.46136363636363 13.61115  2.46136363636363 13.61115  C 1.10227272727276 13.61115  0 12.4794833333333  0 11.0833333333333  Z " fill-rule="nonzero" fill="#ffffff" stroke="none" fill-opacity="0" transform="matrix(1 0 0 1 646 101 )" />
    <path d="M 0 11.0833333333333  C 0 11.0833333333333  0 2.91671333333333  0 2.91671333333333  C 0 1.52065666666667  1.10227272727276 0.388931666666667  2.46136363636363 0.388931666666667  C 2.46136363636363 0.388931666666667  22.5375 0.388931666666667  22.5375 0.388931666666667  C 23.8977272727272 0.388931666666667  25 1.52065666666667  25 2.91671333333333  C 25 2.91671333333333  25 11.0833333333333  25 11.0833333333333  C 25 12.4794833333333  23.8977272727272 13.61115  22.5375 13.61115  C 22.5375 13.61115  2.46136363636363 13.61115  2.46136363636363 13.61115  C 1.10227272727276 13.61115  0 12.4794833333333  0 11.0833333333333  Z " stroke-width="2" stroke="#383838" fill="none" transform="matrix(1 0 0 1 646 101 )" mask="url(#clip193)" />
  </g>
</svg>