<?xml version="1.0" encoding="utf-8"?>
<svg version="1.1" xmlns:xlink="http://www.w3.org/1999/xlink" width="21px" height="14px" xmlns="http://www.w3.org/2000/svg">
  <g transform="matrix(1 0 0 1 -596 -101 )">
    <path d="M 20.6115 1.94440166666667  C 20.6115 1.30006333333333  20.0888333333333 0.777735  19.4448333333333 0.777735  L 18.2781666666666 0.777735  C 17.633 0.777735  17.1115 1.30006333333333  17 1.94440166666667  L 17 12.0555166666667  C 17.1115 12.6998666666667  17.633 13.2221833333333  18.2781666666666 13.2221833333333  L 19.4448333333333 13.2221833333333  C 20.0888333333333 13.2221833333333  20.6115 12.6998666666667  20.6115 12.0555166666667  L 20.6115 1.94440166666667  Z M 11.6666666666667 4.66662  C 11.6666666666667 4.02228166666667  12.1893333333333 3.49995333333333  12.8333333333333 3.49995333333333  L 14 3.49995333333333  C 14.644 3.49995333333333  15.1666666666667 4.02228166666667  15.1666666666667 4.66662  L 15.1666666666667 12.0555166666667  C 15.1666666666667 12.6998666666667  14.644 13.2221833333333  14 13.2221833333333  L 12.8333333333333 13.2221833333333  C 12.1893333333333 13.2221833333333  11.6666666666667 12.6998666666667  11.6666666666667 12.0555166666667  L 11.6666666666667 4.66662  Z M 9.72183333333336 7.38885  C 9.72183333333336 6.7445  9.19916666666666 6.22218333333333  8.5551666666667 6.22218333333333  L 7.38850000000003 6.22218333333333  C 6.74450000000001 6.22218333333333  6.22183333333336 6.7445  6.22183333333336 7.38885  L 6.22183333333336 12.0555166666667  C 6.22183333333336 12.6998666666667  6.74450000000001 13.2221833333333  7.38850000000003 13.2221833333333  L 8.5551666666667 13.2221833333333  C 9.19916666666666 13.2221833333333  9.72183333333336 12.6998666666667  9.72183333333336 12.0555166666667  L 9.72183333333336 7.38885  Z M 4.27816666666664 9.72218333333333  C 4.27816666666664 9.07783333333333  3.75549999999999 8.55551666666667  3.11149999999997 8.55551666666667  L 1.9448333333333 8.55551666666667  C 1.29966666666664 8.55551666666667  0.778166666666635 9.07783333333333  0.778166666666635 9.72218333333333  L 0.778166666666635 12.0555166666667  C 0.778166666666635 12.6998666666667  1.29966666666664 13.2221833333333  1.9448333333333 13.2221833333333  L 3.11149999999997 13.2221833333333  C 3.75549999999999 13.2221833333333  4.27816666666664 12.6998666666667  4.27816666666664 12.0555166666667  L 4.27816666666664 9.72218333333333  Z " fill-rule="nonzero" fill="#383838" stroke="none" transform="matrix(1 0 0 1 596 101 )" />
  </g>
</svg>