<?xml version="1.0" encoding="utf-8"?>
<svg version="1.1" xmlns:xlink="http://www.w3.org/1999/xlink" width="11px" height="14px" xmlns="http://www.w3.org/2000/svg">
  <g transform="matrix(1 0 0 1 -292 -101 )">
    <path d="M 0.733455555555555 9.77421666666667  C 1.11833333333333 11.7994333333333  2.91768888888889 13.13235  5.28097777777778 13.13235  C 8.56631111111111 13.13235  10.5178333333333 10.6800166666667  10.5178333333333 6.52715  C 10.5178333333333 4.963455  10.2044555555556 3.64753666666667  9.60471111111111 2.63069333333333  C 8.73632222222222 1.04988333333333  7.24142222222222 0.195393333333334  5.3526 0.195393333333334  C 2.54173333333333 0.195393333333334  0.5544 1.99837166666667  0.5544 4.52767  C 0.5544 6.90316666666667  2.34483333333333 8.62925  4.80651111111111 8.62925  C 6.31937777777778 8.62925  7.54575555555556 7.95421666666667  8.15454444444445 6.78358333333333  L 8.18131111111111 6.78358333333333  C 8.18131111111111 6.78358333333333  8.21712222222222 6.78358333333333  8.22616666666667 6.78358333333333  C 8.24401111111111 6.78358333333333  8.30671111111111 6.78358333333333  8.30671111111111 6.78358333333333  C 8.30671111111111 9.6033  7.18776666666667 11.2866833333333  5.29882222222222 11.2866833333333  C 4.1888 11.2866833333333  3.32945555555556 10.7056833333333  3.03404444444444 9.77421666666667  L 0.733455555555555 9.77421666666667  Z M 7.92171111111111 4.49348666666667  C 7.92171111111111 5.86926666666667  6.83857777777778 6.8775  5.36152222222222 6.8775  C 3.87554444444444 6.8775  2.81917777777778 5.86926666666667  2.81917777777778 4.459315  C 2.81917777777778 3.08358166666667  3.9292 2.032555  5.37044444444444 2.032555  C 6.81168888888889 2.032555  7.92171111111111 3.10066166666667  7.92171111111111 4.49348666666667  Z " fill-rule="nonzero" fill="#383838" stroke="none" transform="matrix(1 0 0 1 292 101 )" />
  </g>
</svg>