<?xml version="1.0" encoding="utf-8"?>
<svg version="1.1" xmlns:xlink="http://www.w3.org/1999/xlink" width="6px" height="7px" xmlns="http://www.w3.org/2000/svg">
  <g transform="matrix(1 0 0 1 -442 -980 )">
    <path d="M 5.48657661165149 2.99746365966797  L 4.99903551841887 2.99746365966797  L 5.00006003207781 1.56038345281428  C 5.00006003207781 0.704418346058239  4.11301448158113 0.0119514715021308  3.01656325796771 0.0119514715021308  C 1.92014379915149 0.0119514715021308  1.031073046875 0.704418346058239  1.031073046875 1.56038345281428  L 1.02197155939569 2.99746365966797  L 0.524328290562914 2.99746365966797  C 0.249210828849337 2.99746365966797  0.0388203383692049 3.21864892356179  0.0388203383692049 3.43327613081499  L 0.0277015961299665 6.54255667280717  C 0.0277015961299665 6.75693746004972  0.260353396626655 6.97838504527699  0.534454291701159 6.97838504527699  L 5.49770330091059 6.97838504527699  C 5.77182802152318 6.97838504527699  5.98221056498344 6.75693746004972  5.98221056498344 6.54255667280717  L 5.99332930722268 3.43327613081499  C 5.99332930722268 3.21865687810724  5.75966887934603 2.99746365966797  5.48657661165149 2.99746365966797  Z M 3.99769721647351 2.99746365966797  L 2.01623358340232 2.99746365966797  L 2.01623358340232 1.50520836403587  C 2.01623358340232 1.07823535045277  2.46937804221854 0.786167466042259  3.01657120498758 0.786167466042259  C 3.56277161889487 0.786167466042259  4.00479733547185 1.07823535045277  4.00479733547185 1.50520836403587  L 3.99769721647351 2.99746365966797  Z " fill-rule="nonzero" fill="#ffffff" stroke="none" transform="matrix(1 0 0 1 442 980 )" />
  </g>
</svg>