<?xml version="1.0" encoding="utf-8"?>
<svg version="1.1" xmlns:xlink="http://www.w3.org/1999/xlink" width="18px" height="14px" xmlns="http://www.w3.org/2000/svg">
  <g transform="matrix(1 0 0 1 -621 -101 )">
    <path d="M 2.67412500000001 5.81740833333333  C 4.480875 4.036025  6.87824999999997 3.04267833333333  9.37124999999998 3.04269  C 11.86425 3.042795  14.261625 4.03614166666667  16.068375 5.81740833333333  C 16.2045 5.9549  16.421625 5.95315  16.556625 5.81352333333333  L 17.857125 4.45240833333333  C 17.924625 4.38156833333333  17.96175 4.28561  17.96175 4.185755  C 17.960625 4.08591166666667  17.922375 3.99042  17.85375 3.92040833333333  C 13.111875 -0.7924  5.63062499999999 -0.7924  0.888750000000023 3.92040833333333  C 0.820124999999983 3.99037333333333  0.780750000000019 4.08584166666667  0.780750000000019 4.185685  C 0.779624999999982 4.28552833333333  0.817874999999972 4.38151  0.885374999999975 4.45240833333333  L 2.18587499999998 5.81352333333333  C 2.31975000000001 5.95338333333333  2.53799999999997 5.95513333333333  2.67412500000001 5.81740833333333  Z M 5.66887499999999 8.95218333333333  C 6.6825 7.99948333333333  8.00324999999997 7.47156666666667  9.37124999999998 7.47098333333333  C 10.7415 7.47086666666667  12.06225 7.99878333333333  13.077 8.95218333333333  C 13.21425 9.08751666666667  13.431375 9.0846  13.56525 8.94565  L 14.8635 7.5845  C 14.932125 7.5131  14.970375 7.41626666666667  14.96925 7.31558333333333  C 14.968125 7.21501666666667  14.92875 7.119  14.859 7.049  C 11.766375 4.06656833333333  6.97837499999997 4.06656833333333  3.88687499999998 7.049  C 3.81712499999997 7.119  3.77775 7.21501666666667  3.77662500000003 7.3157  C 3.77549999999999 7.41638333333333  3.81374999999998 7.51321666666667  3.88237500000002 7.5845  L 5.18062500000002 8.94565  C 5.31449999999999 9.0846  5.5305 9.08751666666667  5.66887499999999 8.95218333333333  Z M 11.8575 10.1861666666667  C 11.9295 10.25395  11.971125 10.3495  11.973375 10.4504166666667  C 11.975625 10.5513333333333  11.937375 10.6486333333333  11.867625 10.7193333333333  L 9.62100000000002 13.0709833333333  C 9.55462499999999 13.14005  9.46574999999999 13.1790166666667  9.37124999999998 13.1790166666667  C 9.27787500000002 13.1790166666667  9.18787499999997 13.14005  9.12262499999998 13.0709833333333  L 6.87487499999999 10.7193333333333  C 6.80512499999998 10.6486333333333  6.76687499999998 10.5512166666667  6.769125 10.4503  C 6.77137500000001 10.3493833333333  6.81299999999998 10.2538333333333  6.88612499999998 10.1861666666667  C 8.32050000000002 8.92745  10.422 8.92745  11.8575 10.1861666666667  Z " fill-rule="nonzero" fill="#383838" stroke="none" transform="matrix(1 0 0 1 621 101 )" />
  </g>
</svg>