<?xml version="1.0" encoding="utf-8"?>
<svg version="1.1" xmlns:xlink="http://www.w3.org/1999/xlink" width="20px" height="18px" xmlns="http://www.w3.org/2000/svg">
  <g transform="matrix(1 0 0 1 -317 -924 )">
    <path d="M 1.59090909090909 0  L 18.4545454545455 0  C 18.8787878787879 0  19.2386363636364 0.143558282208589  19.5340909090909 0.430674846625767  C 19.8295454545455 0.717791411042945  19.9772727272727 1.06748466257669  19.9772727272727 1.47975460122699  L 19.9772727272727 2.60613496932515  C 19.9772727272727 3.01840490797546  19.8295454545455 3.3680981595092  19.5340909090909 3.65521472392638  C 19.2386363636364 3.94233128834356  18.8787878787879 4.08588957055215  18.4545454545455 4  L 1.59090909090909 4  C 1.16666666666667 4.08588957055215  0.806818181818182 3.94233128834356  0.511363636363636 3.65521472392638  C 0.215909090909091 3.3680981595092  0.0681818181818181 3.01840490797546  0.0681818181818181 2.60613496932515  L 0.0681818181818181 1.47975460122699  C 0.0681818181818181 1.06748466257669  0.215909090909091 0.717791411042946  0.511363636363636 0.430674846625767  C 0.806818181818182 0.14355828220859  1.16666666666667 0  1.59090909090909 0  Z M 1.59090909090909 7  L 18.4545454545455 7  C 18.8787878787879 6.91288343558282  19.2386363636364 7.05644171779141  19.5340909090909 7.34355828220859  C 19.8295454545455 7.63067484662577  19.9772727272727 7.98036809815951  19.9772727272727 8.39263803680982  L 19.9772727272727 9.51901840490798  C 19.9772727272727 9.93128834355828  19.8295454545455 10.280981595092  19.5340909090909 10.5680981595092  C 19.2386363636364 10.8552147239264  18.8787878787879 10.998773006135  18.4545454545455 11  L 1.59090909090909 11  C 1.16666666666667 10.998773006135  0.806818181818182 10.8552147239264  0.511363636363636 10.5680981595092  C 0.215909090909091 10.280981595092  0.0681818181818181 9.93128834355828  0.0681818181818181 9.51901840490798  L 0.0681818181818181 8.39263803680982  C 0.0681818181818181 7.98036809815951  0.215909090909091 7.63067484662577  0.511363636363636 7.34355828220859  C 0.806818181818182 7.05644171779141  1.16666666666667 6.91288343558282  1.59090909090909 7  Z M 1.59090909090909 13.8257668711656  L 18.4545454545455 13.8257668711656  C 18.8787878787879 13.8257668711656  19.2386363636364 13.9693251533742  19.5340909090909 14.2564417177914  C 19.8295454545455 14.5435582822086  19.9772727272727 14.8932515337423  19.9772727272727 15.3055214723926  L 19.9772727272727 16.4319018404908  C 19.9772727272727 16.8441717791411  19.8295454545455 17.1938650306748  19.5340909090909 17.480981595092  C 19.2386363636364 17.7680981595092  18.8787878787879 17.9116564417178  18.4545454545455 18  L 1.59090909090909 18  C 1.16666666666667 17.9116564417178  0.806818181818182 17.7680981595092  0.511363636363636 17.480981595092  C 0.215909090909091 17.1938650306748  0.0681818181818181 16.8441717791411  0.0681818181818181 16.4319018404908  L 0.0681818181818181 15.3055214723926  C 0.0681818181818181 14.8932515337423  0.215909090909091 14.5435582822086  0.511363636363636 14.2564417177914  C 0.806818181818182 13.9693251533742  1.16666666666667 13.8257668711656  1.59090909090909 13.8257668711656  Z " fill-rule="nonzero" fill="#ffffff" stroke="none" transform="matrix(1 0 0 1 317 924 )" />
  </g>
</svg>