<?xml version="1.0" encoding="utf-8"?>
<svg version="1.1" xmlns:xlink="http://www.w3.org/1999/xlink" width="22px" height="22px" xmlns="http://www.w3.org/2000/svg">
  <g transform="matrix(1 0 0 1 -547 -923 )">
    <path d="M 11.8156154141104 18.8395833333333  C 11.8894267638037 18.0713541666667  12.3085697852761 17.3552083333333  12.4614647239264 17.0791666666667  L 17.2275690184049 8.74322916666667  L 17.2275690184049 2.46979166666667  C 17.2275690184049 1.13645833333333  16.1283071319018 0.0557291666666667  14.7733416411043 0  L 2.51011311349693 0  C 1.13933090490798 0.0557291666666667  0.0295245398773006 1.1390625  0 2.48020833333333  L 0 19.44375  C 0.0295245398773006 20.7822916666667  1.14196702453988 21.8682291666667  2.51011311349693 21.8682291666667  L 12.2163055981595 21.8682291666667  L 12.0792273773006 21.0947916666667  C 12.0001437883436 20.7380208333333  11.7259873466258 19.75625  11.8156154141104 18.8395833333333  Z M 3.7517254601227 6.11302083333333  C 3.7490893404908 5.77708333333334  3.99688458588957 5.50625  4.30267446319018 5.50625  L 13.1257668711656 5.50625  C 13.4315567484663 5.50625  13.6767158742331 5.77708333333333  13.6767158742331 6.11302083333333  C 13.6767158742331 6.44895833333334  13.4289206288344 6.71979166666667  13.1257668711656 6.71979166666667  L 4.30267446319018 6.71979166666667  C 3.99688458588957 6.71979166666667  3.7517254601227 6.44895833333334  3.7517254601227 6.11302083333333  Z M 11.1961273006135 15.803125  C 11.1961273006135 16.1390625  10.9483320552147 16.4098958333333  10.645178297546 16.4098958333333  L 4.30267446319018 16.4098958333333  C 3.99688458588957 16.4098958333333  3.7517254601227 16.1390625  3.7517254601227 15.803125  C 3.7517254601227 15.4671875  3.99952070552147 15.1963541666667  4.30267446319018 15.1963541666667  L 10.645178297546 15.1963541666667  C 10.9509681748466 15.1963541666667  11.1961273006135 15.4671875  11.1961273006135 15.803125  Z M 13.1257668711656 11.5635416666667  L 4.30267446319018 11.5635416666667  C 3.99688458588957 11.5635416666667  3.7517254601227 11.2927083333333  3.7517254601227 10.9567708333333  C 3.7517254601227 10.6208333333333  3.99952070552147 10.35  4.30267446319018 10.35  L 13.1257668711656 10.35  C 13.4315567484663 10.35  13.6767158742331 10.6208333333333  13.6767158742331 10.9567708333333  C 13.6767158742331 11.2927083333333  13.4289206288344 11.5635416666667  13.1257668711656 11.5635416666667  Z M 21.7300613496932 12.9177083333333  C 22.0912097392638 12.334375  21.8908646472393 11.4776041666667  21.2133819018405 11.1260416666667  L 19.4999041411043 10.1546875  C 19.1809336656442 9.959375  18.782879601227 9.9203125  18.4243673312883 10.0375  C 18.0658550613497 10.115625  17.7468845858896 10.35  17.5860812883436 10.6598958333333  L 13.2865701687117 17.8942708333333  C 13.0071414877301 18.3994791666667  12.848974309816 19.178125  12.9675996932515 19.7223958333333  L 13.1653086656442 20.85  C 13.2443922546012 21.2380208333333  13.4447373466258 21.5505208333333  13.7637078220859 21.7067708333333  C 13.9640529141104 21.8239583333333  14.1617618865031 21.8630208333333  14.4016487730061 21.8630208333333  C 14.5624520705522 21.8630208333333  14.7206192484663 21.8239583333333  14.8392446319018 21.7848958333333  L 15.9543232361963 21.396875  C 16.5131805981595 21.2015625  17.1115797546012 20.6963541666667  17.4279141104294 20.1911458333333  L 21.7300613496932 12.9177083333333  Z " fill-rule="nonzero" fill="#ffffff" stroke="none" transform="matrix(1 0 0 1 547 923 )" />
  </g>
</svg>