<?xml version="1.0" encoding="utf-8"?>
<svg version="1.1" xmlns:xlink="http://www.w3.org/1999/xlink" width="18px" height="6px" xmlns="http://www.w3.org/2000/svg">
  <g transform="matrix(1 0 0 1 -472 -939 )">
    <path d="M 7.21467628571429 0.145058333333333  L 8.80148171428571 0.139249999999999  C 11.1229485714286 0.139249999999999  13.4443685714286 0.139249999999999  15.7659057142857 0.139249999999999  C 16.2733685714286 0.139249999999999  16.7249542857143 0.262705555555556  17.0921971428571 0.637627777777778  C 17.2497542857143 0.791491666666666  17.3753314285714 0.976447222222221  17.4615485714286 1.18133333333333  C 17.5477657142857 1.38621944444444  17.5928657142857 1.60682222222222  17.5940371428571 1.83004444444444  C 17.6017685714286 2.49276388888889  17.6054 3.15616666666667  17.5940371428571 3.81877222222222  C 17.58818 4.26453333333333  17.4123485714286 4.69013611111111  17.1042628571429 5.00435555555556  C 16.7962942857143 5.31846111111111  16.3805542857143 5.49624166666667  15.9464228571429 5.49943055555556  C 11.1887711428571 5.50523888888889  6.43141228571429 5.50523888888889  1.67429942857143 5.49943055555556  C 1.240168 5.49817777777778  0.823726314285714 5.322675  0.513983028571429 5.01039166666667  C 0.204240914285714 4.69810833333333  0.0257690857142857 4.27387222222222  0.0167147628571429 3.828225  C -0.00404630171428571 3.15685  -0.00404630171428571 2.48501944444444  0.0167147628571429 1.81261944444444  C 0.0492719257142857 0.834541666666665  0.779684114285714 0.149386111111109  1.786124 0.145058333333333  C 3.59587571428571 0.138452777777776  5.40492457142857 0.145058333333333  7.21467628571429 0.145058333333333  Z " fill-rule="nonzero" fill="#ffffff" stroke="none" transform="matrix(1 0 0 1 472 939 )" />
  </g>
</svg>