<?xml version="1.0" encoding="utf-8"?>
<svg version="1.1" xmlns:xlink="http://www.w3.org/1999/xlink" width="21px" height="15px" xmlns="http://www.w3.org/2000/svg">
  <g transform="matrix(1 0 0 1 -473 -923 )">
    <path d="M 15.35097375 9.60585709876543  L 15.35097375 10.0313333333333  C 15.7453595833333 9.92879537037037  16.1030333333333 9.83836759259259  16.4599895833333 9.74310586419753  C 16.80175875 9.65186820987654  17.1442454166667 9.56467993827161  17.48159 9.45568827160494  C 17.5538183333333 9.43308765432099  17.6557033333333 9.32732283950617  17.6564208333333 9.25950833333333  C 17.6665854166667 8.01860030864198  17.6637154166667 6.77851481481481  17.6637154166667 5.51904290123457  C 17.5423383333333 5.50370586419753  17.4375833333333 5.49402530864197  17.3342633333333 5.47625864197531  C 17.1166216666667 5.44683734567901  16.9173958333333 5.32510277777778  16.7778420833333 5.13622438271605  C 16.6382883333333 4.94734598765432  16.56893 4.705775  16.5842366666667 4.46142006172839  C 16.5911725 4.22143086419753  16.68086 3.99374166666667  16.83476375 3.82607191358025  C 16.9885479166667 3.65841481481481  17.1944704166667 3.56378580246914  17.4093616666667 3.56202685185185  C 18.1487454166667 3.5458799382716  18.88789 3.5458799382716  19.6266758333333 3.56202685185185  C 19.8506554166667 3.5643299382716  20.0648291666667 3.66446358024691  20.22351625 3.84100401234568  C 20.3822033333333 4.01753179012346  20.4727279166667 4.25645802469136  20.4757175 4.50663395061728  C 20.4754783333333 4.75076111111111  20.3939225 4.98606820987654  20.2470741666667 5.16678456790124  C 20.1002258333333 5.34748827160494  19.8983691666667 5.46068117283951  19.6809666666667 5.48433209876543  C 19.60072625 5.49563240740741  19.5197683333333 5.49725216049383  19.39695625 5.50693271604938  L 19.39695625 5.82987098765432  C 19.39695625 7.22282067901235  19.39695625 8.61577037037037  19.39695625 10.0087200617284  C 19.39695625 10.691737037037  19.18027125 11.0001481481481  18.5841483333333 11.163237037037  C 17.58778 11.4361148148148  16.5906941666667 11.7073854938272  15.5915754166667 11.9665459876543  C 15.4101675 12.0141768518519  15.3443966666667 12.0884577160494  15.3479841666667 12.3064410493827  C 15.36101875 13.113799382716  15.35312625 13.9211450617284  15.35312625 14.7478518518519  L 0.520703166666666 14.7478518518519  L 0.520703166666666 14.4208641975309  C 0.520703166666666 10.5246240740741  0.520703166666666 6.62808024691358  0.520703166666666 2.73127067901235  C 0.521420666666667 1.08104219135802  1.49102625 0  2.96205670833333 0  L 12.9138654166667 0  C 14.3849795833333 0  15.35097375 1.08023484567901  15.35097375 2.73206790123457  C 15.35097375 5.02333518518519  15.35097375 7.31458981481481  15.35097375 9.60585709876543  Z M 6.597724875 6.0712774691358  L 6.597724875 12.2071425925926  L 9.27101029166667 12.2071425925926  L 9.27101029166667 6.0712774691358  L 6.597724875 6.0712774691358  Z M 11.0338958333333 6.06401388888889  L 11.0331783333333 12.2152160493827  C 11.73836125 12.2152160493827  12.4297920833333 12.2329700617284  13.1197879166667 12.2079398148148  C 13.436325 12.1958296296296  13.6147433333333 11.9213320987654  13.6176133333333 11.5386527777778  C 13.6219183333333 10.7724716049383  13.6176133333333 10.0046833333333  13.6176133333333 9.23931203703704  C 13.6176133333333 8.40208950617284  13.6176133333333 7.56406975308642  13.6176133333333 6.72764444444444  C 13.6176133333333 6.36192191358025  13.4311829166667 6.08176790123457  13.13928 6.0712774691358  C 12.4406741666667 6.04947407407407  11.74051375 6.06401388888889  11.0338958333333 6.06401388888889  Z M 4.832639 12.2184429012346  L 4.832639 12.2152160493827  L 4.832639 6.05513055555555  C 4.14625458333333 6.05513055555555  3.48009170833333 6.04866419753086  2.81394079166667 6.05513055555555  C 2.740983 6.05267561728395  2.66834808333333 6.06689907407407  2.60047258333333 6.09692777777778  C 2.53260904166667 6.12695648148148  2.47093991666667 6.17215771604938  2.41926795833333 6.22976018518519  C 2.36758404166667 6.28736265432099  2.32697354166667 6.35615154320988  2.29992379166667 6.43190030864197  C 2.27286208333333 6.50766172839506  2.25994708333333 6.58878858024691  2.261944125 6.67033302469136  C 2.25375266666667 8.31571111111111  2.25375266666667 9.96108919753087  2.261944125 11.6064672839506  C 2.2595405 11.682987962963  2.27075741666667 11.7592808641975  2.294949125 11.8309169753086  C 2.31915279166667 11.9025404320988  2.35584095833333 11.9680898148148  2.40288504166667 12.0237561728395  C 2.44994108333333 12.0794098765432  2.50642029166667 12.1240669753086  2.56904608333333 12.1551333333333  C 2.631671875 12.186199691358  2.69920058333333 12.2030552469136  2.76769791666667 12.204712962963  C 3.45481179166667 12.2321601851852  4.13758479166667 12.2184429012346  4.832639 12.2184429012346  Z " fill-rule="nonzero" fill="#ffffff" stroke="none" transform="matrix(1 0 0 1 473 923 )" />
  </g>
</svg>