<?xml version="1.0" encoding="utf-8"?>
<svg version="1.1" xmlns:xlink="http://www.w3.org/1999/xlink" width="23px" height="22px" xmlns="http://www.w3.org/2000/svg">
  <g transform="matrix(1 0 0 1 -621 -923 )">
    <path d="M 14.3943126854482 21.5142586466471  C 12.087819477983 22.0710987345378  6.05799753393308 21.8675538187663  3.36367209004103 21.8675538187663  C 3.48676617246686 21.1069397827148  3.79015984947127 20.3716314534505  3.86398845190183 19.5675282531738  C 3.91984744219539 18.9574202087402  3.76861493252841 19.0969107808431  3.41978645438762 18.6991187601725  C 2.61735333116319 17.7839223409017  2.53203255602904 17.9565278991699  1.52162569444444 16.3526039835612  C -2.0933050376815 10.6141165669759  1.07166600576073 2.5195417195638  8.1974709832702 0.554582057698568  C 18.2471432469223 -2.21656481119792  26.9254147599037 8.11915688883463  21.1070258108428 16.9183984008789  C 19.8226638247711 18.860937886556  17.4383255681818 20.7792938212077  14.3943126854482 21.5142586466471  Z M 7.98346094736427 10.7577522359212  C 7.98346094736427 9.90965601806641  7.34595807982165 9.22232549845378  6.55959078874684 9.22232547607422  C 5.77320028803662 9.22232547607422  5.13574386245265 9.90965601806641  5.13574386245265 10.7577522359212  C 5.13574386245265 11.6055278218587  5.77320028803662 12.2930644795736  6.55959078874684 12.293064457194  C 7.34595807982165 12.293064457194  7.98346094736427 11.6055278218587  7.98346094736427 10.7577522359212  Z M 12.9239398102115 10.7577522359212  C 12.9239166005761 9.90965601806641  12.2864369426689 9.22232549845378  11.5000696515941 9.22232547607422  C 10.7136791508838 9.22232547607422  10.075967328559 9.90965601806641  10.075967328559 10.7577522359212  C 10.075967328559 11.6055278218587  10.713679128196 12.2930644795736  11.5000696515941 12.293064457194  C 12.2864601749921 12.2930644348145  12.9239398102115 11.6055278218587  12.9239398102115 10.7577522359212  Z M 17.8641864859533 10.7577522359212  C 17.8641632763179 9.90965601806641  17.2267068507339 9.22232549845378  16.4403163500237 9.22232547607422  C 15.6539026169902 9.22232547607422  15.0164229817708 9.90965601806641  15.0164229817708 10.7577522359212  C 15.0164229817708 11.6055278218587  15.6539026169902 12.2930644795736  16.4403163500237 12.293064457194  C 17.2267068507339 12.293064457194  17.8641865086411 11.6055278218587  17.8641864859533 10.7577522359212  Z " fill-rule="nonzero" fill="#ffffff" stroke="none" transform="matrix(1 0 0 1 621 923 )" />
  </g>
</svg>