<?xml version="1.0" encoding="utf-8"?>
<svg version="1.1" xmlns:xlink="http://www.w3.org/1999/xlink" width="18px" height="15px" xmlns="http://www.w3.org/2000/svg">
  <g transform="matrix(1 0 0 1 -19 -12 )">
    <path d="M 10.47216796875 0.688792715827337  C 10.0446999289773 0.0459476169064744  9.25168678977273 -0.158498201438849  8.62446732954546 0.248285746402878  L 5.41845703125 2.31803619604317  C 5.0009765625 2.58571267985611  4.51957563920455 2.72692783273381  4.03018465909091 2.72482014388489  L 2.44415838068182 2.72482014388489  C 1.12180397727273 2.72482014388489  0.0651189630681816 3.81027990107914  0.0651189630681816 5.13180080935252  L 0.0651189630681816 9.91625449640288  C 0.0651189630681816 11.3747751798561  1.2216796875 12.5614040017986  2.64390980113636 12.5614040017986  L 4.49360795454545 12.5614040017986  C 4.98899147727273 12.5614040017986  5.45041725852273 12.6962960881295  5.88188032670455 12.9681879496403  L 8.65642755681818 14.6986004946043  C 8.85617897727273 14.8356002697842  9.08589311079545 14.9030463129496  9.34956498579546 14.9030463129496  C 10.07666015625 14.9030463129496  10.6719193892045 14.2918165467626  10.6719193892045 13.5456946942446  L 10.6719193892045 1.40119154676259  C 10.6719193892045 1.16513039568345  10.6060014204545 0.891130845323741  10.47216796875 0.688792715827337  Z M 17.9089133522727 7.4734431205036  C 17.9029208096591 7.09405912769784  17.6072887073864 6.79055193345324  17.2477361505682 6.79476731115108  L 13.2826704545455 6.79476731115108  C 12.9231178977273 6.79055193345324  12.6274857954545 7.09405912769784  12.6214932528409 7.4734431205036  C 12.6214932528409 7.84650404676259  12.9191228693182 8.15211892985612  13.2826704545455 8.15211892985612  L 17.2477361505682 8.15211892985612  C 17.6112837357955 8.15211892985612  17.9089133522727 7.84650404676259  17.9089133522727 7.4734431205036  Z M 17.2137784090909 13.4803563399281  C 17.4135298295455 13.1747414568345  17.3136541193182 12.7679575089928  16.9840642755682 12.5635116906475  L 13.5463423295455 10.5295919514388  C 13.2387251420455 10.3356845773381  12.8392223011364 10.4410690197842  12.6534534801136 10.765653102518  C 12.5635653409091 10.9174066996403  12.5356001420455 11.1028833183453  12.5795454545455 11.2757138039568  C 12.6234907670455 11.4485442895683  12.7333540482955 11.5960825089928  12.8831676136364 11.6803900629496  L 16.3208895596591 13.7164174910072  C 16.6285067471591 13.9103248651079  17.0280095880682 13.8049404226619  17.2137784090909 13.4803563399281  Z M 12.6194957386364 4.18544851618705  C 12.8212446732955 4.48895571043165  13.2167524857955 4.62384779676259  13.5143821022727 4.42150966726619  L 16.9501065340909 2.38548223920863  C 17.2816938920455 2.18314410971223  17.3795720880682 1.7763601618705  17.1818181818182 1.46863758992806  C 16.9840642755682 1.1292996852518  16.5885564630682 1.0281306205036  16.2889293323864 1.23257643884892  L 12.8512073863636 3.26860386690647  C 12.5216175426136 3.4730496852518  12.4217418323864 3.87983363309352  12.6194957386364 4.18544851618705  Z " fill-rule="nonzero" fill="#000000" stroke="none" transform="matrix(1 0 0 1 19 12 )" />
  </g>
</svg>