<?xml version="1.0" encoding="utf-8"?>
<svg version="1.1" xmlns:xlink="http://www.w3.org/1999/xlink" width="16px" height="4px" xmlns="http://www.w3.org/2000/svg">
  <g transform="matrix(1 0 0 1 -395 -17 )">
    <path d="M 2.15204679276316 3.944444453125  C 1.02163940502209 3.944444453125  0.105263157894739 3.07388701835401  0.105263157894739 2  C 0.105263157894739 0.926112981645986  1.02163940502209 0.0555555468749996  2.15204679276316 0.0555555468749996  C 3.28245418050423 0.0555555468749996  4.19883042763158 0.926112981645986  4.19883042763158 2  C 4.19883042763158 3.07388701835401  3.28245418050423 3.944444453125  2.15204679276316 3.944444453125  Z M 8 3.944444453125  C 6.86959261225893 3.944444453125  5.95321636513158 3.07388701835401  5.95321636513158 2  C 5.95321636513158 0.926112981645986  6.86959261225893 0.0555555468749996  8 0.0555555468749996  C 9.13040738774107 0.0555555468749996  10.0467836348684 0.926112981645986  10.0467836348684 2  C 10.0467836348684 3.07388701835401  9.13040738774107 3.944444453125  8 3.944444453125  Z M 13.8479532072368 3.944444453125  C 12.7175458194958 3.944444453125  11.8011695723684 3.07388701835401  11.8011695723684 2  C 11.8011695723684 0.926112981645986  12.7175458194958 0.0555555468749996  13.8479532072368 0.0555555468749996  C 14.9783605949779 0.0555555468749996  15.8947368421053 0.926112981645986  15.8947368421053 2  C 15.8947368421053 3.07388701835401  14.9783605949779 3.944444453125  13.8479532072368 3.944444453125  Z " fill-rule="nonzero" fill="#ffffff" stroke="none" transform="matrix(1 0 0 1 395 17 )" />
  </g>
</svg>