<?xml version="1.0" encoding="utf-8"?>
<svg version="1.1" xmlns:xlink="http://www.w3.org/1999/xlink" width="11px" height="11px" xmlns="http://www.w3.org/2000/svg">
  <g transform="matrix(1 0 0 1 -21 -215 )">
    <path d="M 8.29649333691406 6.77387333691406  C 8.29143333691406 6.78516667382812  8.29143333691406 6.79807333691406  8.28212 6.84537333691406  C 8.44184 6.99790667382813  8.61872 7.16188  8.78988 7.33238  C 9.41152666308594 7.95116666308594  10.0317066630859 8.57200666308594  10.6511533369141 9.19292  C 11.0973133369141 9.63981333691406  11.1173333369141 10.27004  10.70058 10.69112  C 10.2802333369141 11.1165266630859  9.64355333691406 11.0964333369141  9.18954666308594 10.64316  C 8.43905332617187 9.89266666308594  7.68636 9.14356666308594  6.93938666308594 8.38874666308594  C 6.84625332617188 8.29495332617187  6.78685332617188 8.2885  6.66871333691406 8.35296  C 3.99747333691406 9.82461333691406  0.772640000000001 8.36872666308594  0.104500000000001 5.39315333691406  C -0.436186663085937 2.98547333691406  1.17868666308594 0.562026673828124  3.64298 0.0836733369140617  C 6.18097333691406 -0.408320000000001  8.63595333691406 1.40998  8.90809333691406 3.97804  C 9.01046667382813 4.94486666308594  8.82002 5.8465  8.34159333691406 6.69005333691406  C 8.32582667382813 6.71799333691406  8.31006 6.7452  8.29649333691406 6.77387333691406  Z M 1.38130666308594 4.51359333691406  C 1.38996 6.17716  2.80214 7.57438  4.46226 7.56147333691406  C 6.19175333691406 7.54856667382813  7.57247333691406 6.16711333691406  7.56462666308594 4.45624666308594  C 7.55678 2.74677332617188  6.15024666308594 1.36466  4.43432 1.37822666308594  C 2.73775333691406 1.3926  1.37199333691406 2.79554  1.38130666308594 4.51359333691406  Z " fill-rule="nonzero" fill="#797979" stroke="none" transform="matrix(1 0 0 1 21 215 )" />
  </g>
</svg>