<?xml version="1.0" encoding="utf-8"?>
<svg version="1.1" xmlns:xlink="http://www.w3.org/1999/xlink" width="25px" height="25px" xmlns="http://www.w3.org/2000/svg">
  <g transform="matrix(1 0 0 1 -12 -253 )">
    <path d="M 8 2.13871116033939  L 7.86517498512131 2.13871116033939  C 7.86517498512131 0.707333468469773  7.51173096596766 0.176186353150127  6.5584648298772 0.162286894661145  C 4.79997722489974 0.13448800181469  3.04028378436201 0.145298675662893  1.28181562865889 0.156109373642603  C 0.419395088669242 0.156109373642603  0 0.764451514976013  0 2.03680600198844  C 0.00746836575527389 9.11490675585672  0.00746836575527389 16.1960962702343  0 23.2741970241025  C 0 23.9582139547679  0.0846219644545064 24.5635155986062  0.586149568809588 24.8506984623404  L 7.29767688142555 24.8398877884922  C 7.82907792935246 24.4955386152376  7.86766445333925 23.8161548374019  8 23.0997058851919  L 8 2.13871116033939  Z M 1.46226210620082 2.33173491056864  C 1.72981999696591 2.29621410438325  1.85053903663854 2.26532642689601  1.97250279097087 2.26532645102752  L 6.39913981694343 2.26532645102752  C 5.90010166135701 3.55001187270147  5.20692505027637 4.11513542601763  4.34448506101237 4.26646082491144  C 3.19085681833211 4.46409359646329  2.23383705008966 3.94993467601039  1.46226210620082 2.33173491056864  Z M 6.32572038167256 22.9005045898126  L 1.5543524364106 22.9005045898126  C 2.29854338549629 20.4114416644948  5.47699183908448 20.2431521781098  6.32572038167256 22.9005045898126  Z M 6.27095241151553 10.7748048726339  C 5.51306946502826 12.4532114692227  5.07749293018877 14.2273697863879  5.01278657533287 16.2037940761976  C 4.98540258052972 17.0839476491086  4.52866570198266 16.7627642400023  4.23249855102906 16.7627642158708  C 2.71171484251922 16.8245395467138  2.66194521917387 16.707190561685  3.07262722742814 14.5979734843  C 3.37252856125938 13.0600333738743  4.00226300086744 11.8155019112154  4.76636959845028 10.625023841929  C 4.08190606778461 10.8875207048331  3.19459100120974 9.70937359433971  2.73536465444474 11.4356560632825  C 2.63831487597198 11.7892715180648  2.01480404856095 11.6147803791542  1.64768748128007 11.5128752208033  C 1.28055146472485 11.4140588229616  1.42989921386033 10.9230174036429  1.41994139933639 10.5941361885732  C 1.3602139614671 8.46947528451047  1.36392869507039 8.46947528451047  2.85857314288604 8.46947528451047  L 5.34754026972254 8.46947528451047  C 6.41034236557634 8.46947528451047  6.86581508018936 9.45923179760422  6.27097186078987 10.7748048726339  Z M 16.3774717110305 2.13871116033939  L 16.3762269963708 2.13871116033939  C 16.3749822622618 0.707333468469773  16.0215382236589 0.174641960829738  15.0695168216774 0.162286894661146  C 13.3110486659743 0.136032394135079  11.5513357761622 0.153020613133331  9.79288706973343 0.162286894661146  C 8.92920234636046 0.156109373642603  8.51229670645988 0.762907122655625  8.51229672590916 2.03678187048138  C 8.52100980632413 9.11488262434966  8.52100980632413 16.1960962702343  8.51229672590916 23.2741970241025  C 8.51229672590916 23.9582139547679  8.59567395625469 24.5635155986062  9.09846574399309 24.8506984623404  L 15.8099930371598 24.8398877884922  C 16.3413746358123 24.4955386152376  16.3799611597991 23.8161548374019  16.3799611597991 23.0997058851919  C 16.3799611597991 16.1126995916949  16.3799611597991 9.12569332232937  16.3774717110305 2.13871116033939  Z M 10.4823295173857 2.26532645102752  L 14.908966523909 2.26532645102752  C 14.4124372663656 3.55155626502186  13.7179964913509 4.1182241865269  12.8555565020869 4.26800521723183  C 11.7031729935156 4.46563798878367  10.7449084911642 3.95147906833078  9.97333354727535 2.33325517138196  C 10.2396467039315 2.29621410438325  10.3616104777131 2.26532645102752  10.4823100681114 2.26532645102752  Z M 14.8355665573617 22.9005045898126  L 10.0641791433762 22.9005045898126  C 10.8096342758452 20.4114416644948  13.9880438308847 20.2431521781098  14.8355665573617 22.9005045898126  Z M 13.8586311600714 8.46947528451047  C 14.9226779705849 8.46947528451047  15.3769059705382 9.45923179760422  14.7807985872047 10.7748048726339  C 14.0254050894861 12.4532114692227  13.5898091053723 14.225825418199  13.5238580358567 16.2037940761976  C 13.4952293263938 17.0839476491086  13.0410013264405 16.7627642400023  12.7435699921036 16.7627642158708  C 11.2240310177027 16.8245395467138  11.1742613943574 16.707190561685  11.5824734031173 14.5979734843  C 11.8836194710575 13.0600333738743  12.5145791955002 11.8155019112154  13.2774410395248 10.625023841929  C 12.5929775088591 10.8875207048331  11.7056624422843 9.70937359433971  11.2451913614103 11.4356560632825  C 11.1493668483229 11.7892715180648  10.5271396730188 11.6147803791542  10.1600036564636 11.5128752208033  C 9.79164235507373 11.4140588229616  9.94221538904383 10.9230174036429  9.93225757451989 10.5941361885732  C 9.87002123860759 8.46947528451047  9.87624487025389 8.46947528451047  11.3696445839606 8.46947528451047  L 13.8586311600714 8.46947528451047  Z M 24.8872789881709 2.13871116033939  L 24.886034254062 2.13871116033939  C 24.886034254062 0.707333468469774  24.5326096841827 0.174641960829738  23.5793240793686 0.162286894661146  C 21.8221201070488 0.136032394135079  20.0623877679624 0.153020589001825  18.3051837956426 0.162286894661146  C 17.4402738068843 0.156109373642603  17.0221234328747 0.764475646483075  17.0221234328747 2.03678187048138  C 17.02959179863 9.11488262434966  17.02959179863 16.1960962702343  17.0221234328747 23.2741970241025  C 17.0221234328747 23.9582139547679  17.1067259480549 24.5635155986062  17.6082730016843 24.8522428546608  L 24.3198003143003 24.8398877884922  C 24.8512013622272 24.4955386152376  24.8897684369396 23.8161548374019  24.8897684369396 23.0997058851919  L 24.8885237028306 2.13871116033939  L 24.8872789881709 2.13871116033939  Z M 18.4831408049666 2.33325517138196  C 18.7519628596657 2.29621410438325  18.8714177354043 2.26532645102752  18.9933815091859 2.26532645102752  L 23.4200379649835 2.26532645102752  C 22.9234892581658 3.55155626502186  22.2278231983165 4.1182241865269  21.3653832090525 4.26800521723183  C 20.2142249853158 4.46563798878368  19.2547351981298 3.95147906833078  18.4831408049666 2.33325517138196  Z M 18.5752311351763 22.9005045898126  C 19.3194415335364 20.4114416644948  22.4991152719592 20.2431521781098  23.3466185491619 22.9005045898126  L 18.575211685902 22.9005045898126  Z M 22.3696831518716 8.46947528451047  C 23.4337299623851 8.46947528451047  23.8879579623384 9.45923179760422  23.2918505790049 10.7748048726339  C 22.5364570812863 12.4532114692227  22.1008805464468 14.225825418199  22.0349100276569 16.2037940761976  C 22.0075454821281 17.0839476491086  21.5508280528553 16.7627642400023  21.2546219839038 16.7627642158708  C 19.7338577246683 16.8245395467138  19.6840686520486 16.707190561685  20.0935253949175 14.5979734843  C 20.3946714628577 13.0600333738743  21.0243864531914 11.8155019112154  21.788493031325 10.625023841929  C 21.1040295006593 10.8875207048331  20.2167144340845 9.70937359433971  19.7525286390565 11.4356560632825  C 19.6554594113094 11.7892715180648  19.0332127672816 11.6147803791542  18.6660767312772 11.5128752208033  C 18.2977154298873 11.4140588229616  18.4520420960094 10.9230174036429  18.4433290155944 10.5941361885732  C 18.3810926796821 8.46947528451047  18.3860715966687 8.46947528451047  19.8807160250351 8.46947528451047  L 22.3696831518716 8.46947528451047  Z " fill-rule="nonzero" fill="#000000" stroke="none" transform="matrix(1 0 0 1 12 253 )" />
  </g>
</svg>