<?xml version="1.0" encoding="utf-8"?>
<svg version="1.1" xmlns:xlink="http://www.w3.org/1999/xlink" width="13px" height="8px" xmlns="http://www.w3.org/2000/svg">
  <g transform="matrix(1 0 0 1 -394 -262 )">
    <path d="M 6.53390884618955 4.72798663324979  L 10.7352269562796 0.422110832637149  C 10.9915165141936 0.15596398403416  11.3004369634649 0.0228905597326653  11.6619883040936 0.0228905597326653  C 12.0235396447222 0.0228905597326653  12.3324600939936 0.15596398403416  12.5887496519075 0.422110832637149  C 12.8541924083185 0.688257681240138  12.9869137865239 1.00668337510443  12.9869137865239 1.37738791423002  C 12.9869137865239 1.74809245335561  12.8541924083185 2.0665181472199  12.5887496519075 2.33266499582289  L 7.45380529513083 7.63659147869674  C 7.34396691316769 7.76966490299824  7.20666893571377 7.86234103777964  7.04191136276906 7.91461988304094  C 6.87715378982435 7.96689872830224  6.70324301838272 7.98828552863641  6.52017904844415 7.97878028404344  C 6.33711507850559 7.96927503945048  6.15633940819126 7.92887774993038  5.97785203750116 7.85758841548315  C 5.79936466681106 7.78629908103593  5.64604859198751 7.68411770166156  5.51790381303052 7.55104427736007  L 0.465338242726155 2.33266499582289  C 0.199895486315237 2.0665181472199  0.0671741081097786 1.74809245335561  0.0671741081097786 1.37738791423002  C 0.0671741081097786 1.00668337510443  0.199895486315237 0.68825768124014  0.465338242726155 0.42211083263715  C 0.59348302168315 0.289037408335656  0.737645898009769 0.189232340109535  0.897826871706012 0.122695627958787  C 1.05800784540226 0.0561589158080409  1.22276541834696 0.0228905597326669  1.39209959054013 0.0228905597326664  C 1.56143376273331 0.0228905597326658  1.72847963530225 0.0561589158080399  1.89323720824695 0.122695627958787  C 2.05799478119166 0.189232340109535  2.20444595714251 0.289037408335656  2.33259073609951 0.42211083263715  L 6.53390884618955 4.72798663324979  Z " fill-rule="nonzero" fill="#ffffff" stroke="none" transform="matrix(1 0 0 1 394 262 )" />
  </g>
</svg>