<?xml version="1.0" encoding="utf-8"?>
<svg version="1.1" xmlns:xlink="http://www.w3.org/1999/xlink" width="13px" height="8px" xmlns="http://www.w3.org/2000/svg">
  <g transform="matrix(1 0 0 1 -365 -262 )">
    <path d="M 6.46609115381045 4.72798663324979  L 2.26477304372041 0.422110832637149  C 2.00848348580642 0.15596398403416  1.6995630365351 0.0228905597326653  1.33801169590643 0.0228905597326653  C 0.976460355277769 0.0228905597326653  0.667539906006444 0.15596398403416  0.411250348092454 0.422110832637149  C 0.145807591681537 0.688257681240138  0.0130862134760807 1.00668337510443  0.0130862134760807 1.37738791423002  C 0.0130862134760807 1.74809245335561  0.145807591681537 2.0665181472199  0.411250348092457 2.33266499582289  L 5.54619470486917 7.63659147869674  C 5.65603308683231 7.76966490299824  5.79333106428623 7.86234103777964  5.95808863723094 7.91461988304094  C 6.12284621017565 7.96689872830224  6.29675698161728 7.98828552863641  6.47982095155585 7.97878028404344  C 6.66288492149441 7.96927503945048  6.84366059180874 7.92887774993038  7.02214796249884 7.85758841548315  C 7.20063533318894 7.78629908103593  7.35395140801249 7.68411770166156  7.48209618696948 7.55104427736007  L 12.5346617572738 2.33266499582289  C 12.8001045136848 2.0665181472199  12.9328258918902 1.74809245335561  12.9328258918902 1.37738791423002  C 12.9328258918902 1.00668337510443  12.8001045136848 0.68825768124014  12.5346617572738 0.42211083263715  C 12.4065169783168 0.289037408335656  12.2623541019902 0.189232340109535  12.102173128294 0.122695627958787  C 11.9419921545977 0.0561589158080409  11.777234581653 0.0228905597326669  11.6079004094599 0.0228905597326664  C 11.4385662372667 0.0228905597326658  11.2715203646978 0.0561589158080399  11.106762791753 0.122695627958787  C 10.9420052188083 0.189232340109535  10.7955540428575 0.289037408335656  10.6674092639005 0.42211083263715  L 6.46609115381045 4.72798663324979  Z " fill-rule="nonzero" fill="#ffffff" stroke="none" transform="matrix(1 0 0 1 365 262 )" />
  </g>
</svg>