<?xml version="1.0" encoding="utf-8"?>
<svg version="1.1" xmlns:xlink="http://www.w3.org/1999/xlink" width="42px" height="11px" xmlns="http://www.w3.org/2000/svg">
  <g transform="matrix(1 0 0 1 -42 -61 )">
    <path d="M 5.09037162162163 10.0501644736842  C 5.0016891891892 9.79687499999999  5.11697635135136 9.61595394736841  5.43623310810811 9.4983552631579  C 5.98606418918919 9.19983552631579  6.41173986486486 8.73848684210526  6.73099662162163 8.11430921052632  C 7.05025337837839 7.49013157894737  7.05912162162163 6.77549342105263  6.77533783783784 5.98848684210526  C 6.4383445945946 5.05674342105263  5.87077702702703 4.42351973684211  5.07263513513514 4.09786184210527  C 4.27449324324325 3.77220394736842  3.4231418918919 3.78125  2.50971283783785 4.13404605263158  C 1.64949324324325 4.45970394736842  1.01984797297298 5.05674342105263  0.638513513513522 5.93421052631579  C 0.257179054054062 6.80263157894737  0.221706081081089 7.67105263157895  0.532094594594603 8.53042763157895  C 0.851351351351359 9.39884868421053  1.37457770270271 10.0592105263158  2.10177364864866 10.5205592105263  C 3.48521959459461 10.4753289473684  4.63809121621623 10.4481907894737  5.38302364864866 10.4481907894737  C 5.40076013513514 10.3939144736842  5.41849662162163 10.3486842105263  5.44510135135136 10.3034539473684  C 5.25000000000001 10.2401315789474  5.13471283783785 10.1587171052632  5.09037162162163 10.0501644736842  Z M 36.8918918918919 0.352796052631575  L 36.2977195945946 0.0361842105263158  L 35.4197635135135 1.80016447368421  C 33.6815878378378 0.895559210526316  31.6596283783784 0.587993421052632  29.3538851351351 0.850328947368421  C 27.0481418918919 1.12171052631579  25.3631756756757 2.31578947368421  24.3078547297297 4.43256578947368  C 23.7136824324324 5.62664473684211  23.4831081081081 6.875  23.6161317567568 8.19572368421053  C 26.4451013513514 8.18667763157895  29.203125 8.17763157894737  31.4379222972973 8.17763157894737  C 31.1097972972973 7.6077302631579  30.8703547297297 7.046875  30.7373310810811 6.49506578947369  C 30.551097972973 5.71710526315789  30.6575168918919 4.91200657894737  31.0743243243243 4.08881578947368  C 31.464527027027 3.30180921052632  32.0143581081081 2.77713815789474  32.7238175675676 2.50575657894737  C 33.433277027027 2.24342105263158  34.2225506756757 2.22532894736842  35.0916385135135 2.46052631578947  L 32.2449324324324 8.16858552631579  L 32.9987331081081 8.16858552631579  L 35.730152027027 2.68667763157895  L 36.5903716216216 3.10279605263158  C 37.3086993243243 3.47368421052632  37.9649493243243 3.96217105263158  38.5591216216216 4.55921052631579  C 39.1532939189189 5.15625000000001  39.3927364864865 5.57236842105264  39.2774493243243 5.80756578947369  C 39.1798986486487 5.99753289473685  38.9227195945946 6.01562500000001  38.4881756756757 5.85279605263159  C 38.0536317567568 5.68996710526316  37.5126689189189 5.74424342105264  36.8386824324324 6.01562500000001  C 36.164695945946 6.28700657894738  35.6503378378379 6.7935855263158  35.2690033783784 7.54440789473685  C 35.1625844594595 7.75246710526317  35.0827702702703 7.96957236842106  35.0206925675676 8.16858552631579  L 36.3686655405406 8.16858552631579  C 38.0713682432433 8.16858552631579  39.5434966216216 10.3577302631579  39.5434966216216 10.3577302631579  L 40.9446790540541 10.4391447368421  C 40.9535472972973 10.4120065789474  40.9712837837838 10.3939144736842  40.9890202702703 10.3667763157895  C 41.7162162162162 8.90131578947368  41.6630067567568 7.46299342105263  40.8116554054054 6.06085526315789  C 39.9603040540541 4.64967105263158  38.5147804054054 3.41940789473684  36.4662162162162 2.35197368421052  L 36.0139358108108 2.11677631578947  L 36.8918918918919 0.352796052631575  Z " fill-rule="nonzero" fill="#bebebe" stroke="none" transform="matrix(1 0 0 1 42 61 )" />
  </g>
</svg>