<?xml version="1.0" encoding="utf-8"?>
<svg version="1.1" xmlns:xlink="http://www.w3.org/1999/xlink" width="88px" height="83px" xmlns="http://www.w3.org/2000/svg">
  <g transform="matrix(1 0 0 1 -22 -37 )">
    <path d="M 87.4358974358974 55.6692356418919  C 87.5328525641026 49.9822635135135  85.0296474358974 48.4487964527027  84.6241987179487 48.1070523648649  C 84.5713141025641 48.1070523648649  84.4831730769231 48.0982896959459  84.3509615384615 48.0982896959459  C 83.9455128205128 38.8536739864865  79.0713141025641 30.5291385135135  75.6602564102564 25.7797719594595  C 77.255608974359 24.8158783783784  78.4190705128205 23.1684966216216  78.6658653846154 21.179370777027  C 79.1065705128205 17.726879222973  76.6474358974359 14.5810810810811  73.1746794871795 14.1429476351351  C 69.7019230769231 13.7048141891892  66.5376602564103 16.1495988175676  66.0969551282051 19.6020903716216  C 66.0440705128205 20.0139358108108  66.0352564102564 20.4170185810811  66.0616987179487 20.8113386824324  C 64.3165064102564 19.0062288851351  62.2451923076923 17.4552364864865  59.8830128205128 16.2635135135135  C 56.119391025641 14.3620143581081  52.0913461538462 13.5821368243243  48.1602564102564 13.7924408783784  C 43.2596153846154 2.7777660472973  30.5144230769231 -2.69890202702703  18.9855769230769 1.53346706081081  C 6.98076923076923 5.93232685810811  0.837339743589744 19.1727195945946  5.26201923076923 31.0987119932432  C 5.76442307692308 32.4481630067568  6.38141025641026 33.71875  7.08653846153846 34.910472972973  C 8.37339743589744 34.8491342905405  10.1274038461538 34.7702702702703  12.0400641025641 34.6826435810811  C 10.8766025641026 33.1929898648649  9.91586538461539 31.5105574324324  9.22836538461539 29.6441089527027  C 5.62339743589744 19.8912584459459  10.6386217948718 9.078125  20.4487179487179 5.48543074324324  C 29.5008012820513 2.16437922297297  39.4695512820513 6.16015625  43.7884615384615 14.4584037162162  C 40.1129807692308 15.3784839527027  36.6754807692308 17.18359375  33.8197115384615 19.7685810810811  C 32.8942307692308 19.3742609797297  31.8541666666667 19.12890625  30.681891025641 19.023754222973  C 29.1570512820513 18.9974662162162  27.6410256410256 18.9624155405405  26.1073717948718 18.9186021959459  L 23.5512820512821 12.0136190878378  L 24.4326923076923 11.6543496621622  C 25.181891025641 11.3827069256757  25.9751602564103 11.2249788851351  26.8036858974359 11.1899282094595  C 27.6322115384615 11.1548775337838  28.0905448717949 11.2512668918919  28.1786858974359 11.4878589527027  C 28.2491987179487 11.6806376689189  28.0817307692308 11.8821790540541  27.6762820512821 12.0924831081081  C 27.2708333333333 12.3027871621622  26.9358974358974 12.7321579391892  26.6802884615385 13.398120777027  C 26.4246794871795 14.0640836148649  26.4334935897436 14.7826224662162  26.7155448717949 15.5449746621622  C 27.0328525641026 16.4124788851351  27.5793269230769 16.9732896959459  28.3549679487179 17.2361697635135  C 29.130608974359 17.4990498310811  29.9238782051282 17.4815244932432  30.7435897435897 17.18359375  C 31.5633012820513 16.8856630067568  32.1450320512821 16.3511402027027  32.5064102564103 15.5800253378378  C 32.8677884615385 14.808910472973  32.8942307692308 14.0377956081081  32.6033653846154 13.2491554054054  C 32.0480769230769 11.7507390202703  30.9815705128205 10.8481841216216  29.3950320512821 10.5414907094595  C 27.8084935897436 10.2260346283784  25.948717948718 10.4626266891892  23.806891025641 11.2512668918919  L 23.3309294871795 11.4265202702703  L 22.6610576923077 9.63017314189189  L 22.0352564102564 9.85800253378378  L 22.7051282051282 11.6543496621622  C 20.8894230769231 12.3203125  19.2940705128205 13.5821368243243  17.9278846153846 15.4310599662162  C 16.5616987179487 17.2799831081081  16.2796474358974 19.2953969594595  17.0817307692308 21.4510135135135  C 17.5488782051282 22.7128378378378  18.3245192307692 23.7293074324324  19.417467948718 24.5179476351351  C 20.5016025641026 25.2978251689189  21.5328525641026 25.7534839527027  22.4847756410256 25.8761613175676  C 23.4366987179487 25.9988386824324  24.3709935897436 26.0689400337838  25.2876602564103 26.1039907094595  C 26.1955128205128 26.1390413851351  27.0769230769231 26.1653293918919  27.9142628205128 26.1916173986486  L 28.3285256410256 27.3132390202703  C 27.5616987179487 29.0131967905405  27.0152243589744 30.7657305743243  26.6802884615385 32.527027027027  C 27.4911858974359 32.1327069256757  28.275641025641 32.0801309121622  28.275641025641 32.0801309121622  C 28.275641025641 32.0801309121622  29.3685897435898 32.0801309121622  31.1137820512821 32.0713682432432  C 31.448717948718 30.7657305743243  31.9334935897436 29.4863809121622  32.568108974359 28.2333192567568  C 37.3012820512821 18.9887035472973  48.6714743589744 15.2996199324324  57.9791666666667 20.0051731418919  C 63.849358974359 22.9757179054054  67.4807692307692 28.5750633445946  68.1770833333333 34.6300675675676  L 72.4607371794872 34.8666596283784  C 72.2051282051282 31.8347761824324  71.3413461538462 28.8817567567568  69.9399038461539 26.1828547297297  C 70.4599358974359 26.4019214527027  71.0152243589744 26.5596494932432  71.6057692307692 26.6297508445946  C 72.3990384615385 26.7261402027027  73.1834935897436 26.6735641891892  73.9150641025641 26.4895481418919  C 78.6217948717949 33.2105152027027  80.4198717948718 40.0278716216216  80.9575320512821 45.5133023648649  C 78.8950320512821 39.3531461148649  75.2724358974359 37.2501055743243  74.4879807692308 36.63671875  C 73.0072115384616 36.6104307432432  56.9479166666667 35.6377744932432  56.9479166666667 35.6377744932432  C 56.9479166666667 35.6377744932432  62.6858974358974 37.5918496621622  62.0512820512821 52.2780827702703  C 61.7163461538462 60.0593327702703  60.2003205128205 66.9643158783784  58.6842948717949 72.0554265202703  C 59.9094551282051 66.2194890202703  60.7379807692308 57.9037162162162  59.7684294871795 46.7751266891892  C 58.9399038461538 37.2325802364865  55.6169871794872 33.6661739864865  54.7532051282051 33.2017525337838  C 46.1241987179487 33.2017525337838  28.3197115384615 33.2718538851351  28.3197115384615 33.2718538851351  C 28.3197115384615 33.2718538851351  24.5737179487179 35.0682010135135  23.4983974358974 47.2395481418919  C 22.6258012820513 57.1939400337838  22.599358974359 65.6849662162162  24.926282051282 75.8321368243243  C 23.1987179487179 70.6271114864865  21.0833333333333 62.1974239864865  20.8189102564103 52.4270481418919  C 20.4134615384615 37.6619510135135  26.1690705128205 35.7955025337838  26.1690705128205 35.7955025337838  C 26.1690705128205 35.7955025337838  10.1802884615385 36.531566722973  8.70833333333333 36.531566722973  C 7.5713141025641 37.3990709459459  0.546474358974359 41.2546452702703  0.546474358974359 56.0197423986486  C 0.546474358974359 70.1188766891892  8.2411858974359 81.1335515202703  8.2411858974359 81.1335515202703  C 8.2411858974359 81.1335515202703  22.3613782051282 81.0459248310811  26.2836538461538 81.0371621621622  C 26.4599358974359 81.6505489864865  26.6450320512821 82.2639358108108  26.8389423076923 82  L 54.8766025641026 82  C 54.8766025641026 82.894847972973  55.3525641025641 82.1587837837838  56.0224358974359 80.6428420608108  C 59.8477564102564 80.7129434121622  74.2411858974359 81.0196368243243  74.2411858974359 81.0196368243243  C 74.2411858974359 81.0196368243243  78.9302884615385 74.5878378378378  81.1866987179487 65.2205447635135  C 82.8701923076923 65.2555954391892  84.5272435897436 65.2994087837838  84.5272435897436 65.2994087837838  C 84.5272435897436 65.2994087837838  87.3565705128205 61.1020903716216  87.4358974358974 55.6692356418919  Z M 28.8485576923077 26.2266680743243  C 28.8309294871795 26.26171875  28.8133012820513 26.3055320945946  28.7956730769231 26.3405827702703  L 28.7163461538462 26.4983108108108  L 28.6105769230769 26.2179054054054  C 28.6899038461538 26.2179054054054  28.7692307692308 26.2266680743243  28.8485576923077 26.2266680743243  Z M 75.5016025641026 16.9119510135135  C 75.369391025641 17.9284206081081  74.4615384615385 18.6469594594595  73.4567307692308 18.5242820945946  C 72.4519230769231 18.3928420608108  71.7467948717949 17.4639991554054  71.8701923076923 16.4475295608108  C 71.9935897435897 15.4310599662162  72.9102564102564 14.7125211148649  73.9150641025641 14.8351984797297  C 74.9198717948718 14.9666385135135  75.625 15.8954814189189  75.5016025641026 16.9119510135135  Z M 75.8894230769231 25.2540118243243  C 75.6955128205128 24.421558277027  74.4967948717949 24.2901182432433  74.0384615384615 24.640625  C 74.6642628205128 23.9133234797297  75.1049679487179 24.2287795608108  75.5721153846154 24.2550675675676  C 76.1274038461538 24.2901182432432  76.2684294871795 24.2200168918919  76.7267628205128 23.8695101351351  C 77.1762820512821 23.5190033783784  77.9519230769231 22.485008445946  78.2604166666667 21.1267947635135  C 78.2604166666667 21.1267947635135  78.4014423076923 23.2035472972973  75.8894230769231 25.2540118243243  Z M 2.97035256410256 46.7838893581081  C 2.72355769230769 47.4323268581081  2.51201923076923 47.3008868243243  2.57371794871795 46.8452280405405  C 4.30128205128205 41.0005278716216  7.13060897435897 38.5294552364865  7.47435897435897 38.1351351351351  C 7.81810897435897 37.7320523648649  8.51442307692308 37.3289695945946  9.31650641025641 37.3289695945946  C 10.1185897435897 37.3289695945946  17.8485576923077 36.8119721283784  17.8485576923077 36.8119721283784  C 17.8485576923077 36.8119721283784  12.3133012820513 37.7320523648649  10.9823717948718 37.8985430743243  C 9.66025641025641 38.0737964527027  8.49679487179487 38.4067778716216  7.13060897435897 39.5371621621622  C 5.53525641025641 40.8515625  4.26602564102564 43.4803631756757  2.97035256410256 46.7838893581081  Z M 11.0440705128205 80.4500633445946  C 11.0440705128205 80.4500633445946  9.90705128205128 80.4588260135135  9.31650641025641 80.4588260135135  C 8.72596153846154 80.4588260135135  8.55849358974359 80.3186233108108  8.18830128205128 79.5825591216216  C 7.33333333333333 77.8650760135135  6.83974358974359 76.3754222972973  6.83974358974359 76.3754222972973  C 6.83974358974359 76.3754222972973  7.8974358974359 78.4083614864865  8.2676282051282 78.9866976351351  C 8.75240384615384 79.7402871621622  9.03445512820513 79.976879222973  9.36939102564103 80.08203125  C 9.9599358974359 80.2660472972973  11.0440705128205 80.4500633445946  11.0440705128205 80.4500633445946  Z M 18.9591346153846 49.4565033783784  C 19.2940705128205 49.7281461148649  19.1883012820513 50.5518369932433  18.7475961538462 51.1038851351351  C 18.306891025641 51.655933277027  17.4783653846154 53.3471283783784  16.1033653846154 57.0800253378379  C 14.7283653846154 60.8129222972973  15.6626602564103 64.4757179054054  15.4951923076923 67.218433277027  C 15.3277243589744 69.9611486486486  11.5288461538462 70.2327913851351  10.3741987179487 70.0137246621622  C 9.21955128205128 69.7946579391892  7.72996794871795 68.8044763513514  7.72996794871795 65.6849662162162  C 7.72996794871795 62.5654560810811  12.630608974359 57.1413640202703  13.0713141025641 56.4228251689189  C 13.5120192307692 55.7130489864865  13.6794871794872 54.8367820945946  12.7363782051282 55.2135768581081  C 11.8020833333333 55.5991342905405  9.07852564102564 55.4326435810811  8.29407051282051 55.1785261824324  C 7.50080128205128 54.9244087837838  7.04246794871795 54.9945101351351  6.60176282051282 55.6341849662162  C 6.16105769230769 56.2738597972973  5.90544871794872 57.7722761824324  5.79086538461538 58.5083403716216  C 5.69391025641025 59.1042018581081  5.64102564102564 59.5335726351352  5.25320512820513 59.5335726351352  C 4.86538461538461 59.5335726351352  4.44230769230769 59.5423353040541  4.23958333333333 59.5423353040541  C 3.85176282051282 59.5423353040541  3.61378205128205 59.2444045608108  3.52564102564102 58.6485430743243  C 3.4375 58.0526815878379  3.04086538461538 52.9440456081081  2.97035256410256 51.6033572635135  C 2.90865384615384 50.4642103040541  3.49919871794872 50.2276182432433  3.84294871794872 50.2276182432433  L 5.34134615384615 50.2276182432433  C 6.07291666666666 50.2276182432433  6.04647435897436 50.9286317567568  6.04647435897436 51.016258445946  L 6.04647435897436 51.6997466216216  C 6.5224358974359 50.7621410472973  7.33333333333333 50.3415329391892  8.04727564102564 49.9033994932432  C 8.76121794871795 49.4652660472973  11.2996794871795 49.6843327702703  11.7932692307692 49.9559755067568  C 12.286858974359 50.2276182432433  13.9967948717949 50.8322423986487  14.8782051282051 50.8322423986487  C 15.7596153846154 50.8322423986487  16.4206730769231 49.9033994932432  17.0288461538461 49.1848606418919  C 17.6370192307692 48.4750844594595  18.6241987179487 49.1848606418919  18.9591346153846 49.4565033783784  Z M 31.6338141025641 34.805320945946  C 30.3116987179487 34.9805743243243  28.0376602564102 35.9707559121622  27.4823717948718 36.8733108108108  C 26.1602564102564 39.0552153716216  25.693108974359 40.1943623310811  25.4022435897436 43.235008445946  C 25.2876602564103 44.4442567567568  24.7676282051282 44.7246621621622  24.8293269230769 43.6906672297297  C 25.6402243589744 37.7320523648649  27.4206730769231 35.4362331081081  27.7732371794872 35.0331503378378  C 28.1169871794872 34.6300675675676  28.8133012820513 34.2269847972973  29.6153846153846 34.2269847972973  C 30.4174679487179 34.2269847972973  38.3237179487179 33.8852407094595  38.3237179487179 33.8852407094595  C 38.3237179487179 33.8852407094595  32.9647435897436 34.6300675675676  31.6338141025641 34.805320945946  Z M 48.9535256410256 53.8203125  C 45.3133012820513 62.1886613175676  47.9046474358974 66.1055743243243  46.0536858974359 69.6281672297297  C 44.4407051282051 72.6951013513514  41.1266025641026 73.7203336148649  38.9142628205128 73.2208614864865  C 37.2483974358974 72.835304054054  34.4807692307692 71.538429054054  34.5777243589744 67.2710092905405  C 34.7011217948718 61.820629222973  41.161858974359 57.4305320945946  44.1410256410256 53.7502111486486  C 44.6610576923077 53.1105363175676  44.3701923076923 52.6373521959459  43.5152243589744 52.742504222973  C 41.7788461538461 52.9440456081081  39.3108974358974 52.1028293918919  38.2267628205128 51.6296452702703  C 37.1778846153846 51.1739864864865  35.5649038461538 51.1389358108108  34.7804487179487 52.8388935810811  C 34.3044871794872 53.8553631756757  34.1810897435897 54.8280194256757  34.0136217948718 55.8970650337838  C 33.8814102564102 56.7645692567567  33.7668269230769 57.3779560810811  33.2027243589744 57.3779560810811  C 32.6474358974359 57.3779560810811  31.193108974359 57.3954814189189  30.9022435897436 57.3954814189189  C 30.338141025641 57.3954814189189  30.25 57.1063133445946  31 56.2300464527027  L 31 44.3215793918919  C 30.25 43.6994298986486  30.7083333333333 43.5417018581081  31.2019230769231 43.5417018581081  C 31.6955128205128 43.5417018581081  32.5064102564102 43.5329391891892  33.5641025641026 43.5329391891892  C 34.630608974359 43.5329391891892  34.5865384615385 44.2865287162162  34.5865384615385 44.4092060810811  L 34.5865384615385 45.6622677364865  C 35.8293269230769 44.7684755067568  36.5697115384615 44.5318834459459  37.6097756410256 43.9009712837838  C 38.6498397435897 43.2700591216216  41.681891025641 43.5679898648649  42.4046474358974 43.9623099662162  C 43.1274038461538 44.3566300675676  46.5472756410256 46.0478251689189  47.8165064102564 46.0478251689189  C 49.0857371794872 46.0478251689189  49.6850961538462 45.4782516891892  50.5576923076923 44.4442567567568  C 50.9983974358974 43.9272592905405  51.6594551282051 43.76953125  52.1089743589744 44.1025126689189  C 52.6113782051282 44.4793074324324  53.3517628205128 44.9963048986487  53.5985576923077 45.1978462837838  C 54.0745192307692 45.5921663851351  54.2155448717949 46.2318412162162  53.5985576923077 46.8627533783784  C 52.4174679487179 48.0720016891892  51.0689102564102 48.9482685810811  48.9535256410256 53.8203125  Z M 54.5945512820513 77.4006545608108  C 54.5945512820513 77.4006545608108  54.1009615384615 78.8727829391892  53.2459935897436 80.5990287162162  C 52.8758012820513 81.3350929054054  52.7083333333333 81.4752956081081  52.1177884615385 81.4752956081081  L 50.3902243589744 81.4752956081081  C 50.3902243589744 81.4752956081081  51.474358974359 81.2825168918919  52.0649038461538 81.1072635135135  C 52.4086538461538 81.0021114864865  52.681891025641 80.7655194256757  53.1666666666667 80.0119298986486  C 53.536858974359 79.43359375  54.5945512820513 77.4006545608108  54.5945512820513 77.4006545608108  Z M 64.28125 36.8119721283784  C 64.28125 36.8119721283784  72.0112179487179 37.3289695945946  72.8221153846154 37.3289695945946  C 73.6330128205128 37.3289695945946  74.3205128205128 37.7320523648649  74.6642628205128 38.1351351351351  C 75.0080128205128 38.5382179054054  77.8373397435897 41.0005278716216  79.5649038461538 46.8452280405405  C 79.6266025641026 47.3008868243243  79.4150641025641 47.4323268581081  79.1594551282051 46.7838893581081  C 77.8637820512821 43.4803631756757  76.5945512820513 40.8515625  74.9991987179487 39.5371621621622  C 73.6241987179487 38.4067778716216  72.4695512820513 38.0650337837838  71.1474358974359 37.8985430743243  C 69.8253205128205 37.7232896959459  64.28125 36.8119721283784  64.28125 36.8119721283784  Z M 75.6866987179487 76.1388302364865  C 75.6866987179487 76.1388302364865  75.2019230769231 77.6197212837838  74.338141025641 79.3372043918919  C 73.9679487179487 80.0732685810811  73.8004807692308 80.2134712837838  73.2099358974359 80.2134712837838  L 71.4823717948718 80.2134712837838  C 71.4823717948718 80.2134712837838  72.5665064102564 80.0206925675676  73.1570512820513 79.8454391891892  C 73.5008012820513 79.7402871621621  73.7740384615385 79.5036951013514  74.2588141025641 78.7501055743243  C 74.6290064102564 78.1717694256757  75.6866987179487 76.1388302364865  75.6866987179487 76.1388302364865  Z M 81.0809294871795 51.6384079391892  C 81.3189102564102 51.9889146959459  81.0280448717949 52.7600295608108  80.4815705128205 53.1981630067568  C 79.9262820512821 53.6362964527027  78.7451923076923 55.1171875  76.5857371794872 58.4470016891892  C 74.4174679487179 61.7768158783784  74.5232371794872 65.5622888513514  73.7564102564103 68.1998521959459  C 72.9895833333333 70.8374155405405  69.2171474358974 70.2766047297297  68.1418269230769 69.8034206081081  C 67.0576923076923 69.3389991554054  65.8237179487179 68.0508868243243  66.5200320512821 65.0014780405405  C 67.2075320512821 61.9520692567568  73.1923076923077 57.7372255067568  73.7828525641026 57.1326013513514  C 74.3733974358974 56.5367398648649  74.7259615384615 55.7130489864865  73.7299679487179 55.8883023648649  C 72.7339743589744 56.0547930743243  70.1161858974359 55.3012035472973  69.4022435897436 54.8805954391892  C 68.6883012820513 54.4599873310811  68.2211538461538 54.4336993243243  67.6482371794872 54.9594594594595  C 67.0753205128205 55.4852195945946  66.5024038461538 56.8872466216216  66.2291666666667 57.5882601351351  C 66.0088141025641 58.1490709459459  65.8589743589744 58.5521537162162  65.4799679487179 58.4732896959459  C 65.1009615384615 58.3856630067568  64.6866987179487 58.3067989864865  64.4927884615385 58.2629856418919  C 64.113782051282 58.1753589527027  63.9463141025641 57.8336148648649  63.9903846153846 57.2377533783784  C 64.0344551282051 56.633129222973  64.7836538461538 51.5683065878378  65.0128205128205 50.2363809121621  C 65.2067307692308 49.1147592905405  65.832532051282 49.0096072635135  66.1674679487179 49.0884712837838  C 66.4935897435897 49.1585726351351  66.9078525641026 49.2549619932432  67.630608974359 49.4126900337838  C 68.3445512820513 49.5704180743243  68.1594551282051 50.2451435810811  68.1418269230769 50.3327702702703  C 68.1241987179487 50.4203969594595  67.9919871794872 50.9987331081081  67.9919871794872 50.9987331081081  C 68.6706730769231 50.1838048986486  69.5432692307692 49.9472128378378  70.3365384615384 49.6843327702703  C 71.1298076923077 49.4126900337838  73.5536858974359 50.1838048986486  73.9767628205128 50.5518369932432  C 74.3998397435897 50.9286317567568  75.9334935897436 51.8925253378378  76.7972756410256 52.0765413851351  C 77.6610576923077 52.2693201013514  78.5072115384615 51.5069679054054  79.2564102564102 50.9461570945946  C 80.005608974359 50.3853462837838  80.8165064102564 51.2966638513514  81.0809294871795 51.6384079391892  Z M 84.7652243589744 64.0025337837838  C 84.4038461538462 64.738597972973  84.2363782051282 64.8700380067568  83.6458333333333 64.8700380067568  L 81.9182692307692 64.8700380067568  C 81.9182692307692 64.8700380067568  83.0024038461538 64.6772592905405  83.5929487179487 64.5020059121622  C 83.9366987179487 64.3968538851351  84.2099358974359 64.1602618243243  84.6947115384615 63.4066722972973  C 85.0649038461538 62.8283361486486  86.1225961538462 60.7953969594595  86.1225961538462 60.7953969594595  C 86.1225961538462 60.7953969594595  85.6290064102564 62.2850506756757  84.7652243589744 64.0025337837838  Z " fill-rule="nonzero" fill="#333333" stroke="none" transform="matrix(1 0 0 1 22 37 )" />
  </g>
</svg>