<?xml version="1.0" encoding="utf-8"?>
<svg version="1.1" xmlns:xlink="http://www.w3.org/1999/xlink" width="20px" height="23px" xmlns="http://www.w3.org/2000/svg">
  <g transform="matrix(1 0 0 1 -16 -498 )">
    <path d="M 0.369916666666667 19.498825  C 0.3619 16.831975  0.3595 14.16469375  0.3627 11.4969525  C 0.3627 8.802746875  0.3627 6.10877125  0.3627 3.415025625  C 0.3627 2.017215  1.20358333333333 0.90272125  2.59625 0.493249375  C 2.97746666666667 0.387046875  3.37443333333333 0.33381625  3.77348333333333 0.33536875  C 7.9197 0.324803125  12.0653333333333 0.322876875  16.2105 0.329604375  C 18.2375 0.329604375  19.6356666666667 1.595495625  19.6365 3.42944375  C 19.6396666666667 8.80874125  19.6396666666667 14.18798125  19.6365 19.56739375  C 19.6365 21.11515  18.6163333333333 22.29663125  17.0153333333333 22.60080625  C 16.7515 22.64651875  16.4831666666667 22.66808125  16.2145 22.6650625  C 12.0688333333333 22.66836875  7.92316666666667 22.66836875  3.77748333333333 22.6650625  C 2.09571666666667 22.6650625  0.79675 21.75455  0.45 20.33070625  C 0.3908 20.05671875  0.363966666666666 19.7779875  0.369916666666667 19.498825  Z M 14.2556666666667 11.530115625  C 14.6841666666667 11.135795  14.8803333333333 10.640533125  14.878 9.951366875  C 14.8346666666667 9.19586  14.3861666666667 8.529046875  13.4788333333333 8.171483125  C 12.5715 7.813919375  11.717 7.959538125  10.97145 8.542731875  C 10.7448 8.71863875  10.5462 8.9233675  10.3307666666667 9.109365625  C 10.0993333333333 9.30761125  9.90873333333333 9.30904875  9.67968333333333 9.112959375  C 9.47706666666667 8.939223125  9.28646666666667 8.752520625  9.08306666666667 8.580940625  C 8.64005 8.201685  8.04966666666667 7.993664375  7.43836666666667 8.00147  C 6.82705 8.00926125  6.24345 8.232260625  5.81256666666667 8.62267125  C 5.38166666666667 9.013081875  5.13776666666667 9.5398825  5.13311666666667 10.090200625  C 5.12845 10.64051875  5.36338333333333 11.170596875  5.7876 11.566886875  C 6.94641666666667 12.63525125  8.12685 13.68485625  9.3049 14.73883125  C 9.71813333333333 15.1078375  10.2803166666667 15.1130125  10.69675 14.73883125  C 11.89 13.6758  13.0763333333333 12.606170625  14.2556666666667 11.530115625  Z M 18.1693333333333 19.86006875  C 18.103 19.73816875  18.0245 19.45986875  17.8346666666667 19.27471875  C 17.2316666666667 18.68635  16.5916666666667 18.12845625  15.9566666666667 17.56754375  C 15.7116666666667 17.35134375  15.4305 17.35565625  15.1855 17.57185625  C 14.5576666666667 18.12701875  13.929 18.6820375  13.3211666666667 19.25445  C 13.1001666666667 19.46188125  12.9775 19.7386  12.9791666666667 20.02595625  C 12.9808333333333 20.31345625  13.1066666666667 20.58888125  13.33 20.7943  C 13.5551666666667 21.00316875  13.8616666666667 21.12506875  14.1848333333333 21.1344125  C 14.508 21.1436125  14.8226666666667 21.0395375  15.0621666666667 20.8440375  C 15.5738333333333 20.441825  15.5715 20.44398125  16.0896666666667 20.8440375  C 16.49 21.1562625  16.9496666666667 21.22325  17.4301666666667 21.0314875  C 17.9106666666667 20.839725  18.147 20.48078125  18.1693333333333 19.85935  Z M 4.80176666666667 2.350269375  C 4.51346666666667 2.078495625  4.19311666666667 1.89177875  3.72143333333333 1.88890375  C 3.25213333333333 1.91702125  2.85971666666667 2.12103125  2.6451 2.544188125  C 2.43046666666667 2.967359375  2.48493333333333 3.404215625  2.8445 3.74879875  C 3.46115 4.3370525  4.10423333333333 4.902234375  4.7457 5.468135  C 4.96993333333333 5.666380625  5.25103333333333 5.676471875  5.47126666666667 5.482553125  C 6.12795 4.905828125  6.79906666666667 4.33777125  7.4109 3.722851875  C 8.05638333333333 3.074050625  7.63513333333333 2.07416875  6.68293333333333 1.91052375  C 6.1672 1.82185875  5.77958333333333 2.02586875  5.43683333333333 2.350269375  C 5.13251666666667 2.638631875  5.10528333333333 2.638631875  4.80176666666667 2.350269375  Z " fill-rule="nonzero" fill="#000000" stroke="none" transform="matrix(1 0 0 1 16 498 )" />
  </g>
</svg>