<?xml version="1.0" encoding="utf-8"?>
<svg version="1.1" xmlns:xlink="http://www.w3.org/1999/xlink" width="8px" height="8px" xmlns="http://www.w3.org/2000/svg">
  <g transform="matrix(1 0 0 1 -22 -755 )">
    <path d="M 4.70713333333333 5.66506666666667  L 4.70713333333333 7.50786666666667  L 3.29834666666667 7.50786666666667  L 3.29834666666667 5.84933333333333  C 2.93264 5.95853333333333  2.59394666666667 6.08413333333333  2.24761333333333 6.158  C 1.46514666666667 6.32053333333333  0.768373333333333 5.82586666666667  0.61048 5.03766666666667  C 0.558266666666667 4.79961333333333  0.562493333333334 4.55265333333333  0.62284 4.31653333333333  C 0.683173333333334 4.08041333333333  0.797946666666667 3.86169333333333  0.957973333333333 3.67785333333333  C 1.3888 3.16528  1.85086666666667 2.67978666666667  2.34153333333333 2.22414666666667  C 2.85046666666667 1.75464  3.41104 1.33796  3.94638666666667 0.895439999999999  C 4.03326666666667 0.823840000000001  4.10077333333333 0.785106666666666  4.20525333333333 0.876080000000001  C 5.08574666666667 1.64489333333333  5.9892 2.39024  6.8468 3.18664  C 7.12733333333333 3.4478  7.33866666666667 3.81694666666667  7.4924 4.17436  C 7.84106666666667 4.98132  7.35213333333333 6.12346666666667  6.31253333333333 6.18146666666667  C 6.06666666666667 6.19506666666667  5.80653333333333 6.1164  5.56773333333333 6.03653333333333  C 5.28298666666667 5.94146666666667  5.01354666666667 5.80173333333333  4.70713333333333 5.66506666666667  Z " fill-rule="nonzero" fill="#000000" stroke="none" transform="matrix(1 0 0 1 22 755 )" />
  </g>
</svg>