<?xml version="1.0" encoding="utf-8"?>
<svg version="1.1" xmlns:xlink="http://www.w3.org/1999/xlink" width="13px" height="13px" xmlns="http://www.w3.org/2000/svg">
  <g transform="matrix(1 0 0 1 -19 -752 )">
    <path d="M 6.501898 0.335153  C 9.88832 0.337441  12.66473 3.109808  12.66928 6.499584  C 12.67383 9.88533  9.90327 12.66174  6.509906 12.67266  C 3.116607 12.68345  0.323089 9.88819  0.328822 6.496152  C 0.334542 3.104088  3.115463 0.332865  6.501898 0.335153  Z M 8.55764 11.29076  L 8.55764 10.0295  C 8.61497 10.02326  8.65267 10.01754  8.68933 10.0152  C 10.64037 9.89053  11.84456 8.09549  11.21614 6.243809  C 10.95913 5.48678  10.47501 4.877938  9.8878 4.362956  C 8.94452 3.535532  7.97043 2.743026  7.008976 1.936207  C 6.870474 1.821768  6.72854 1.707316  6.56084 1.570556  C 5.434507 2.533024  4.308746 3.475446  3.208751 4.446494  C 2.889913 4.740671  2.606422 5.070962  2.363998 5.430698  C 1.482052 6.689566  1.625702 8.29634  2.691936 9.2989  C 3.177265 9.75663  3.766191 9.97516  4.451265 10.02157  L 4.451265 11.29076  L 8.55764 11.29076  Z " fill-rule="nonzero" fill="#000000" stroke="none" transform="matrix(1 0 0 1 19 752 )" />
  </g>
</svg>