<?xml version="1.0" encoding="utf-8"?>
<svg version="1.1" xmlns:xlink="http://www.w3.org/1999/xlink" width="14px" height="20px" xmlns="http://www.w3.org/2000/svg">
  <g transform="matrix(1 0 0 1 -906 -923 )">
    <path d="M 0.258941666666667 16.9555  C 0.25333 14.6365  0.25165 12.317125  0.25389 9.99735  C 0.25389 7.6545625  0.25389 5.311975  0.25389 2.9695875  C 0.25389 1.7541  0.842508333333333 0.784975  1.817375 0.4289125  C 2.08422666666667 0.3365625  2.36210333333333 0.290275  2.64143833333333 0.291625  C 5.54379 0.2824375  8.44573333333333 0.2807625  11.34735 0.2866125  C 12.76625 0.2866125  13.7449666666667 1.3873875  13.74555 2.982125  C 13.7477666666667 7.659775  13.7477666666667 12.337375  13.74555 17.015125  C 13.74555 18.361  13.0314333333333 19.388375  11.9107333333333 19.652875  C 11.72605 19.692625  11.5382166666667 19.711375  11.35015 19.70875  C 8.44818333333333 19.711625  5.54621666666667 19.711625  2.64423833333333 19.70875  C 1.46700166666667 19.70875  0.557725 18.917  0.315 17.678875  C 0.27356 17.440625  0.254776666666666 17.19825  0.258941666666667 16.9555  Z M 9.97896666666667 10.0261875  C 10.2789166666667 9.6833  10.4162333333333 9.2526375  10.4146 8.6533625  C 10.3842666666667 7.9964  10.0703166666667 7.4165625  9.43518333333333 7.1056375  C 8.80005 6.7947125  8.2019 6.9213375  7.680015 7.4284625  C 7.52136 7.581425  7.38234 7.75945  7.23153666666667 7.9211875  C 7.06953333333333 8.093575  6.93611333333333 8.094825  6.77577833333333 7.9243125  C 6.63394666666667 7.7732375  6.50052666666667 7.6108875  6.35814666666667 7.4616875  C 6.048035 7.1319  5.63476666666667 6.9510125  5.20685666666667 6.9578  C 4.778935 6.964575  4.370415 7.1584875  4.06879666666667 7.497975  C 3.76716666666667 7.8374625  3.59643666666667 8.29555  3.59318166666667 8.7740875  C 3.589915 9.252625  3.75436833333333 9.7135625  4.05132 10.0581625  C 4.86249166666667 10.987175  5.688795 11.899875  6.51343 12.816375  C 6.80269333333333 13.13725  7.19622166666667 13.14175  7.487725 12.816375  C 8.323 11.892  9.15343333333333 10.9618875  9.97896666666667 10.0261875  Z M 12.7185333333333 17.269625  C 12.6721 17.163625  12.61715 16.921625  12.4842666666667 16.760625  C 12.0621666666667 16.249  11.6141666666667 15.763875  11.1696666666667 15.276125  C 10.9981666666667 15.088125  10.80135 15.091875  10.62985 15.279875  C 10.1903666666667 15.762625  9.7503 16.24525  9.32481666666667 16.743  C 9.17011666666667 16.923375  9.08425 17.164  9.08541666666667 17.413875  C 9.08658333333333 17.663875  9.17466666666667 17.903375  9.331 18.082  C 9.48861666666667 18.263625  9.70316666666667 18.369625  9.92938333333333 18.37775  C 10.1556 18.38575  10.3758666666667 18.29525  10.5435166666667 18.12525  C 10.9016833333333 17.7755  10.90005 17.777375  11.2627666666667 18.12525  C 11.543 18.39675  11.8647666666667 18.455  12.2011166666667 18.28825  C 12.5374666666667 18.1215  12.7029 17.809375  12.7185333333333 17.269  Z M 3.36123666666667 2.0437125  C 3.15942666666667 1.8073875  2.93518166666667 1.645025  2.60500333333333 1.642525  C 2.27649333333333 1.666975  2.00180166666667 1.844375  1.85157 2.2123375  C 1.70132666666667 2.5803125  1.73945333333333 2.9601875  1.99115 3.259825  C 2.422805 3.77135  2.87296333333333 4.2628125  3.32199 4.7549  C 3.47895333333333 4.9272875  3.67572333333333 4.9360625  3.82988666666667 4.7674375  C 4.289565 4.2659375  4.75934666666667 3.771975  5.18763 3.2372625  C 5.63946833333333 2.6730875  5.34459333333333 1.803625  4.67805333333333 1.661325  C 4.31704 1.584225  4.04570833333333 1.761625  3.80578333333333 2.0437125  C 3.59276166666667 2.2944625  3.57369833333333 2.2944625  3.36123666666667 2.0437125  Z " fill-rule="nonzero" fill="#000000" stroke="none" transform="matrix(1 0 0 1 906 923 )" />
  </g>
</svg>