<?xml version="1.0" encoding="utf-8"?>
<svg version="1.1" xmlns:xlink="http://www.w3.org/1999/xlink" width="36px" height="22px" xmlns="http://www.w3.org/2000/svg">
  <defs>
    <mask fill="white" id="clip98">
      <path d="M 0 22  L 0 0  L 19.0322580645161 0  L 36 0  L 36 22  L 19.0322580645161 22  L 0 22  Z " fill-rule="evenodd" />
    </mask>
  </defs>
  <g transform="matrix(1 0 0 1 -1226 -995 )">
    <path d="M 0 22  L 0 0  L 19.0322580645161 0  L 36 0  L 36 22  L 19.0322580645161 22  L 0 22  Z " fill-rule="nonzero" fill="#ffffff" stroke="none" fill-opacity="0" transform="matrix(1 0 0 1 1226 995 )" />
    <path d="M 0 22  L 0 0  L 19.0322580645161 0  L 36 0  L 36 22  L 19.0322580645161 22  L 0 22  Z " stroke-width="4" stroke="#d9001b" fill="none" transform="matrix(1 0 0 1 1226 995 )" mask="url(#clip98)" />
  </g>
</svg>