<?xml version="1.0" encoding="utf-8"?>
<svg version="1.1" xmlns:xlink="http://www.w3.org/1999/xlink" width="310px" height="195px" xmlns="http://www.w3.org/2000/svg">
  <defs>
    <filter x="-109px" y="22px" width="310px" height="195px" filterUnits="userSpaceOnUse" id="filter255">
      <feOffset dx="0" dy="0" in="SourceAlpha" result="shadowOffsetInner" />
      <feGaussianBlur stdDeviation="2.5" in="shadowOffsetInner" result="shadowGaussian" />
      <feComposite in2="shadowGaussian" operator="atop" in="SourceAlpha" result="shadowComposite" />
      <feColorMatrix type="matrix" values="0 0 0 0 0  0 0 0 0 0  0 0 0 0 0  0 0 0 0.349019607843137 0  " in="shadowComposite" />
    </filter>
    <g id="widget256">
      <path d="M 293 185  L 7 185  C 3.08 185  0 181.92  0 178  L 0 22  C 0 18.08  3.08 15  7 15  L 293 15  C 296.92 15  300 18.08  300 22  L 300 178  C 300 181.92  296.92 185  293 185  Z M 149.5 0  L 163 15  L 136 15  L 149.5 0  Z " fill-rule="nonzero" fill="#ffffff" stroke="none" transform="matrix(1 0 0 1 -104 27 )" />
    </g>
  </defs>
  <g transform="matrix(1 0 0 1 109 -22 )">
    <use xlink:href="#widget256" filter="url(#filter255)" />
    <use xlink:href="#widget256" />
  </g>
</svg>