<?xml version="1.0" encoding="utf-8"?>
<svg version="1.1" xmlns:xlink="http://www.w3.org/1999/xlink" width="31px" height="31px" xmlns="http://www.w3.org/2000/svg">
  <g transform="matrix(1 0 0 1 -14 -11 )">
    <path d="M 7.7197265625 2.07877604166667  C 10.0945095486111 0.69292534722222  12.6879340277778 0  15.5 0  C 18.3120659722222 0  20.9054904513889 0.69292534722222  23.2802734375 2.07877604166667  C 25.6550564236111 3.46462673611111  27.5353732638889 5.34494357638889  28.9212239583333 7.7197265625  C 30.3070746527778 10.0945095486111  31 12.6879340277778  31 15.5  C 31 18.3120659722222  30.3070746527778 20.9054904513889  28.9212239583333 23.2802734375  C 27.5353732638889 25.6550564236111  25.6550564236111 27.5353732638889  23.2802734375 28.9212239583333  C 20.9054904513889 30.3070746527778  18.3120659722222 31  15.5 31  C 12.6879340277778 31  10.0945095486111 30.3070746527778  7.7197265625 28.9212239583333  C 5.34494357638889 27.5353732638889  3.46462673611111 25.6550564236111  2.07877604166667 23.2802734375  C 0.692925347222222 20.9054904513889  0 18.3120659722222  0 15.5  C 0 12.6879340277778  0.692925347222222 10.0945095486111  2.07877604166667 7.7197265625  C 3.46462673611111 5.34494357638889  5.34494357638889 3.46462673611111  7.7197265625 2.07877604166667  Z M 12.2708333333333 23.068359375  L 23.25 16.6100260416667  C 23.6805555555556 16.3678385416667  23.8958333333333 15.9978298611111  23.8958333333333 15.5  C 23.8958333333333 15.0021701388889  23.6805555555556 14.6321614583333  23.25 14.3899739583333  L 12.2708333333333 7.931640625  C 11.8537326388889 7.67599826388889  11.4231770833333 7.66927083333333  10.9791666666667 7.91145833333333  C 10.5486111111111 8.16710069444444  10.3333333333333 8.54383680555555  10.3333333333333 9.04166666666667  L 10.3333333333333 21.9583333333333  C 10.3333333333333 22.4561631944444  10.5486111111111 22.8328993055556  10.9791666666667 23.0885416666667  C 11.1944444444444 23.1961805555556  11.4097222222222 23.25  11.625 23.25  C 11.8537326388889 23.25  12.0690104166667 23.189453125  12.2708333333333 23.068359375  Z " fill-rule="nonzero" fill="#ffffff" stroke="none" transform="matrix(1 0 0 1 14 11 )" />
  </g>
</svg>