<?xml version="1.0" encoding="utf-8"?>
<svg version="1.1" xmlns:xlink="http://www.w3.org/1999/xlink" width="29px" height="29px" xmlns="http://www.w3.org/2000/svg">
  <g>
    <path d="M 28.3486328125 17.0960286458333  C 28.4682074652778 17.2156032986111  28.5279947916667 17.3572048611111  28.5279947916667 17.5208333333333  C 28.5279947916667 17.5837673611111  28.5217013888889 17.6278211805556  28.5091145833333 17.6529947916667  C 27.7035590277778 21.0262586805556  26.0169270833333 23.7607421875  23.44921875 25.8564453125  C 20.8815104166667 27.9521484375  17.8732638888889 29  14.4244791666667 29  C 12.5868055555556 29  10.8089192708333 28.6538628472222  9.0908203125 27.9615885416667  C 7.37272135416667 27.2693142361111  5.84027777777778 26.28125  4.49348958333333 24.9973958333333  L 2.05794270833333 27.4329427083333  C 1.81879340277778 27.6720920138889  1.53559027777778 27.7916666666667  1.20833333333333 27.7916666666667  C 0.881076388888889 27.7916666666667  0.597873263888889 27.6720920138889  0.358723958333333 27.4329427083333  C 0.119574652777778 27.1937934027778  0 26.9105902777778  0 26.5833333333333  L 0 18.125  C 0 17.7977430555556  0.119574652777778 17.5145399305556  0.358723958333333 17.275390625  C 0.597873263888889 17.0362413194444  0.881076388888889 16.9166666666667  1.20833333333333 16.9166666666667  L 9.66666666666667 16.9166666666667  C 9.99392361111111 16.9166666666667  10.2771267361111 17.0362413194444  10.5162760416667 17.275390625  C 10.7554253472222 17.5145399305556  10.875 17.7977430555556  10.875 18.125  C 10.875 18.4522569444444  10.7554253472222 18.7354600694444  10.5162760416667 18.974609375  L 7.9296875 21.5611979166667  C 8.82335069444445 22.3919270833333  9.83658854166667 23.0338541666667  10.9694010416667 23.4869791666667  C 12.1022135416667 23.9401041666667  13.2790798611111 24.1666666666667  14.5 24.1666666666667  C 16.1866319444444 24.1666666666667  17.7599826388889 23.7575954861111  19.2200520833333 22.939453125  C 20.6801215277778 22.1213107638889  21.8506944444444 20.9947916666667  22.7317708333333 19.5598958333333  C 22.8702256944444 19.3459201388889  23.2037760416667 18.6095920138889  23.732421875 17.3509114583333  C 23.8331163194444 17.0614149305556  24.0219184027778 16.9166666666667  24.298828125 16.9166666666667  L 27.923828125 16.9166666666667  C 28.0874565972222 16.9166666666667  28.2290581597222 16.9764539930556  28.3486328125 17.0960286458333  Z M 28.6412760416667 1.56705729166667  C 28.8804253472222 1.80620659722222  29 2.08940972222222  29 2.41666666666667  L 29 10.875  C 29 11.2022569444444  28.8804253472222 11.4854600694444  28.6412760416667 11.724609375  C 28.4021267361111 11.9637586805556  28.1189236111111 12.0833333333333  27.7916666666667 12.0833333333333  L 19.3333333333333 12.0833333333333  C 19.0060763888889 12.0833333333333  18.7228732638889 11.9637586805556  18.4837239583333 11.724609375  C 18.2445746527778 11.4854600694444  18.125 11.2022569444444  18.125 10.875  C 18.125 10.5477430555556  18.2445746527778 10.2645399305556  18.4837239583333 10.025390625  L 21.0891927083333 7.419921875  C 19.2263454861111 5.69552951388888  17.0299479166667 4.83333333333333  14.5 4.83333333333333  C 12.8133680555556 4.83333333333333  11.2400173611111 5.24240451388888  9.77994791666667 6.060546875  C 8.31987847222222 6.87868923611111  7.14930555555556 8.00520833333333  6.26822916666667 9.44010416666667  C 6.12977430555556 9.65407986111111  5.79622395833333 10.3904079861111  5.267578125 11.6490885416667  C 5.16688368055556 11.9385850694444  4.97808159722222 12.0833333333333  4.701171875 12.0833333333333  L 0.944010416666667 12.0833333333333  C 0.780381944444444 12.0833333333333  0.638780381944445 12.0235460069444  0.519205729166667 11.9039713541667  C 0.399631076388889 11.7843967013889  0.33984375 11.6427951388889  0.33984375 11.4791666666667  L 0.33984375 11.3470052083333  C 1.15798611111111 7.97374131944444  2.85720486111111 5.2392578125  5.4375 3.1435546875  C 8.01779513888889 1.0478515625  11.0386284722222 0  14.5 0  C 16.3376736111111 0  18.125 0.349283854166668  19.8619791666667 1.0478515625  C 21.5989583333333 1.74641927083333  23.1408420138889 2.73133680555555  24.4876302083333 4.00260416666667  L 26.9420572916667 1.56705729166667  C 27.1812065972222 1.32790798611111  27.4644097222222 1.20833333333333  27.7916666666667 1.20833333333333  C 28.1189236111111 1.20833333333333  28.4021267361111 1.32790798611111  28.6412760416667 1.56705729166667  Z " fill-rule="nonzero" fill="#ffffff" stroke="none" />
  </g>
</svg>