<?xml version="1.0" encoding="utf-8"?>
<svg version="1.1" xmlns:xlink="http://www.w3.org/1999/xlink" width="28px" height="25px" xmlns="http://www.w3.org/2000/svg">
  <g transform="matrix(1 0 0 1 -1067 -696 )">
    <path d="M 12.6033653846154 2.14486638537272  C 12.8165064102564 2.36755743084857  12.9230769230769 2.63127051101734  13 2.93600562587904  L 13 22.063994374121  C 12.9230769230769 22.3687294889827  12.8165064102564 22.6324425691514  12.6033653846154 22.8551336146273  C 12.3902243589744 23.0778246601031  12.1378205128205 23.1891701828411  11.8461538461538 23.1891701828411  C 11.5544871794872 23.1891701828411  11.3020833333333 23.0778246601031  11.0889423076923 22.8551336146273  L 5.48557692307692 17.0007032348804  L 1.07692307692308 17.0007032348804  C 0.78525641025641 17.0007032348804  0.532852564102564 16.8893577121425  0.319711538461538 16.6666666666667  C 0.106570512820513 16.4439756211908  0 16.180262541022  0 15.8755274261603  L 0 9.12447257383966  C 0 8.81973745897796  0.106570512820513 8.55602437880919  0.319711538461538 8.33333333333333  C 0.532852564102564 8.11064228785748  0.78525641025641 7.99929676511955  1.07692307692308 7.99929676511955  L 5.48557692307692 7.99929676511955  L 11.0889423076923 2.14486638537272  C 11.3020833333333 1.92217533989686  11.5544871794872 1.81082981715893  11.8461538461538 1.81082981715893  C 12.1378205128205 1.81082981715893  12.3902243589744 1.92217533989686  12.6033653846154 2.14486638537272  Z M 18.6694711538462 10.0035161744023  C 19.146233974359 10.7770745428973  19.3846153846154 11.6092358180966  19.3846153846154 12.5  C 19.3846153846154 13.3907641819034  19.146233974359 14.2199953117675  18.6694711538462 14.9876933895921  C 18.1927083333333 15.7553914674168  17.5616987179487 16.3033286451008  16.7764423076923 16.6315049226442  C 16.6642628205128 16.6901078293483  16.5240384615385 16.7194092827004  16.3557692307692 16.7194092827004  C 16.0641025641026 16.7194092827004  15.8116987179487 16.6109939052977  15.5985576923077 16.3941631504923  C 15.3854166666667 16.1773323956868  15.2788461538462 15.9106891701828  15.2788461538462 15.5942334739803  C 15.2788461538462 15.3481012658228  15.3461538461538 15.140060947023  15.4807692307692 14.9701125175809  C 15.6153846153846 14.8001640881388  15.7780448717949 14.6536568213783  15.96875 14.5305907172996  C 16.1594551282051 14.4075246132208  16.3501602564103 14.2727379278012  16.5408653846154 14.1262306610408  C 16.7315705128205 13.9797233942804  16.8942307692308 13.7687529301453  17.0288461538462 13.4933192686357  C 17.1634615384615 13.2178856071261  17.2307692307692 12.8867791842475  17.2307692307692 12.5  C 17.2307692307692 12.1132208157525  17.1634615384615 11.7821143928739  17.0288461538462 11.5066807313643  C 16.8942307692308 11.2312470698547  16.7315705128205 11.0202766057196  16.5408653846154 10.8737693389592  C 16.3501602564103 10.7272620721988  16.1594551282051 10.5924753867792  15.96875 10.4694092827004  C 15.7780448717949 10.3463431786217  15.6153846153846 10.1998359118612  15.4807692307692 10.0298874824191  C 15.3461538461538 9.85993905297703  15.2788461538462 9.65189873417721  15.2788461538462 9.40576652601969  C 15.2788461538462 9.08931082981716  15.3854166666667 8.82266760431317  15.5985576923077 8.60583684950774  C 15.8116987179487 8.3890060947023  16.0641025641026 8.28059071729958  16.3557692307692 8.28059071729958  C 16.5240384615385 8.28059071729958  16.6642628205128 8.30989217065166  16.7764423076923 8.36849507735584  C 17.5616987179487 8.68495077355837  18.1927083333333 9.22995780590717  18.6694711538462 10.0035161744023  Z M 22.2620192307692 7.53340365682138  C 23.2155448717949 9.05121894045945  23.6923076923077 10.7067510548523  23.6923076923077 12.5  C 23.6923076923077 14.2932489451477  23.2155448717949 15.9487810595406  22.2620192307692 17.4665963431786  C 21.3084935897436 18.9844116268167  20.0464743589744 20.0890764181903  18.4759615384615 20.7805907172996  C 18.3301282051282 20.8391936240037  18.1899038461538 20.8684950773558  18.0552884615385 20.8684950773558  C 17.7524038461538 20.8684950773558  17.494391025641 20.7571495546179  17.28125 20.5344585091421  C 17.068108974359 20.3117674636662  16.9615384615385 20.0480543834974  16.9615384615385 19.7433192686357  C 16.9615384615385 19.2862165963432  17.1802884615385 18.9404594467886  17.6177884615385 18.7060478199719  C 18.2459935897436 18.3661509610877  18.6722756410256 18.1082981715893  18.8966346153846 17.9324894514768  C 19.7267628205128 17.2995780590717  20.3745993589744 16.5055086732302  20.8401442307692 15.5502812939522  C 21.3056891025641 14.5950539146742  21.5384615384615 13.5782934833568  21.5384615384615 12.5  C 21.5384615384615 11.4217065166432  21.3056891025641 10.4049460853258  20.8401442307692 9.44971870604782  C 20.3745993589744 8.49449132676981  19.7267628205128 7.70042194092827  18.8966346153846 7.06751054852321  C 18.6722756410256 6.89170182841069  18.2459935897436 6.63384903891233  17.6177884615385 6.29395218002813  C 17.1802884615385 6.05954055321144  16.9615384615385 5.71378340365682  16.9615384615385 5.25668073136427  C 16.9615384615385 4.95194561650258  17.068108974359 4.6882325363338  17.28125 4.46554149085795  C 17.494391025641 4.24285044538209  17.7467948717949 4.13150492264416  18.0384615384615 4.13150492264416  C 18.1842948717949 4.13150492264416  18.3301282051282 4.16080637599625  18.4759615384615 4.21940928270042  C 20.0464743589744 4.91092358180966  21.3084935897436 6.01558837318331  22.2620192307692 7.53340365682138  Z M 25.8629807692308 5.07208157524613  C 27.2876602564103 7.32829348335677  28 9.80426629160806  28 12.5  C 28 15.1957337083919  27.2876602564103 17.6717065166432  25.8629807692308 19.9279184247539  C 24.4383012820513 22.1841303328645  22.5424679487179 23.8455227379278  20.1754807692308 24.9120956399437  C 20.0296474358974 24.9706985466479  19.8838141025641 25  19.7379807692308 25  C 19.4463141025641 25  19.1939102564103 24.8886544772621  18.9807692307692 24.6659634317862  C 18.7676282051282 24.4432723863104  18.6610576923077 24.1795593061416  18.6610576923077 23.8748241912799  C 18.6610576923077 23.4528832630098  18.8798076923077 23.1071261134552  19.3173076923077 22.837552742616  C 19.3958333333333 22.7906704172527  19.5220352564103 22.7291373652133  19.6959134615385 22.6529535864979  C 19.8697916666667 22.5767698077825  19.9959935897436 22.5152367557431  20.0745192307692 22.4683544303797  C 20.5905448717949 22.1753398968589  21.0504807692308 21.8764650726676  21.4543269230769 21.5717299578059  C 22.8341346153846 20.50515705579  23.9110576923077 19.1748710736052  24.6850961538462 17.5808720112518  C 25.4591346153846 15.9868729488983  25.8461538461538 14.2932489451477  25.8461538461538 12.5  C 25.8461538461538 10.7067510548523  25.4591346153846 9.01312705110174  24.6850961538462 7.41912798874824  C 23.9110576923077 5.82512892639475  22.8341346153846 4.49484294421003  21.4543269230769 3.42827004219409  C 21.0504807692308 3.12353492733239  20.5905448717949 2.82466010314111  20.0745192307692 2.53164556962025  C 19.9959935897436 2.48476324425691  19.8697916666667 2.42323019221753  19.6959134615385 2.34704641350211  C 19.5220352564103 2.27086263478668  19.3958333333333 2.2093295827473  19.3173076923077 2.16244725738397  C 18.8798076923077 1.89287388654477  18.6610576923077 1.54711673699015  18.6610576923077 1.12517580872011  C 18.6610576923077 0.820440693858412  18.7676282051282 0.556727613689637  18.9807692307692 0.334036568213783  C 19.1939102564103 0.111345522737927  19.4463141025641 0  19.7379807692308 0  C 19.8838141025641 0  20.0296474358974 0.0293014533520847  20.1754807692308 0.0879043600562596  C 22.5424679487179 1.1544772620722  24.4383012820513 2.81586966713549  25.8629807692308 5.07208157524613  Z " fill-rule="nonzero" fill="#ecebeb" stroke="none" transform="matrix(1 0 0 1 1067 696 )" />
  </g>
</svg>