<?xml version="1.0" encoding="utf-8"?>
<svg version="1.1" xmlns:xlink="http://www.w3.org/1999/xlink" width="300px" height="181px" xmlns="http://www.w3.org/2000/svg">
  <defs>
    <mask fill="white" id="clip267">
      <path d="M 292 170  L 27.5262955298504 170  L 20 181  L 12.484268420221 170  L 8 170  C 3.52 170  0 166.48  0 162  L 0 8  C 0 3.52000000000001  3.52 0  8 0  L 292 0  C 296.48 0  300 3.52000000000001  300 8  L 300 162  C 300 166.48  296.48 170  292 170  Z " fill-rule="evenodd" />
    </mask>
  </defs>
  <g>
    <path d="M 292 170  L 27.5262955298504 170  L 20 181  L 12.484268420221 170  L 8 170  C 3.52 170  0 166.48  0 162  L 0 8  C 0 3.52000000000001  3.52 0  8 0  L 292 0  C 296.48 0  300 3.52000000000001  300 8  L 300 162  C 300 166.48  296.48 170  292 170  Z " fill-rule="nonzero" fill="#ffffff" stroke="none" />
    <path d="M 292 170  L 27.5262955298504 170  L 20 181  L 12.484268420221 170  L 8 170  C 3.52 170  0 166.48  0 162  L 0 8  C 0 3.52000000000001  3.52 0  8 0  L 292 0  C 296.48 0  300 3.52000000000001  300 8  L 300 162  C 300 166.48  296.48 170  292 170  Z " stroke-width="2" stroke="#797979" fill="none" mask="url(#clip267)" />
  </g>
</svg>