<?xml version="1.0" encoding="utf-8"?>
<svg version="1.1" xmlns:xlink="http://www.w3.org/1999/xlink" width="19px" height="18px" xmlns="http://www.w3.org/2000/svg">
  <g transform="matrix(1 0 0 1 0 -3 )">
    <path d="M 15.837139423077 11.25  C 15.9969951923077 11.3203125  16.076923076923 11.43359375  16.076923076923 11.58984375  L 16.076923076923 14.625  C 16.076923076923 15.5546875  15.7553084935898 16.349609375  15.112079326923 17.009765625  C 14.4688501602564 17.669921875  13.6943108974359 18  12.7884615384615 18  L 3.28846153846156 18  C 2.3826121794872 18  1.60807291666665 17.669921875  0.96484375 17.009765625  C 0.321614583333355 16.349609375  0 15.5546875  0 14.625  L 0 4.87499999999998  C 0 3.94531249999995  0.321614583333355 3.15039062500001  0.96484375 2.49023437500002  C 1.60807291666665 1.83007812499997  2.3826121794872 1.49999999999998  3.28846153846156 1.49999999999998  L 6.20012019230768 1.49999999999998  C 6.29907852564104 1.49999999999998  6.3847155448718 1.53710937499995  6.45703125 1.61132812500002  C 6.5293469551282 1.68554687500003  6.56550480769232 1.77343750000003  6.56550480769232 1.87500000000002  C 6.56550480769232 2.08593750000002  6.46654647435896 2.21093749999999  6.26862980769232 2.25  C 5.68249198717948 2.45312500000005  5.17628205128204 2.68750000000003  4.75 2.953125  C 4.6738782051282 2.98437499999999  4.61298076923076 3.00000000000002  4.56730769230768 3.00000000000002  L 3.28846153846156 3.00000000000002  C 2.78605769230768 3.00000000000002  2.35596955128204 3.18359374999997  1.9981971153846 3.55078125  C 1.6404246794872 3.91796875000003  1.46153846153844 4.359375  1.46153846153844 4.87499999999998  L 1.46153846153844 14.625  C 1.46153846153844 15.140625  1.6404246794872 15.58203125  1.9981971153846 15.94921875  C 2.35596955128204 16.31640625  2.78605769230768 16.5  3.28846153846156 16.5  L 12.7884615384615 16.5  C 13.2908653846154 16.5  13.720953525641 16.31640625  14.0787259615385 15.94921875  C 14.4364983974359 15.58203125  14.6153846153846 15.140625  14.6153846153846 14.625  L 14.6153846153846 12.1171875  C 14.6153846153846 11.96875  14.6838942307692 11.85546875  14.8209134615385 11.77734375  C 15.0340544871794 11.67578125  15.2395833333334 11.53125  15.4375 11.34375  C 15.5592948717949 11.21875  15.6925080128206 11.1875  15.837139423077 11.25  Z M 19 5.25000000000002  C 19 5.45312500000001  18.9276842948718 5.62890625000001  18.7830528846154 5.77734375000002  L 14.3984375 10.27734375  C 14.2614182692308 10.42578125  14.0901442307692 10.5  13.8846153846154 10.5  C 13.7932692307692 10.5  13.6981169871794 10.48046875  13.5991586538462 10.44140625  C 13.3022836538462 10.30859375  13.1538461538462 10.078125  13.1538461538462 9.75000000000002  L 13.1538461538462 7.50000000000002  L 11.3269230769231 7.50000000000002  C 8.86818910256412 7.50000000000002  7.2011217948718 8.01171874999999  6.32572115384616 9.03515625  C 5.4198717948718 10.10546875  5.13822115384616 11.953125  5.48076923076924 14.578125  C 5.50360576923076 14.7578125  5.42748397435896 14.890625  5.25240384615384 14.9765625  C 5.1915064102564 14.9921875  5.14583333333335 15  5.1153846153846 15  C 4.99358974358976 15  4.8946314102564 14.94921875  4.8185096153846 14.84765625  C 4.7423878205128 14.73828125  4.66245993589744 14.6171875  4.57872596153844 14.484375  C 4.49499198717948 14.3515625  4.34465144230768 14.083984375  4.12770432692308 13.681640625  C 3.91075721153844 13.279296875  3.72235576923076 12.890625  3.5625 12.515625  C 3.40264423076924 12.140625  3.25610977564104 11.6953125  3.1228966346154 11.1796875  C 2.98968349358976 10.6640625  2.92307692307692 10.1875  2.92307692307692 9.75000000000002  C 2.92307692307692 9.36718750000003  2.93639823717948 9.01171875000002  2.9630408653846 8.68359375  C 2.98968349358976 8.35546874999998  3.04296875 8.00390624999998  3.1228966346154 7.62890625  C 3.20282451923076 7.25390625000002  3.30939503205128 6.91015624999997  3.44260817307692 6.59765624999998  C 3.57582131410256 6.28515625000005  3.75470753205128 5.96679687499995  3.97926682692308 5.642578125  C 4.20382612179485 5.31835937500005  4.46454326923076 5.02929687499997  4.76141826923076 4.77539062500002  C 5.05829326923076 4.52148437500001  5.41796875 4.28125000000005  5.84044471153844 4.05468750000002  C 6.26292067307692 3.82812499999999  6.73677884615384 3.638671875  7.26201923076924 3.48632812499998  C 7.7872596153846 3.33398437500002  8.39433092948719 3.21484375000003  9.08323317307692 3.12890625  C 9.77213541666664 3.04296874999997  10.520032051282 3.00000000000002  11.3269230769231 3.00000000000002  L 13.1538461538462 3.00000000000002  L 13.1538461538462 0.750000000000021  C 13.1538461538462 0.421875  13.3022836538462 0.191406250000028  13.5991586538462 0.0585937499999787  C 13.6981169871794 0.0195312499999716  13.7932692307692 0  13.8846153846154 0  C 14.0825320512821 0  14.2538060897436 0.0742187500000071  14.3984375 0.222656250000021  L 18.7830528846154 4.72265625000002  C 18.9276842948718 4.87109374999997  19 5.04687499999997  19 5.25000000000002  Z " fill-rule="nonzero" fill="#666666" stroke="none" transform="matrix(1 0 0 1 0 3 )" />
  </g>
</svg>