<?xml version="1.0" encoding="utf-8"?>
<svg version="1.1" xmlns:xlink="http://www.w3.org/1999/xlink" width="15px" height="10px" xmlns="http://www.w3.org/2000/svg">
  <g transform="matrix(1 0 0 1 -977 -156 )">
    <path d="M 15 2.21739130434783  C 15 2.38808373590982  14.9410669975186 2.53462157809984  14.8232009925558 2.65700483091787  L 7.91873449131514 9.81642512077295  C 7.80086848635236 9.93880837359098  7.66129032258065 10  7.5 10  C 7.33870967741936 10  7.19913151364764 9.93880837359098  7.08126550868486 9.81642512077295  L 0.176799007444169 2.65700483091787  C 0.0589330024813897 2.53462157809984  0 2.38808373590982  0 2.21739130434783  C 0 2.04669887278583  0.0589330024813897 1.90016103059581  0.176799007444169 1.77777777777778  L 1.72146401985112 0.183574879227053  C 1.8393300248139 0.0611916264090173  1.97890818858561 0  2.14019851116625 0  C 2.3014888337469 0  2.44106699751861 0.0611916264090173  2.55893300248139 0.183574879227053  L 7.5 5.31400966183575  L 12.4410669975186 0.183574879227053  C 12.5589330024814 0.0611916264090173  12.6985111662531 0  12.8598014888337 0  C 13.0210918114144 0  13.1606699751861 0.0611916264090173  13.2785359801489 0.183574879227053  L 14.8232009925558 1.77777777777778  C 14.9410669975186 1.90016103059581  15 2.04669887278583  15 2.21739130434783  Z " fill-rule="nonzero" fill="#aa3a3a" stroke="none" transform="matrix(1 0 0 1 977 156 )" />
  </g>
</svg>