<?xml version="1.0" encoding="utf-8"?>
<svg version="1.1" xmlns:xlink="http://www.w3.org/1999/xlink" width="19px" height="18px" xmlns="http://www.w3.org/2000/svg">
  <g transform="matrix(1 0 0 1 -1194 -593 )">
    <path d="M 10.7549972903925 15.1280048076923  C 10.8220716884726 15.0594951923077  10.8556088875126 14.9747596153846  10.8556088875126 14.8737980769231  L 10.8556088875126 12.8185096153846  C 10.8556088875126 12.7175480769231  10.8220716884726 12.6328125  10.7549972903925 12.5643028846154  C 10.6879228923125 12.4957932692307  10.6084926840598 12.4615384615385  10.5167066656345 12.4615384615385  L 8.48329333436554 12.4615384615385  C 8.39150731594023 12.4615384615385  8.31207710768754 12.4957932692307  8.24500270960751 12.5643028846154  C 8.17792831152742 12.6328125  8.14439111248744 12.7175480769231  8.14439111248744 12.8185096153846  L 8.14439111248744 14.8737980769231  C 8.14439111248744 14.9747596153846  8.17792831152742 15.0594951923077  8.24500270960751 15.1280048076923  C 8.31207710768754 15.1965144230769  8.39150731594023 15.2307692307692  8.48329333436554 15.2307692307692  L 10.5167066656345 15.2307692307692  C 10.6084926840598 15.2307692307692  10.6879228923125 15.1965144230769  10.7549972903925 15.1280048076923  Z M 10.7232252070914 11.0066105769231  C 10.7902996051715 10.959735576923  10.8273670356894 10.9002403846154  10.8344274986452 10.828125  L 11.0250599984517 5.86298076923076  C 11.0250599984517 5.77644230769231  10.9897576836727 5.7079326923077  10.9191530541147 5.65745192307693  C 10.8273670356894 5.57812500000001  10.7426414802199 5.53846153846155  10.6649763877061 5.53846153846155  L 8.33502361229386 5.53846153846155  C 8.25735851978012 5.53846153846155  8.17263296431063 5.57812500000001  8.08084694588526 5.65745192307693  C 8.01024231632727 5.7079326923077  7.97494000154833 5.78365384615384  7.97494000154833 5.88461538461538  L 8.1549818069211 10.828125  C 8.1549818069211 10.9002403846154  8.1902841217001 10.959735576923  8.26088875125803 11.0066105769231  C 8.33149338081596 11.0534855769231  8.41621893628551 11.0769230769231  8.51506541766663 11.0769230769231  L 10.4743438878997 11.0769230769231  C 10.5731903692808 11.0769230769231  10.6561508090114 11.0534855769231  10.7232252070914 11.0066105769231  Z M 10.18839513819 0.194711538461551  C 10.4002090268638 0.324519230769241  10.566129906325 0.50120192307692  10.6861577765735 0.72475961538462  L 18.819811101649 15.9555288461539  C 19.0669273051018 16.4098557692308  19.059866842146 16.8641826923077  18.7986297127817 17.3185096153846  C 18.6786018425331 17.5276442307693  18.5144460788109 17.6935096153846  18.306162421615 17.8161057692308  C 18.097878764419 17.9387019230769  17.8737090655726 18  17.6336533250755 18  L 1.36634667492447 18  C 1.12629093442743 18  0.902121235580971 17.9387019230769  0.693837578385022 17.8161057692308  C 0.485553921189073 17.6935096153846  0.321398157466887 17.5276442307693  0.201370287218335 17.3185096153846  C -0.0598668421460138 16.8641826923077  -0.0669273051018259 16.4098557692308  0.180188898350962 15.9555288461539  L 8.31384222342649 0.72475961538462  C 8.43387009367498 0.50120192307692  8.59979097313618 0.324519230769241  8.81160486180997 0.194711538461551  C 9.02341875048389 0.0649038461538289  9.25288379654721 0  9.5 0  C 9.74711620345279 0  9.97658124951611 0.0649038461538289  10.18839513819 0.194711538461551  Z " fill-rule="nonzero" fill="#666666" stroke="none" transform="matrix(1 0 0 1 1194 593 )" />
  </g>
</svg>