<?xml version="1.0" encoding="utf-8"?>
<svg version="1.1" xmlns:xlink="http://www.w3.org/1999/xlink" width="19px" height="19px" xmlns="http://www.w3.org/2000/svg">
  <g transform="matrix(1 0 0 1 0 -2 )">
    <path d="M 19 1.65217391304348  L 19 17.3478260869565  C 19 18.2730434782609  18.2730434782608 19  17.3478260869565 19  L 1.65217391304348 19  C 0.726956521739221 19  0 18.2730434782609  0 17.3478260869565  L 0 1.65217391304348  C 0 0.726956521739127  0.726956521739221 0  1.65217391304348 0  L 17.3478260869565 0  C 18.2730434782608 0  19 0.726956521739127  19 1.65217391304348  Z M 3.30434782608696 2  C 2.3791304347827 1.65217391304348  1.65217391304348 2.3791304347826  1.65217391304348 3.30434782608696  L 1.65217391304348 12.3913043478261  C 1.65217391304348 13.3165217391304  2.3791304347827 14.0434782608696  3.30434782608696 14  L 15.695652173913 14  C 16.6208695652173 14.0434782608696  17.3478260869565 13.3165217391304  17.3478260869565 12.3913043478261  L 17.3478260869565 3.30434782608696  C 17.3478260869565 2.3791304347826  16.6208695652173 1.65217391304348  15.695652173913 2  L 3.30434782608696 2  Z M 8.26086956521739 16.1086956521739  C 8.26086956521739 16.8026086956522  8.80608695652181 17.3478260869565  9.5 17.3478260869565  C 10.1939130434782 17.3478260869565  10.7391304347826 16.8026086956522  10.7391304347826 16.1086956521739  C 10.7391304347826 15.4147826086956  10.1939130434782 14.8695652173913  9.5 14.8695652173913  C 8.80608695652181 14.8695652173913  8.26086956521739 15.4147826086956  8.26086956521739 16.1086956521739  Z " fill-rule="nonzero" fill="#797979" stroke="none" transform="matrix(1 0 0 1 0 2 )" />
  </g>
</svg>