<?xml version="1.0" encoding="utf-8"?>
<svg version="1.1" xmlns:xlink="http://www.w3.org/1999/xlink" width="22px" height="18px" xmlns="http://www.w3.org/2000/svg">
  <g transform="matrix(1 0 0 1 -1443 -594 )">
    <path d="M 11.5401785714285 17.7890625  C 11.3928571428572 17.9296875  11.2127976190476 18  11 18  C 10.7872023809524 18  10.6071428571428 17.9296875  10.4598214285715 17.7890625  L 2.79910714285716 10.734375  C 2.71726190476194 10.671875  2.6047247023809 10.5703125  2.46149553571433 10.4296875  C 2.31826636904761 10.2890625  2.09114583333328 10.033203125  1.78013392857149 9.662109375  C 1.46912202380955 9.29101562500005  1.19084821428567 8.91015625000005  0.9453125 8.51953125  C 0.699776785714328 8.12890624999995  0.480840773809552 7.65625000000005  0.288504464285672 7.1015625  C 0.0961681547619398 6.54687499999995  0 6.00781249999995  0 5.484375  C 0 3.76562500000005  0.519717261904776 2.42187499999995  1.55915178571433 1.453125  C 2.59858630952381 0.484375000000046  4.03497023809522 0  5.86830357142851 0  C 6.3757440476191 0  6.89341517857149 0.0839843749999545  7.42131696428567 0.251953125  C 7.94921875 0.419921875000045  8.44029017857149 0.646484374999955  8.89453125 0.931640625  C 9.34877232142851 1.21679687500005  9.73958333333328 1.48437499999995  10.0669642857143 1.734375  C 10.3943452380952 1.98437500000005  10.7053571428572 2.25  11 2.53125  C 11.2946428571428 2.25  11.6056547619048 1.98437500000005  11.9330357142857 1.734375  C 12.2604166666667 1.48437499999995  12.6512276785715 1.21679687500005  13.10546875 0.931640625  C 13.5597098214285 0.646484374999955  14.05078125 0.419921875000045  14.5786830357143 0.251953125  C 15.1065848214285 0.0839843749999545  15.6242559523809 0  16.1316964285715 0  C 17.9650297619048 0  19.4014136904762 0.484375000000046  20.4408482142857 1.453125  C 21.4802827380952 2.42187499999995  22 3.76562500000005  22 5.484375  C 22 7.21093750000005  21.0628720238096 8.96875000000004  19.1886160714285 10.7578125  L 11.5401785714285 17.7890625  Z " fill-rule="nonzero" fill="#ffffff" stroke="none" transform="matrix(1 0 0 1 1443 594 )" />
  </g>
</svg>