<?xml version="1.0" encoding="utf-8"?>
<svg version="1.1" xmlns:xlink="http://www.w3.org/1999/xlink" width="320px" height="212px" xmlns="http://www.w3.org/2000/svg">
  <defs>
    <mask fill="white" id="clip275">
      <path d="M 313 198  L 172.441177637023 198  L 160.5 212  L 148.558822095101 198  L 7 198  C 3.08 198  0 194.92  0 191  L 0 7  C 0 3.08  3.08 0  7 0  L 313 0  C 316.92 0  320 3.08  320 7  L 320 191  C 320 194.92  316.92 198  313 198  Z " fill-rule="evenodd" />
    </mask>
  </defs>
  <g transform="matrix(1 0 0 1 170 0 )">
    <path d="M 313 198  L 172.441177637023 198  L 160.5 212  L 148.558822095101 198  L 7 198  C 3.08 198  0 194.92  0 191  L 0 7  C 0 3.08  3.08 0  7 0  L 313 0  C 316.92 0  320 3.08  320 7  L 320 191  C 320 194.92  316.92 198  313 198  Z " fill-rule="nonzero" fill="#ffffff" stroke="none" transform="matrix(1 0 0 1 -170 0 )" />
    <path d="M 313 198  L 172.441177637023 198  L 160.5 212  L 148.558822095101 198  L 7 198  C 3.08 198  0 194.92  0 191  L 0 7  C 0 3.08  3.08 0  7 0  L 313 0  C 316.92 0  320 3.08  320 7  L 320 191  C 320 194.92  316.92 198  313 198  Z " stroke-width="2" stroke="#c3c3c3" fill="none" transform="matrix(1 0 0 1 -170 0 )" mask="url(#clip275)" />
  </g>
</svg>