<?xml version="1.0" encoding="utf-8"?>
<svg version="1.1" xmlns:xlink="http://www.w3.org/1999/xlink" width="34px" height="34px" xmlns="http://www.w3.org/2000/svg">
  <g transform="matrix(1 0 0 1 -782 17 )">
    <path d="M 25.0130208333333 23.0208333333334  C 25.2934027777777 22.7404513888889  25.43359375 22.4010416666666  25.43359375 22.0026041666666  C 25.43359375 21.6189236111111  25.2934027777777 21.2868923611111  25.0130208333333 21.0065104166666  L 21.0065104166667 17  L 25.0130208333333 12.9934895833334  C 25.2934027777777 12.7131076388889  25.43359375 12.3810763888889  25.43359375 11.9973958333334  C 25.43359375 11.5989583333334  25.2934027777777 11.2595486111111  25.0130208333333 10.9791666666666  L 23.0208333333333 8.98697916666663  C 22.7404513888889 8.70659722222223  22.4010416666667 8.56640625  22.0026041666667 8.56640625  C 21.6189236111111 8.56640625  21.2868923611111 8.70659722222223  21.0065104166667 8.98697916666663  L 17 12.9934895833334  L 12.9934895833333 8.98697916666663  C 12.7131076388889 8.70659722222223  12.3810763888889 8.56640625  11.9973958333333 8.56640625  C 11.5989583333333 8.56640625  11.2595486111111 8.70659722222223  10.9791666666667 8.98697916666663  L 8.98697916666674 10.9791666666666  C 8.70659722222229 11.2595486111111  8.56640625 11.5989583333334  8.56640625 11.9973958333334  C 8.56640625 12.3810763888889  8.70659722222229 12.7131076388889  8.98697916666674 12.9934895833334  L 12.9934895833333 17  L 8.98697916666674 21.0065104166666  C 8.70659722222229 21.2868923611111  8.56640625 21.6189236111111  8.56640625 22.0026041666666  C 8.56640625 22.4010416666666  8.70659722222229 22.7404513888889  8.98697916666674 23.0208333333334  L 10.9791666666667 25.0130208333334  C 11.2595486111111 25.2934027777778  11.5989583333333 25.43359375  11.9973958333333 25.43359375  C 12.3810763888889 25.43359375  12.7131076388889 25.2934027777778  12.9934895833333 25.0130208333334  L 17 21.0065104166666  L 21.0065104166667 25.0130208333334  C 21.2868923611111 25.2934027777778  21.6189236111111 25.43359375  22.0026041666667 25.43359375  C 22.4010416666667 25.43359375  22.7404513888889 25.2934027777778  23.0208333333333 25.0130208333334  L 25.0130208333333 23.0208333333334  Z M 31.7200520833333 8.466796875  C 33.2400173611111 11.0713975694445  34 13.9157986111111  34 17  C 34 20.0842013888889  33.2400173611111 22.9286024305555  31.7200520833333 25.533203125  C 30.2000868055555 28.1378038194445  28.1378038194445 30.2000868055555  25.533203125 31.7200520833334  C 22.9286024305555 33.2400173611111  20.0842013888889 34  17 34  C 13.9157986111111 34  11.0713975694445 33.2400173611111  8.466796875 31.7200520833334  C 5.86219618055554 30.2000868055555  3.79991319444446 28.1378038194445  2.27994791666674 25.533203125  C 0.759982638888914 22.9286024305555  0 20.0842013888889  0 17  C 0 13.9157986111111  0.759982638888914 11.0713975694445  2.27994791666674 8.466796875  C 3.79991319444446 5.86219618055554  5.86219618055554 3.79991319444446  8.466796875 2.27994791666663  C 11.0713975694445 0.759982638888857  13.9157986111111 0  17 0  C 20.0842013888889 0  22.9286024305555 0.759982638888857  25.533203125 2.27994791666663  C 28.1378038194445 3.79991319444446  30.2000868055555 5.86219618055554  31.7200520833333 8.466796875  Z " fill-rule="nonzero" fill="#fef301" stroke="none" transform="matrix(1 0 0 1 782 -17 )" />
  </g>
</svg>