<?xml version="1.0" encoding="utf-8"?>
<svg version="1.1" xmlns:xlink="http://www.w3.org/1999/xlink" width="34px" height="22px" xmlns="http://www.w3.org/2000/svg">
  <g transform="matrix(1 0 0 1 -17 -25 )">
    <path d="M 34 17.1217391304348  C 34 17.4972624798712  33.8664185277089 17.8196457326892  33.5992555831265 18.0888888888889  L 30.0980148883374 21.5961352657005  C 29.8308519437552 21.8653784219002  29.5144747725393 22  29.1488833746898 22  C 28.7832919768404 22  28.4669148056245 21.8653784219002  28.1997518610422 21.5961352657005  L 17 10.3091787439614  L 5.80024813895784 21.5961352657005  C 5.53308519437553 21.8653784219002  5.21670802315964 22  4.85111662531017 22  C 4.4855252274607 22  4.16914805624481 21.8653784219002  3.90198511166261 21.5961352657005  L 0.400744416873522 18.0888888888889  C 0.133581472291098 17.8196457326892  0 17.4972624798712  0 17.1217391304348  C 0 16.7462157809984  0.133581472291098 16.4238325281804  0.400744416873522 16.1545893719806  L 16.0508684863523 0.403864734299532  C 16.3180314309346 0.134621578099825  16.6344086021505 0  17 0  C 17.3655913978495 0  17.6819685690654 0.134621578099825  17.9491315136477 0.403864734299532  L 33.5992555831265 16.1545893719806  C 33.8664185277089 16.4238325281804  34 16.7462157809984  34 17.1217391304348  Z " fill-rule="nonzero" fill="#ffffff" stroke="none" transform="matrix(1 0 0 1 17 25 )" />
  </g>
</svg>