<?xml version="1.0" encoding="utf-8"?>
<svg version="1.1" xmlns:xlink="http://www.w3.org/1999/xlink" width="20px" height="20px" xmlns="http://www.w3.org/2000/svg">
  <g transform="matrix(1 0 0 1 -314 -195 )">
    <path d="M 8.77403846153845 11.4488636363637  C 9.07852564102568 11.8087121212121  9.23076923076926 12.2348484848485  9.23076923076926 12.7272727272728  L 9.23076923076926 18.1818181818182  C 9.23076923076926 18.6742424242424  9.07852564102568 19.1003787878788  8.77403846153845 19.4602272727272  C 8.46955128205128 19.8200757575758  8.10897435897432 20  7.6923076923077 20  L 1.53846153846155 20  C 1.12179487179486 20  0.761217948717973 19.8200757575758  0.456730769230744 19.4602272727272  C 0.152243589743581 19.1003787878788  0 18.6742424242424  0 18.1818181818182  L 0 12.7272727272728  C 0 12.2348484848485  0.152243589743581 11.8087121212121  0.456730769230744 11.4488636363637  C 0.761217948717973 11.0890151515152  1.12179487179486 10.9090909090909  1.53846153846155 10.9090909090909  L 7.6923076923077 10.9090909090909  C 8.10897435897432 10.9090909090909  8.46955128205128 11.0890151515152  8.77403846153845 11.4488636363637  Z M 8.77403846153845 0.539772727272756  C 9.07852564102568 0.899621212121207  9.23076923076926 1.32575757575759  9.23076923076926 1.81818181818181  L 9.23076923076926 7.27272727272724  C 9.23076923076926 7.76515151515147  9.07852564102568 8.19128787878793  8.77403846153845 8.5511363636363  C 8.46955128205128 8.91098484848483  8.10897435897432 9.09090909090905  7.6923076923077 9.09090909090905  L 1.53846153846155 9.09090909090905  C 1.12179487179486 9.09090909090905  0.761217948717973 8.91098484848483  0.456730769230744 8.5511363636363  C 0.152243589743581 8.19128787878793  0 7.76515151515147  0 7.27272727272724  L 0 1.81818181818181  C 0 1.32575757575759  0.152243589743581 0.899621212121207  0.456730769230744 0.539772727272756  C 0.761217948717973 0.179924242424226  1.12179487179486 0  1.53846153846155 0  L 7.6923076923077 0  C 8.10897435897432 0  8.46955128205128 0.179924242424226  8.77403846153845 0.539772727272756  Z M 19.5432692307693 11.4488636363637  C 19.8477564102564 11.8087121212121  20 12.2348484848485  20 12.7272727272728  L 20 18.1818181818182  C 20 18.6742424242424  19.8477564102564 19.1003787878788  19.5432692307693 19.4602272727272  C 19.238782051282 19.8200757575758  18.8782051282051 20  18.4615384615384 20  L 12.3076923076923 20  C 11.8910256410257 20  11.5304487179487 19.8200757575758  11.2259615384616 19.4602272727272  C 10.9214743589743 19.1003787878788  10.7692307692307 18.6742424242424  10.7692307692307 18.1818181818182  L 10.7692307692307 12.7272727272728  C 10.7692307692307 12.2348484848485  10.9214743589743 11.8087121212121  11.2259615384616 11.4488636363637  C 11.5304487179487 11.0890151515152  11.8910256410257 10.9090909090909  12.3076923076923 10.9090909090909  L 18.4615384615384 10.9090909090909  C 18.8782051282051 10.9090909090909  19.238782051282 11.0890151515152  19.5432692307693 11.4488636363637  Z M 19.5432692307693 0.539772727272756  C 19.8477564102564 0.899621212121207  20 1.32575757575759  20 1.81818181818181  L 20 7.27272727272724  C 20 7.76515151515147  19.8477564102564 8.19128787878793  19.5432692307693 8.5511363636363  C 19.238782051282 8.91098484848483  18.8782051282051 9.09090909090905  18.4615384615384 9.09090909090905  L 12.3076923076923 9.09090909090905  C 11.8910256410257 9.09090909090905  11.5304487179487 8.91098484848483  11.2259615384616 8.5511363636363  C 10.9214743589743 8.19128787878793  10.7692307692307 7.76515151515147  10.7692307692307 7.27272727272724  L 10.7692307692307 1.81818181818181  C 10.7692307692307 1.32575757575759  10.9214743589743 0.899621212121207  11.2259615384616 0.539772727272756  C 11.5304487179487 0.179924242424226  11.8910256410257 0  12.3076923076923 0  L 18.4615384615384 0  C 18.8782051282051 0  19.238782051282 0.179924242424226  19.5432692307693 0.539772727272756  Z " fill-rule="nonzero" fill="#ffffff" stroke="none" transform="matrix(1 0 0 1 314 195 )" />
  </g>
</svg>