<?xml version="1.0" encoding="utf-8"?>
<svg version="1.1" xmlns:xlink="http://www.w3.org/1999/xlink" width="24px" height="25px" xmlns="http://www.w3.org/2000/svg">
  <g transform="matrix(1 0 0 1 -324 -2 )">
    <path d="M 12 23.8839285714286  C 12.1538461538462 23.8839285714286  12.2307692307692 23.8095238095237  12.2307692307692 23.6607142857142  C 12.2307692307692 23.5119047619048  12.1538461538462 23.4375  12 23.4375  C 11.4326923076923 23.4375  10.9447115384615 23.2398623511905  10.5360576923077 22.8445870535714  C 10.1274038461539 22.4493117559523  9.92307692307692 21.9773065476191  9.92307692307692 21.4285714285714  C 9.92307692307692 21.2797619047619  9.84615384615385 21.2053571428572  9.69230769230768 21.2053571428572  C 9.53846153846155 21.2053571428572  9.46153846153844 21.2797619047619  9.46153846153844 21.4285714285714  C 9.46153846153844 22.1075148809523  9.70913461538461 22.6864769345237  10.2043269230769 23.1654575892858  C 10.6995192307693 23.6444382440477  11.2980769230769 23.8839285714286  12 23.8839285714286  Z M 22.6875 18.4151785714286  C 23.0817307692307 18.8430059523809  23.5192307692308 19.2522321428572  24 19.6428571428572  C 24 20.1264880952381  23.8173076923077 20.5450148809523  23.451923076923 20.8984375  C 23.0865384615385 21.2518601190477  22.6538461538461 21.4285714285714  22.1538461538462 21.4285714285714  L 15.6923076923077 21.4285714285714  C 15.6923076923077 22.4144345238095  15.3317307692308 23.2561383928572  14.610576923077 23.9536830357142  C 13.8894230769231 24.6512276785714  13.0192307692308 25  12 25  C 10.9807692307693 25  10.1105769230769 24.6512276785714  9.38942307692308 23.9536830357142  C 8.66826923076924 23.2561383928572  8.30769230769232 22.4144345238095  8.30769230769232 21.4285714285714  L 1.84615384615384 21.4285714285714  C 1.34615384615387 21.4285714285714  0.913461538461547 21.2518601190477  0.54807692307692 20.8984375  C 0.182692307692292 20.5450148809523  0 20.1264880952381  0 19.6428571428572  C 0.480769230769226 19.2522321428572  0.918269230769255 18.8430059523809  1.3125 18.4151785714286  C 1.70673076923075 17.9873511904763  2.11538461538461 17.431640625  2.53846153846156 16.748046875  C 2.96153846153847 16.064453125  3.31971153846153 15.3273809523809  3.61298076923076 14.5368303571428  C 3.90624999999999 13.7462797619048  4.1466346153846 12.7883184523809  4.3341346153846 11.6629464285714  C 4.5216346153846 10.5375744047619  4.6153846153846 9.32849702380953  4.6153846153846 8.03571428571421  C 4.6153846153846 6.62202380952383  5.1778846153846 5.30831473214289  6.3028846153846 4.0945870535714  C 7.4278846153846 2.880859375  8.90384615384615 2.14378720238094  10.7307692307692 1.8833705357143  C 10.6538461538461 1.70665922619047  10.6153846153846 1.52529761904766  10.6153846153846 1.3392857142857  C 10.6153846153846 0.967261904761873  10.75 0.651041666666639  11.0192307692308 0.390625  C 11.2884615384615 0.130208333333361  11.6153846153846 0  12 0  C 12.3846153846154 0  12.7115384615385 0.130208333333361  12.9807692307692 0.390625  C 13.25 0.651041666666639  13.3846153846154 0.967261904761873  13.3846153846154 1.3392857142857  C 13.3846153846154 1.52529761904766  13.3461538461539 1.70665922619047  13.2692307692308 1.8833705357143  C 15.0961538461538 2.14378720238094  16.5721153846154 2.880859375  17.6971153846154 4.0945870535714  C 18.8221153846154 5.30831473214289  19.3846153846154 6.62202380952383  19.3846153846154 8.03571428571421  C 19.3846153846154 9.32849702380953  19.4783653846154 10.5375744047619  19.6658653846154 11.6629464285714  C 19.8533653846154 12.7883184523809  20.0937500000001 13.7462797619048  20.3870192307692 14.5368303571428  C 20.6802884615385 15.3273809523809  21.0384615384615 16.064453125  21.4615384615385 16.748046875  C 21.8846153846154 17.431640625  22.2932692307693 17.9873511904763  22.6875 18.4151785714286  Z " fill-rule="nonzero" fill="#77819d" stroke="none" transform="matrix(1 0 0 1 324 2 )" />
  </g>
</svg>