<?xml version="1.0" encoding="utf-8"?>
<svg version="1.1" xmlns:xlink="http://www.w3.org/1999/xlink" width="368px" height="82px" xmlns="http://www.w3.org/2000/svg">
  <defs>
    <mask fill="white" id="clip294">
      <path d="M 7 9  L 330.81248665131 9  L 335.5 0  L 340.187952296974 9  L 343 9  C 346.92 9  350 12.08  350 16  L 350 57  C 350 60.92  346.92 64  343 64  L 7 64  C 3.07999999999993 64  0 60.92  0 57  L 0 16  C 0 12.08  3.07999999999993 9  7 9  Z " fill-rule="evenodd" />
    </mask>
    <filter x="-9px" y="21px" width="368px" height="82px" filterUnits="userSpaceOnUse" id="filter295">
      <feOffset dx="0" dy="0" in="SourceAlpha" result="shadowOffsetInner" />
      <feGaussianBlur stdDeviation="4.5" in="shadowOffsetInner" result="shadowGaussian" />
      <feComposite in2="shadowGaussian" operator="atop" in="SourceAlpha" result="shadowComposite" />
      <feColorMatrix type="matrix" values="0 0 0 0 0.501960784313725  0 0 0 0 0.501960784313725  0 0 0 0 0.501960784313725  0 0 0 0.349019607843137 0  " in="shadowComposite" />
    </filter>
    <g id="widget296">
      <path d="M 7 9  L 330.81248665131 9  L 335.5 0  L 340.187952296974 9  L 343 9  C 346.92 9  350 12.08  350 16  L 350 57  C 350 60.92  346.92 64  343 64  L 7 64  C 3.07999999999993 64  0 60.92  0 57  L 0 16  C 0 12.08  3.07999999999993 9  7 9  Z " fill-rule="nonzero" fill="#ffffff" stroke="none" transform="matrix(1 0 0 1 0 30 )" />
      <path d="M 7 9  L 330.81248665131 9  L 335.5 0  L 340.187952296974 9  L 343 9  C 346.92 9  350 12.08  350 16  L 350 57  C 350 60.92  346.92 64  343 64  L 7 64  C 3.07999999999993 64  0 60.92  0 57  L 0 16  C 0 12.08  3.07999999999993 9  7 9  Z " stroke-width="2" stroke="#d5d5d5" fill="none" transform="matrix(1 0 0 1 0 30 )" mask="url(#clip294)" />
    </g>
  </defs>
  <g transform="matrix(1 0 0 1 9 -21 )">
    <use xlink:href="#widget296" filter="url(#filter295)" />
    <use xlink:href="#widget296" />
  </g>
</svg>