<?xml version="1.0" encoding="utf-8"?>
<svg version="1.1" xmlns:xlink="http://www.w3.org/1999/xlink" width="24px" height="24px" xmlns="http://www.w3.org/2000/svg">
  <g transform="matrix(1 0 0 1 -804 -339 )">
    <path d="M 0 12  C 0 5.28000000000002  5.28000000000002 0  12 0  C 18.72 0  24 5.28000000000002  24 12  C 24 18.72  18.72 24  12 24  C 5.28000000000002 24  0 18.72  0 12  Z M 22.2222222222223 12  C 22.2222222222223 6.27555555555555  17.7244444444445 1.77777777777778  12 1.77777777777778  C 6.27555555555555 1.77777777777778  1.77777777777774 6.27555555555555  1.77777777777774 12  C 1.77777777777774 17.7244444444445  6.27555555555555 22.2222222222222  12 22.2222222222222  C 17.7244444444445 22.2222222222222  22.2222222222223 17.7244444444445  22.2222222222223 12  Z M 17.6 16.24  L 10.4 14.48  L 9.68000000000002 4.48000000000002  L 13.04 12.08  L 17.6 16.24  Z " fill-rule="nonzero" fill="#d94924" stroke="none" transform="matrix(1 0 0 1 804 339 )" />
  </g>
</svg>