<?xml version="1.0" encoding="utf-8"?>
<svg version="1.1" xmlns:xlink="http://www.w3.org/1999/xlink" width="17px" height="19px" xmlns="http://www.w3.org/2000/svg">
  <g transform="matrix(1 0 0 1 -182 -30 )">
    <path d="M 1.41666666666663 10.5  C 1.41666666666663 14.4666666666667  4.5333333333333 17.5833333333333  8.5 17.5833333333333  C 12.4666666666667 17.5833333333333  15.5833333333334 14.4666666666667  15.5833333333334 10.5  C 15.5833333333334 6.69154020876124  12.710319663532 3.66662960019562  8.9704204225709 3.4313962779392  C 8.76663098801953 4.90054859742105  7.53324068527047 6  6 6  C 4.32000000000005 6  3 4.68000000000001  3 3  C 3 1.31999999999999  4.32000000000005 0  6 0  C 7.33027249970303 0  8.43482753467822 0.827630704002047  8.83705282353003 2.00627983379388  C 13.4353674300136 2.17804701444931  17 5.85293724768104  17 10.5  C 17 15.26  13.26 19  8.5 19  C 3.74000000000001 19  0 15.26  0 10.5  C 0 8.68879858420121  0.541490940193739 7.02527651572791  1.47462573775215 5.65928087736768  L 2.71039108191462 6.37275033144243  C 1.89306045100989 7.52827001822567  1.41666666666663 8.94917222033877  1.41666666666663 10.5  Z M 4 3  C 4 4.12  4.88 5  6 5  C 7.12 5  8 4.12  8 3  C 8 1.88  7.12 1  6 1  C 4.88 1  4 1.88  4 3  Z " fill-rule="nonzero" fill="#ff0000" stroke="none" transform="matrix(1 0 0 1 182 30 )" />
  </g>
</svg>