<?xml version="1.0" encoding="utf-8"?>
<svg version="1.1" xmlns:xlink="http://www.w3.org/1999/xlink" width="17px" height="26px" xmlns="http://www.w3.org/2000/svg">
  <g transform="matrix(1 0 0 1 -1080 -28 )">
    <path d="M 17 13  C 17 13.2795698924731  16.8960746460747 13.5215053763441  16.688223938224 13.7258064516129  L 4.51254826254822 25.6935483870968  C 4.30469755469755 25.8978494623656  4.05855855855853 26  3.77413127413126 26  C 3.48970398970398 26  3.24356499356497 25.8978494623656  3.0357142857143 25.6935483870968  L 0.311776061776005 23.016129032258  C 0.103925353925335 22.8118279569893  0 22.5698924731183  0 22.2903225806452  C 0 22.010752688172  0.103925353925335 21.7688172043011  0.311776061776005 21.5645161290322  L 9.02509652509653 13  L 0.311776061776005 4.43548387096776  C 0.103925353925335 4.23118279569893  0 3.98924731182796  0 3.70967741935484  C 0 3.43010752688171  0.103925353925335 3.18817204301074  0.311776061776005 2.98387096774195  L 3.0357142857143 0.306451612903238  C 3.24356499356497 0.102150537634413  3.48970398970398 0  3.77413127413126 0  C 4.05855855855853 0  4.30469755469755 0.102150537634413  4.51254826254822 0.306451612903238  L 16.688223938224 12.2741935483871  C 16.8960746460747 12.4784946236559  17 12.7204301075269  17 13  Z " fill-rule="nonzero" fill="#848484" stroke="none" transform="matrix(1 0 0 1 1080 28 )" />
  </g>
</svg>