<?xml version="1.0" encoding="utf-8"?>
<svg version="1.1" xmlns:xlink="http://www.w3.org/1999/xlink" width="6px" height="10px" xmlns="http://www.w3.org/2000/svg">
  <g transform="matrix(1 0 0 1 -1168 -36 )">
    <path d="M 6 5  C 6 5.10752688172043  5.96332046332047 5.20057899090158  5.88996138996141 5.27915632754343  L 1.59266409266408 9.88213399503722  C 1.51930501930502 9.96071133167907  1.43243243243242 10  1.33204633204633 10  C 1.23166023166023 10  1.14478764478764 9.96071133167907  1.07142857142858 9.88213399503722  L 0.11003861003859 8.85235732009925  C 0.03667953667953 8.77377998345741  0 8.68072787427626  0 8.57320099255583  C 0 8.4656741108354  0.03667953667953 8.37262200165426  0.11003861003859 8.2940446650124  L 3.18532818532819 5  L 0.11003861003859 1.7059553349876  C 0.03667953667953 1.62737799834574  0 1.5343258891646  0 1.42679900744417  C 0 1.31927212572373  0.03667953667953 1.22622001654259  0.11003861003859 1.14764267990075  L 1.07142857142858 0.117866004962784  C 1.14478764478764 0.0392886683209279  1.23166023166023 0  1.33204633204633 0  C 1.43243243243242 0  1.51930501930502 0.0392886683209279  1.59266409266408 0.117866004962784  L 5.88996138996141 4.72084367245657  C 5.96332046332047 4.79942100909842  6 4.89247311827957  6 5  Z " fill-rule="nonzero" fill="#ff0000" stroke="none" transform="matrix(1 0 0 1 1168 36 )" />
  </g>
</svg>