<?xml version="1.0" encoding="utf-8"?>
<svg version="1.1" xmlns:xlink="http://www.w3.org/1999/xlink" width="17px" height="26px" xmlns="http://www.w3.org/2000/svg">
  <g transform="matrix(1 0 0 1 -754 -28 )">
    <path d="M 17 3.70967741935484  C 17 3.98924731182796  16.8960746460747 4.23118279569893  16.688223938224 4.43548387096776  L 7.97490347490347 13  L 16.688223938224 21.5645161290322  C 16.8960746460747 21.7688172043011  17 22.010752688172  17 22.2903225806452  C 17 22.5698924731183  16.8960746460747 22.8118279569893  16.688223938224 23.016129032258  L 13.9642857142857 25.6935483870968  C 13.756435006435 25.8978494623656  13.510296010296 26  13.2258687258687 26  C 12.9414414414415 26  12.6953024453025 25.8978494623656  12.4874517374518 25.6935483870968  L 0.311776061776005 13.7258064516129  C 0.103925353925335 13.5215053763441  0 13.2795698924731  0 13  C 0 12.7204301075269  0.103925353925335 12.4784946236559  0.311776061776005 12.2741935483871  L 12.4874517374518 0.306451612903238  C 12.6953024453025 0.102150537634413  12.9414414414415 0  13.2258687258687 0  C 13.510296010296 0  13.756435006435 0.102150537634413  13.9642857142857 0.306451612903238  L 16.688223938224 2.98387096774195  C 16.8960746460747 3.18817204301074  17 3.43010752688171  17 3.70967741935484  Z " fill-rule="nonzero" fill="#848484" stroke="none" transform="matrix(1 0 0 1 754 28 )" />
  </g>
</svg>