<?xml version="1.0" encoding="utf-8"?>
<svg version="1.1" xmlns:xlink="http://www.w3.org/1999/xlink" width="33px" height="33px" xmlns="http://www.w3.org/2000/svg">
  <g transform="matrix(1 0 0 1 16 -108 )">
    <path d="M 18.5625 27.62890625  C 18.9348958333333 27.62890625  19.2571614583333 27.4928385416667  19.529296875 27.220703125  L 21.720703125 25.029296875  C 21.9928385416667 24.7571614583333  22.12890625 24.4348958333333  22.12890625 24.0625  C 22.12890625 23.6901041666667  21.9928385416667 23.3678385416667  21.720703125 23.095703125  L 15.125 16.5  L 21.720703125 9.904296875  C 21.9928385416667 9.63216145833333  22.12890625 9.30989583333333  22.12890625 8.9375  C 22.12890625 8.56510416666666  21.9928385416667 8.24283854166666  21.720703125 7.970703125  L 19.529296875 5.779296875  C 19.2571614583333 5.50716145833333  18.9348958333333 5.37109375  18.5625 5.37109375  C 18.1901041666667 5.37109375  17.8678385416667 5.50716145833333  17.595703125 5.779296875  L 7.841796875 15.533203125  C 7.56966145833333 15.8053385416667  7.43359375 16.1276041666667  7.43359375 16.5  C 7.43359375 16.8723958333333  7.56966145833333 17.1946614583333  7.841796875 17.466796875  L 17.595703125 27.220703125  C 17.8678385416667 27.4928385416667  18.1901041666667 27.62890625  18.5625 27.62890625  Z M 30.787109375 8.2177734375  C 32.2623697916667 10.7457682291667  33 13.5065104166667  33 16.5  C 33 19.4934895833333  32.2623697916667 22.2542317708333  30.787109375 24.7822265625  C 29.3118489583333 27.3102213541667  27.3102213541667 29.3118489583333  24.7822265625 30.787109375  C 22.2542317708333 32.2623697916667  19.4934895833333 33  16.5 33  C 13.5065104166667 33  10.7457682291667 32.2623697916667  8.2177734375 30.787109375  C 5.68977864583333 29.3118489583333  3.68815104166667 27.3102213541667  2.212890625 24.7822265625  C 0.737630208333333 22.2542317708333  0 19.4934895833333  0 16.5  C 0 13.5065104166667  0.737630208333333 10.7457682291667  2.212890625 8.2177734375  C 3.68815104166667 5.68977864583333  5.68977864583333 3.68815104166666  8.2177734375 2.212890625  C 10.7457682291667 0.73763020833333  13.5065104166667 0  16.5 0  C 19.4934895833333 0  22.2542317708333 0.73763020833333  24.7822265625 2.212890625  C 27.3102213541667 3.68815104166666  29.3118489583333 5.68977864583333  30.787109375 8.2177734375  Z " fill-rule="nonzero" fill="#000000" stroke="none" fill-opacity="0.462745098039216" transform="matrix(1 0 0 1 -16 108 )" />
  </g>
</svg>