<?xml version="1.0" encoding="utf-8"?>
<svg version="1.1" xmlns:xlink="http://www.w3.org/1999/xlink" width="33px" height="33px" xmlns="http://www.w3.org/2000/svg">
  <g transform="matrix(1 0 0 1 -1690 -106 )">
    <path d="M 14.4375 27.62890625  C 14.0651041666667 27.62890625  13.7428385416667 27.4928385416667  13.470703125 27.220703125  L 11.279296875 25.029296875  C 11.0071614583333 24.7571614583333  10.87109375 24.4348958333333  10.87109375 24.0625  C 10.87109375 23.6901041666667  11.0071614583333 23.3678385416667  11.279296875 23.095703125  L 17.875 16.5  L 11.279296875 9.904296875  C 11.0071614583333 9.63216145833333  10.87109375 9.30989583333333  10.87109375 8.9375  C 10.87109375 8.56510416666666  11.0071614583333 8.24283854166666  11.279296875 7.970703125  L 13.470703125 5.779296875  C 13.7428385416667 5.50716145833333  14.0651041666667 5.37109375  14.4375 5.37109375  C 14.8098958333333 5.37109375  15.1321614583333 5.50716145833333  15.404296875 5.779296875  L 25.158203125 15.533203125  C 25.4303385416667 15.8053385416667  25.56640625 16.1276041666667  25.56640625 16.5  C 25.56640625 16.8723958333333  25.4303385416667 17.1946614583333  25.158203125 17.466796875  L 15.404296875 27.220703125  C 15.1321614583333 27.4928385416667  14.8098958333333 27.62890625  14.4375 27.62890625  Z M 2.212890625 8.2177734375  C 0.737630208333338 10.7457682291667  0 13.5065104166667  0 16.5  C 0 19.4934895833333  0.737630208333338 22.2542317708333  2.212890625 24.7822265625  C 3.68815104166666 27.3102213541667  5.68977864583333 29.3118489583333  8.2177734375 30.787109375  C 10.7457682291667 32.2623697916667  13.5065104166667 33  16.5 33  C 19.4934895833333 33  22.2542317708333 32.2623697916667  24.7822265625 30.787109375  C 27.3102213541667 29.3118489583333  29.3118489583333 27.3102213541667  30.787109375 24.7822265625  C 32.2623697916667 22.2542317708333  33 19.4934895833333  33 16.5  C 33 13.5065104166667  32.2623697916667 10.7457682291667  30.787109375 8.2177734375  C 29.3118489583333 5.68977864583333  27.3102213541667 3.68815104166666  24.7822265625 2.212890625  C 22.2542317708333 0.73763020833333  19.4934895833333 0  16.5 0  C 13.5065104166667 0  10.7457682291667 0.73763020833333  8.2177734375 2.212890625  C 5.68977864583333 3.68815104166666  3.68815104166666 5.68977864583333  2.212890625 8.2177734375  Z " fill-rule="nonzero" fill="#000000" stroke="none" fill-opacity="0.462745098039216" transform="matrix(1 0 0 1 1690 106 )" />
  </g>
</svg>