<?xml version="1.0" encoding="utf-8"?>
<svg version="1.1" xmlns:xlink="http://www.w3.org/1999/xlink" width="10px" height="6px" xmlns="http://www.w3.org/2000/svg">
  <g transform="matrix(1 0 0 1 -40 -10 )">
    <path d="M 10 1.3304347826087  C 10 1.22801932367149  9.96071133167909 1.14009661835749  9.8821339950372 1.06666666666666  L 8.85235732009923 0.110144927536236  C 8.77377998345741 0.0367149758454071  8.68072787427626 0  8.57320099255583 0  C 8.4656741108354 0  8.37262200165426 0.0367149758454071  8.2940446650124 0.110144927536236  L 5 3.18840579710145  L 1.7059553349876 0.110144927536236  C 1.62737799834574 0.0367149758454071  1.5343258891646 0  1.42679900744417 0  C 1.31927212572373 0  1.22622001654259 0.0367149758454071  1.14764267990077 0.110144927536236  L 0.117866004962801 1.06666666666666  C 0.0392886683209112 1.14009661835749  0 1.22801932367149  0 1.3304347826087  C 0 1.43285024154589  0.0392886683209112 1.5207729468599  0.117866004962801 1.59420289855073  L 4.72084367245657 5.88985507246376  C 4.79942100909842 5.96328502415459  4.89247311827957 6  5 6  C 5.10752688172043 6  5.20057899090158 5.96328502415459  5.27915632754343 5.88985507246376  L 9.8821339950372 1.59420289855073  C 9.96071133167909 1.5207729468599  10 1.43285024154589  10 1.3304347826087  Z " fill-rule="nonzero" fill="#434a66" stroke="none" transform="matrix(1 0 0 1 40 10 )" />
  </g>
</svg>