<?xml version="1.0" encoding="utf-8"?>
<svg version="1.1" xmlns:xlink="http://www.w3.org/1999/xlink" width="9px" height="7px" xmlns="http://www.w3.org/2000/svg">
  <g transform="matrix(1 0 0 1 -5 -28 )">
    <path d="M 8.8330078125 1.32465277777781  C 8.94433593749999 1.1707175925926  9 0.988425925925951  9 0.77777777777781  C 9 0.567129629629628  8.94433593749999 0.384837962962975  8.8330078125 0.23090277777781  C 8.72167968750001 0.0769675925926033  8.58984375000001 0  8.4375 0  L 0.5625 0  C 0.41015624999999 0  0.27832031249999 0.0769675925926033  0.1669921875 0.23090277777781  C 0.05566406250001 0.384837962962975  0 0.567129629629628  0 0.77777777777781  C 0 0.988425925925951  0.05566406250001 1.1707175925926  0.1669921875 1.32465277777781  L 4.1044921875 6.76909722222219  C 4.21582031249999 6.9230324074074  4.34765624999999 7  4.5 7  C 4.65234375000001 7  4.78417968750001 6.9230324074074  4.8955078125 6.76909722222219  L 8.8330078125 1.32465277777781  Z " fill-rule="nonzero" fill="#bd1f1f" stroke="none" transform="matrix(1 0 0 1 5 28 )" />
  </g>
</svg>