<?xml version="1.0" encoding="utf-8"?>
<svg version="1.1" xmlns:xlink="http://www.w3.org/1999/xlink" width="20px" height="21px" xmlns="http://www.w3.org/2000/svg">
  <g transform="matrix(1 0 0 1 -1456 -1386 )">
    <path d="M 19.8671875 15.1826171875  C 19.9557291666667 15.8707682291667  20 16.6022135416667  20 17.376953125  C 20 18.3704427083333  19.6744791666667 19.22265625  19.0234375 19.93359375  C 18.3723958333333 20.64453125  17.5885416666667 21  16.671875 21  L 3.328125 21  C 2.41145833333333 21  1.62760416666667 20.64453125  0.9765625 19.93359375  C 0.325520833333333 19.22265625  0 18.3704427083333  0 17.376953125  C 0 16.6022135416667  0.0442708333333334 15.8707682291667  0.1328125 15.1826171875  C 0.221354166666667 14.4944661458333  0.385416666666667 13.8017578125  0.625 13.1044921875  C 0.864583333333334 12.4072265625  1.16927083333333 11.8102213541667  1.5390625 11.3134765625  C 1.90885416666667 10.8167317708333  2.3984375 10.4111328125  3.0078125 10.0966796875  C 3.6171875 9.7822265625  4.31770833333333 9.625  5.109375 9.625  C 6.47395833333333 10.7916666666667  8.10416666666667 11.375  10 11.375  C 11.8958333333333 11.375  13.5260416666667 10.7916666666667  14.890625 9.625  C 15.6822916666667 9.625  16.3828125 9.7822265625  16.9921875 10.0966796875  C 17.6015625 10.4111328125  18.0911458333333 10.8167317708333  18.4609375 11.3134765625  C 18.8307291666667 11.8102213541667  19.1354166666667 12.4072265625  19.375 13.1044921875  C 19.6145833333333 13.8017578125  19.7786458333333 14.4944661458333  19.8671875 15.1826171875  Z M 14.2421875 1.5380859375  C 15.4140625 2.5634765625  16 3.80078125  16 5.25  C 16 6.69921875  15.4140625 7.9365234375  14.2421875 8.9619140625  C 13.0703125 9.9873046875  11.65625 10.5  10 10.5  C 8.34375 10.5  6.9296875 9.9873046875  5.7578125 8.9619140625  C 4.5859375 7.9365234375  4 6.69921875  4 5.25  C 4 3.80078125  4.5859375 2.5634765625  5.7578125 1.5380859375  C 6.9296875 0.5126953125  8.34375 0  10 0  C 11.65625 0  13.0703125 0.5126953125  14.2421875 1.5380859375  Z " fill-rule="nonzero" fill="#000000" stroke="none" fill-opacity="0.627450980392157" transform="matrix(1 0 0 1 1456 1386 )" />
  </g>
</svg>