<?xml version="1.0" encoding="utf-8"?>
<svg version="1.1" xmlns:xlink="http://www.w3.org/1999/xlink" width="21px" height="30px" xmlns="http://www.w3.org/2000/svg">
  <g transform="matrix(1 0 0 1 -791 -518 )">
    <path d="M 18.5189920424403 6.10465317919075  L 18.5189920424403 0  L 2.51779973474801 0  L 2.51779973474801 6.10465317919075  L 8.41693368700265 6.10465317919075  L 8.41693368700265 10.0790028901734  C 3.62160875331565 10.4146820809249  0.0106671087533151 11.8860693641619  0.0106671087533151 13.6514306358382  C 0.0106671087533151 15.4168352601156  3.62158090185676 16.8881358381503  8.41693368700265 17.2238583815029  L 8.41693368700265 29.9786705202312  L 12.6198859416446 29.9786705202312  L 12.6198859416446 17.2208670520231  C 17.3967175066313 16.8801156069364  20.9893328912467 15.4114161849711  20.9893328912467 13.651387283237  C 20.9893328912467 11.8911416184971  17.3967175066313 10.4219653179191  12.6198859416446 10.0816473988439  L 12.6198859416446 6.1046098265896  L 18.5189920424403 6.1046098265896  Z M 12.6162652519894 10.8869653179191  C 16.39024933687 11.156661849711  19.1827201591512 12.1310549132948  19.1827201591512 13.2920375722543  C 19.1827201591512 14.4531069364162  16.3905835543767 15.4270231213873  12.6198859416446 15.6974132947977  L 12.3762135278515 15.7134971098266  L 12.3492811671088 15.7134971098266  L 12.1207877984085 15.7265895953757  L 12.0960557029178 15.7265895953757  C 11.9261061007958 15.7356502890173  11.7540954907162 15.7434104046243  11.5799124668435 15.7495231213873  L 11.5691061007958 15.7495231213873  L 11.3354602122016 15.7570664739884  L 11.269424403183 15.7570664739884  L 11.0850477453581 15.7609248554913  L 9.91743103448276 15.7609248554913  L 9.73494827586207 15.7570664739884  L 9.67155835543766 15.7570664739884  L 9.4535649867374 15.7499566473988  L 9.42961273209549 15.7499566473988  C 9.17123474801061 15.7409826589595  8.91675596816976 15.7285838150289  8.66603713527851 15.7134971098266  L 8.66275066312997 15.7134971098266  L 8.41314588859416 15.696676300578  C 4.62364854111406 15.4304046242775  1.8135198938992 14.4531069364162  1.8135198938992 13.2864884393064  C 1.8135198938992 12.1196098265896  4.62412201591512 11.1452167630058  8.41314588859416 10.8759971098266  L 8.41314588859416 14.5656069364162  C 9.07091379310345 14.6189739884393  9.77062599469496 14.6482369942196  10.4963236074271 14.6482369942196  C 11.2335795755968 14.6482369942196  11.9474124668435 14.6184971098266  12.6162652519894 14.5626589595376  L 12.6162652519894 10.8869653179191  Z " fill-rule="nonzero" fill="#3c3c3c" stroke="none" transform="matrix(1 0 0 1 791 518 )" />
  </g>
</svg>