<?xml version="1.0" encoding="utf-8"?>
<svg version="1.1" xmlns:xlink="http://www.w3.org/1999/xlink" width="22px" height="22px" xmlns="http://www.w3.org/2000/svg">
  <g transform="matrix(1 0 0 1 -381 -313 )">
    <path d="M 21.9756097584794 11  C 21.9756097584794 4.93841462938262  17.0615853706174 0.0243902415205791  11 0.0243902415205791  C 4.93841462938262 0.0243902415205791  0.0243902415205791 4.93841462938262  0.0243902415205791 11  C 0.0243902415205791 17.0615853706174  4.93841462938262 21.9756097584794  11 21.9756097584794  C 17.0615853706174 21.9756097584794  21.9756097584794 17.0615853706174  21.9756097584794 11  Z M 20.0158536466273 11  C 20.0158536466273 15.9792682950648  15.9792682950648 20.0158536466273  11 20.0158536466273  C 6.02073170493521 20.0158536466273  1.98414635337271 15.9792682688643  1.98414635337271 11  C 1.98414635337271 6.02073173113567  6.02073170493521 1.98414635337271  11 1.98414635337271  C 15.9792682950648 1.98414635337271  20.0158536466273 6.02073170493521  20.0158536466273 11  Z M 15.7036585318216 10.2158536656822  L 11.7841463343178 10.2158536656822  L 11.7841463343178 6.29634146817836  C 11.7841463343178 5.8632694060989  11.4330720620795 5.51219513386052  11 5.51219513386052  C 10.5669279379205 5.51219513386052  10.2158536656822 5.8632694060989  10.2158536656822 6.29634146817836  L 10.2158536656822 10.2158536656822  L 6.29634146817835 10.2158536656822  C 5.86326940609889 10.2158536656822  5.51219513386052 10.5669279379205  5.51219513386052 11  C 5.51219513386052 11.4330720620795  5.86326940609889 11.7841463343178  6.29634146817835 11.7841463343178  L 10.2158536656822 11.7841463343178  L 10.2158536656822 15.7036585318216  C 10.2158536656822 16.1367305939011  10.5669279379205 16.4878048661395  11 16.4878048661395  C 11.4330720620795 16.4878048661395  11.7841463343178 16.1367305939011  11.7841463343178 15.7036585318216  L 11.7841463343178 11.7841463343178  L 15.7036585318216 11.7841463343178  C 16.1367305939011 11.7841463343178  16.4878048661395 11.4330720620795  16.4878048661395 11  C 16.4878048661395 10.5669279379205  16.1367305939011 10.2158536656822  15.7036585318216 10.2158536656822  Z " fill-rule="nonzero" fill="#555555" stroke="none" fill-opacity="0.694117647058824" transform="matrix(1 0 0 1 381 313 )" />
  </g>
</svg>