<?xml version="1.0" encoding="utf-8"?>
<svg version="1.1" xmlns:xlink="http://www.w3.org/1999/xlink" width="22px" height="22px" xmlns="http://www.w3.org/2000/svg">
  <g transform="matrix(1 0 0 1 -351 -313 )">
    <path d="M 16.1848958333333 12.869140625  C 16.2994791666667 13.0935329861111  16.3185763888889 13.3250868055556  16.2421875 13.5638020833333  C 15.8888888888889 14.7191840277778  15.2300347222222 15.6501736111111  14.265625 16.3567708333333  C 13.3012152777778 17.0633680555556  12.2126736111111 17.4166666666667  11 17.4166666666667  C 9.78732638888889 17.4166666666667  8.69878472222222 17.0633680555556  7.734375 16.3567708333333  C 6.76996527777778 15.6501736111111  6.11111111111111 14.7191840277778  5.7578125 13.5638020833333  C 5.68142361111111 13.3250868055556  5.70052083333333 13.0935329861111  5.81510416666667 12.869140625  C 5.9296875 12.6447482638889  6.11111111111111 12.4943576388889  6.359375 12.41796875  C 6.59809027777778 12.3415798611111  6.82964409722222 12.3606770833333  7.05403645833333 12.4752604166667  C 7.27842881944445 12.58984375  7.42881944444445 12.7712673611111  7.50520833333333 13.01953125  C 7.74392361111111 13.7834201388889  8.185546875 14.4016927083333  8.830078125 14.8743489583333  C 9.474609375 15.3470052083333  10.1979166666667 15.5833333333333  11 15.5833333333333  C 11.8020833333333 15.5833333333333  12.525390625 15.3470052083333  13.169921875 14.8743489583333  C 13.814453125 14.4016927083333  14.2560763888889 13.7834201388889  14.4947916666667 13.01953125  C 14.5711805555556 12.7712673611111  14.7239583333333 12.58984375  14.953125 12.4752604166667  C 15.1822916666667 12.3606770833333  15.4162326388889 12.3415798611111  15.6549479166667 12.41796875  C 15.8936631944444 12.4943576388889  16.0703125 12.6447482638889  16.1848958333333 12.869140625  Z M 8.62955729166667 6.037109375  C 8.98763020833333 6.39518229166667  9.16666666666667 6.82725694444444  9.16666666666667 7.33333333333333  C 9.16666666666667 7.83940972222222  8.98763020833333 8.271484375  8.62955729166667 8.62955729166667  C 8.271484375 8.98763020833333  7.83940972222222 9.16666666666667  7.33333333333333 9.16666666666667  C 6.82725694444445 9.16666666666667  6.39518229166667 8.98763020833333  6.037109375 8.62955729166667  C 5.67903645833333 8.271484375  5.5 7.83940972222222  5.5 7.33333333333333  C 5.5 6.82725694444444  5.67903645833333 6.39518229166667  6.037109375 6.037109375  C 6.39518229166667 5.67903645833333  6.82725694444445 5.5  7.33333333333333 5.5  C 7.83940972222222 5.5  8.271484375 5.67903645833333  8.62955729166667 6.037109375  Z M 15.962890625 6.037109375  C 16.3209635416667 6.39518229166667  16.5 6.82725694444444  16.5 7.33333333333333  C 16.5 7.83940972222222  16.3209635416667 8.271484375  15.962890625 8.62955729166667  C 15.6048177083333 8.98763020833333  15.1727430555556 9.16666666666667  14.6666666666667 9.16666666666667  C 14.1605902777778 9.16666666666667  13.728515625 8.98763020833333  13.3704427083333 8.62955729166667  C 13.0123697916667 8.271484375  12.8333333333333 7.83940972222222  12.8333333333333 7.33333333333333  C 12.8333333333333 6.82725694444444  13.0123697916667 6.39518229166667  13.3704427083333 6.037109375  C 13.728515625 5.67903645833333  14.1605902777778 5.5  14.6666666666667 5.5  C 15.1727430555556 5.5  15.6048177083333 5.67903645833333  15.962890625 6.037109375  Z M 19.4361979166667 14.5592447916667  C 19.9231770833333 13.427734375  20.1666666666667 12.2413194444444  20.1666666666667 11  C 20.1666666666667 9.75868055555555  19.9231770833333 8.572265625  19.4361979166667 7.44075520833333  C 18.94921875 6.30924479166667  18.2975260416667 5.33528645833333  17.4811197916667 4.51888020833333  C 16.6647135416667 3.70247395833333  15.6907552083333 3.05078125  14.5592447916667 2.56380208333333  C 13.427734375 2.07682291666667  12.2413194444444 1.83333333333333  11 1.83333333333333  C 9.75868055555556 1.83333333333333  8.572265625 2.07682291666667  7.44075520833333 2.56380208333333  C 6.30924479166667 3.05078125  5.33528645833333 3.70247395833333  4.51888020833333 4.51888020833333  C 3.70247395833333 5.33528645833333  3.05078125 6.30924479166667  2.56380208333333 7.44075520833333  C 2.07682291666667 8.572265625  1.83333333333333 9.75868055555555  1.83333333333333 11  C 1.83333333333333 12.2413194444444  2.07682291666667 13.427734375  2.56380208333333 14.5592447916667  C 3.05078125 15.6907552083333  3.70247395833333 16.6647135416667  4.51888020833333 17.4811197916667  C 5.33528645833333 18.2975260416667  6.30924479166667 18.94921875  7.44075520833333 19.4361979166667  C 8.572265625 19.9231770833333  9.75868055555556 20.1666666666667  11 20.1666666666667  C 12.2413194444444 20.1666666666667  13.427734375 19.9231770833333  14.5592447916667 19.4361979166667  C 15.6907552083333 18.94921875  16.6647135416667 18.2975260416667  17.4811197916667 17.4811197916667  C 18.2975260416667 16.6647135416667  18.94921875 15.6907552083333  19.4361979166667 14.5592447916667  Z M 20.5247395833333 5.478515625  C 21.5082465277778 7.16384548611111  22 9.00434027777778  22 11  C 22 12.9956597222222  21.5082465277778 14.8361545138889  20.5247395833333 16.521484375  C 19.5412326388889 18.2068142361111  18.2068142361111 19.5412326388889  16.521484375 20.5247395833333  C 14.8361545138889 21.5082465277778  12.9956597222222 22  11 22  C 9.00434027777778 22  7.16384548611111 21.5082465277778  5.478515625 20.5247395833333  C 3.79318576388889 19.5412326388889  2.45876736111111 18.2068142361111  1.47526041666667 16.521484375  C 0.491753472222222 14.8361545138889  0 12.9956597222222  0 11  C 0 9.00434027777778  0.491753472222222 7.16384548611111  1.47526041666667 5.478515625  C 2.45876736111111 3.79318576388889  3.79318576388889 2.45876736111111  5.478515625 1.47526041666667  C 7.16384548611111 0.49175347222222  9.00434027777778 0  11 0  C 12.9956597222222 0  14.8361545138889 0.49175347222222  16.521484375 1.47526041666667  C 18.2068142361111 2.45876736111111  19.5412326388889 3.79318576388889  20.5247395833333 5.478515625  Z " fill-rule="nonzero" fill="#555555" stroke="none" fill-opacity="0.694117647058824" transform="matrix(1 0 0 1 351 313 )" />
  </g>
</svg>