<?xml version="1.0" encoding="utf-8"?>
<svg version="1.1" xmlns:xlink="http://www.w3.org/1999/xlink" width="29px" height="30px" xmlns="http://www.w3.org/2000/svg">
  <g transform="matrix(1 0 0 1 -261 -384 )">
    <path d="M 28.8804253472222 0.1171875  C 27.6172495039683 3.0804943647541  25.5629030257936 5.58273565573771  23.0230654761905 7.33094262295082  C 23.0680183531746 7.71036116803279  23.1309523809524 8.08977971311475  23.1309523809524 8.48360655737705  C 23.1309523809524 13.5745389344262  19.2650049603175 17.7049180327869  14.5 17.7049180327869  C 9.73499503968254 17.7049180327869  5.86904761904762 13.5745389344262  5.86904761904762 8.48360655737705  C 5.86904761904762 8.08977971311475  5.9319816468254 7.71516393442623  5.97693452380952 7.33094262295082  C 3.43260168650793 5.57793288934426  1.38275049603175 3.0804943647541  0.115079365079363 0.112384733606557  L 0.115079365079363 25.8984375  C 0.115079365079363 28.1605404713115  1.83227926587302 29.9951972336066  3.9495597718254 30  L 25.0459449404762 30  C 27.1632254464286 29.9951972336066  28.8804253472222 28.1605404713115  28.8804253472222 25.8984375  L 28.8804253472222 0.1171875  Z " fill-rule="nonzero" fill="#7f7f7f" stroke="none" transform="matrix(1 0 0 1 261 384 )" />
  </g>
</svg>