<?xml version="1.0" encoding="utf-8"?>
<svg version="1.1" xmlns:xlink="http://www.w3.org/1999/xlink" width="13px" height="17px" xmlns="http://www.w3.org/2000/svg">
  <g transform="matrix(1 0 0 1 -936 -1218 )">
    <path d="M 12.913671875 12.2906901041667  C 12.9712239583333 12.8477647569444  13 13.4398871527778  13 14.0670572916667  C 13 14.8713107638889  12.7884114583333 15.5611979166667  12.365234375 16.13671875  C 11.9420572916667 16.7122395833333  11.4325520833333 17  10.83671875 17  L 2.16328125 17  C 1.56744791666667 17  1.05794270833333 16.7122395833333  0.634765625 16.13671875  C 0.211588541666667 15.5611979166667  0 14.8713107638889  0 14.0670572916667  C 0 13.4398871527778  0.0287760416666667 12.8477647569444  0.0863281250000001 12.2906901041667  C 0.143880208333333 11.7336154513889  0.250520833333333 11.1728515625  0.40625 10.6083984375  C 0.561979166666667 10.0439453125  0.760026041666667 9.56065538194444  1.000390625 9.15852864583333  C 1.24075520833333 8.75640190972222  1.558984375 8.42805989583333  1.955078125 8.17350260416667  C 2.351171875 7.9189453125  2.80651041666667 7.79166666666667  3.32109375 7.79166666666667  C 4.20807291666667 8.73611111111111  5.26770833333333 9.20833333333333  6.5 9.20833333333333  C 7.73229166666667 9.20833333333333  8.79192708333333 8.73611111111111  9.67890625 7.79166666666667  C 10.1934895833333 7.79166666666667  10.648828125 7.9189453125  11.044921875 8.17350260416667  C 11.441015625 8.42805989583333  11.7592447916667 8.75640190972222  11.999609375 9.15852864583333  C 12.2399739583333 9.56065538194444  12.4380208333333 10.0439453125  12.59375 10.6083984375  C 12.7494791666667 11.1728515625  12.8561197916667 11.7336154513889  12.913671875 12.2906901041667  Z M 9.257421875 1.2451171875  C 10.019140625 2.0751953125  10.4 3.07682291666667  10.4 4.25  C 10.4 5.42317708333333  10.019140625 6.4248046875  9.257421875 7.2548828125  C 8.495703125 8.0849609375  7.5765625 8.5  6.5 8.5  C 5.4234375 8.5  4.504296875 8.0849609375  3.742578125 7.2548828125  C 2.980859375 6.4248046875  2.6 5.42317708333333  2.6 4.25  C 2.6 3.07682291666667  2.980859375 2.0751953125  3.742578125 1.2451171875  C 4.504296875 0.4150390625  5.4234375 0  6.5 0  C 7.5765625 0  8.495703125 0.4150390625  9.257421875 1.2451171875  Z " fill-rule="nonzero" fill="#000000" stroke="none" fill-opacity="0.611764705882353" transform="matrix(1 0 0 1 936 1218 )" />
  </g>
</svg>