<?xml version="1.0" encoding="utf-8"?>
<svg version="1.1" xmlns:xlink="http://www.w3.org/1999/xlink" width="22px" height="22px" xmlns="http://www.w3.org/2000/svg">
  <g transform="matrix(1 0 0 1 -56 -313 )">
    <path d="M 0.0625 11  C 0.0625 4.959375  4.959375 0.0625  11 0.0625  C 17.040625 0.0625  21.9375 4.959375  21.9375 11  C 21.9375 17.040625  17.040625 21.9375  11 21.9375  C 4.959375 21.9375  0.0625 17.040625  0.0625 11  Z M 20.27734375 11  C 20.27734375 5.87626953125  16.12373046875 1.72265625  11 1.72265625  C 5.87626953125 1.72265625  1.72265625 5.87626953125  1.72265625 11  C 1.72265625 16.12373046875  5.87626953125 20.27734375  11 20.27734375  C 16.12373046875 20.27734375  20.27734375 16.12373046875  20.27734375 11  Z M 12.2792724609375 5.9829345703125  C 11.9876953125 5.6812744140625  11.990673828125 5.200341796875  12.288232421875 4.90234375  C 12.5892578125 4.6015625  13.0767578125 4.6015625  13.3777099609375 4.9022216796875  L 13.4764404296875 5.0035888671875  C 16.68798828125 8.353466796875  16.6844482421875 13.647021484375  13.468701171875 16.9926025390625  L 13.3692626953125 17.0944091796875  L 13.3609130859375 17.1029052734375  C 13.2207763671875 17.2434814453125  13.0288818359375 17.3232421875  12.8286376953125 17.3232421875  C 12.6243411097187 17.3232364219344  12.4288112084082 17.2402397504407  12.2868896484375 17.0932861328125  C 12.0132568359375 16.8021240234375  12.0132568359375 16.3500244140625  12.2858154296875 16.0599853515625  L 12.28818359375 16.0575439453125  L 12.3697998046875 15.9744384765625  C 15.0355712890625 13.215576171875  15.0358154296875 8.8351318359375  12.37060546875 6.0759521484375  L 12.28818359375 5.9920166015625  L 12.2792724609375 5.9829345703125  Z M 9.46376953125 7.0987548828125  L 9.4724853515625 7.0908935546875  C 9.7610107421875 6.8343017578125  10.1962158203125 6.8343017578125  10.484765625 7.0908203125  L 10.496044921875 7.101025390625  L 10.498388671875 7.103466796875  L 10.56015625 7.168212890625  C 12.5787109375 9.3179443359375  12.57890625 12.6701904296875  10.560791015625 14.820166015625  L 10.495556640625 14.8885009765625  L 10.492529296875 14.8911865234375  L 10.4837890625 14.8989013671875  C 10.194140625 15.150390625  9.763330078125 15.1504150390625  9.4736328125 14.898974609375  L 9.4606201171875 14.887451171875  L 9.456787109375 14.8832763671875  L 9.4488525390625 14.8744873046875  C 9.1898193359375 14.5829345703125  9.1924560546875 14.14169921875  9.456787109375 13.8531982421875  L 9.460009765625 13.8498291015625  L 9.506201171875 13.80263671875  C 11.0151123046875 12.23603515625  11.015283203125 9.753662109375  9.5066650390625 8.186865234375  L 9.4578857421875 8.137060546875  L 9.455859375 8.134814453125  L 9.448095703125 8.1260009765625  C 9.194189453125 7.8332763671875  9.19677734375 7.396533203125  9.455859375 7.106787109375  L 9.459619140625 7.102587890625  L 9.46376953125 7.0987548828125  Z M 6.33603515625 10.1744140625  L 6.34609375 10.1643798828125  C 6.679736328125 9.8357666015625  7.1787109375 9.7374267578125  7.613330078125 9.91640625  C 8.05234375 10.09716796875  8.3388671875 10.5251220703125  8.3388671875 11  C 8.3388671875 11.47490234375  8.05234375 11.90283203125  7.613330078125 12.0836181640625  C 7.17910322113639 12.2624153962184  6.68006532578843 12.1645682202039  6.3455078125 11.8350341796875  L 6.3354248046875 11.8249755859375  L 6.325048828125 11.81455078125  C 6.11178503129098 11.5970664655163  5.99234905086993 11.3045995260104  5.9924072265625 11  C 5.99240838659779 10.6948227554817  6.11230875748432 10.4018625293441  6.32626953125 10.1842529296875  L 6.33603515625 10.1744140625  Z " fill-rule="nonzero" fill="#555555" stroke="none" fill-opacity="0.694117647058824" transform="matrix(1 0 0 1 56 313 )" />
  </g>
</svg>