<?xml version="1.0" encoding="utf-8"?>
<svg version="1.1" xmlns:xlink="http://www.w3.org/1999/xlink" width="37px" height="30px" xmlns="http://www.w3.org/2000/svg">
  <g transform="matrix(1 0 0 1 -164 -380 )">
    <path d="M 14.5783854166667 13.6388221153846  C 15.6639756944444 12.6231971153846  16.9711805555556 12.1153846153846  18.5 12.1153846153846  C 20.0288194444444 12.1153846153846  21.3360243055556 12.6231971153846  22.4216145833333 13.6388221153846  C 23.5072048611111 14.6544471153846  24.05 15.8774038461538  24.05 17.3076923076923  C 24.05 18.7379807692308  23.5072048611111 19.9609375  22.4216145833333 20.9765625  C 21.3360243055556 21.9921875  20.0288194444444 22.5  18.5 22.5  C 16.9711805555556 22.5  15.6639756944444 21.9921875  14.5783854166667 20.9765625  C 13.4927951388889 19.9609375  12.95 18.7379807692308  12.95 17.3076923076923  C 12.95 15.8774038461538  13.4927951388889 14.6544471153846  14.5783854166667 13.6388221153846  Z M 27.75 4.61538461538462  L 32.0666666666667 4.61538461538462  C 33.4284722222222 4.61538461538462  34.5911458333333 5.06610576923077  35.5546875 5.96754807692308  C 36.5182291666667 6.86899038461538  37 7.95673076923077  37 9.23076923076923  L 37 25.3846153846154  C 37 26.6586538461538  36.5182291666667 27.7463942307692  35.5546875 28.6478365384615  C 34.5911458333333 29.5492788461538  33.4284722222222 30  32.0666666666667 30  L 4.93333333333333 30  C 3.57152777777778 30  2.40885416666667 29.5492788461538  1.4453125 28.6478365384615  C 0.481770833333333 27.7463942307692  0 26.6586538461538  0 25.3846153846154  L 0 9.23076923076923  C 0 7.95673076923077  0.481770833333333 6.86899038461538  1.4453125 5.96754807692308  C 2.40885416666667 5.06610576923077  3.57152777777778 4.61538461538462  4.93333333333333 4.61538461538462  L 9.25 4.61538461538462  L 10.2328125 2.16346153846154  C 10.4769097222222 1.57451923076923  10.9233506944444 1.06670673076923  11.5721354166667 0.640024038461537  C 12.2209201388889 0.213341346153849  12.8857638888889 0  13.5666666666667 0  L 23.4333333333333 0  C 24.1142361111111 0  24.7790798611111 0.213341346153849  25.4278645833333 0.640024038461537  C 26.0766493055556 1.06670673076923  26.5230902777778 1.57451923076923  26.7671875 2.16346153846154  L 27.75 4.61538461538462  Z M 12.40078125 23.0138221153846  C 14.0901909722222 24.5943509615385  16.1232638888889 25.3846153846154  18.5 25.3846153846154  C 20.8767361111111 25.3846153846154  22.9098090277778 24.5943509615385  24.59921875 23.0138221153846  C 26.2886284722222 21.4332932692308  27.1333333333333 19.53125  27.1333333333333 17.3076923076923  C 27.1333333333333 15.0841346153846  26.2886284722222 13.1820913461538  24.59921875 11.6015625  C 22.9098090277778 10.0210336538462  20.8767361111111 9.23076923076923  18.5 9.23076923076923  C 16.1232638888889 9.23076923076923  14.0901909722222 10.0210336538462  12.40078125 11.6015625  C 10.7113715277778 13.1820913461538  9.86666666666667 15.0841346153846  9.86666666666667 17.3076923076923  C 9.86666666666667 19.53125  10.7113715277778 21.4332932692308  12.40078125 23.0138221153846  Z " fill-rule="nonzero" fill="#7f7f7f" stroke="none" transform="matrix(1 0 0 1 164 380 )" />
  </g>
</svg>