<?xml version="1.0" encoding="utf-8"?>
<svg version="1.1" xmlns:xlink="http://www.w3.org/1999/xlink" width="8px" height="12px" xmlns="http://www.w3.org/2000/svg">
  <g transform="matrix(1 0 0 1 -271 -388 )">
    <path d="M 4.59442934782609 6.03360849056604  L 7.38994565217391 6.03360849056604  C 7.73301630434783 6.03360849056604  7.98097826086956 5.71079009433962  7.98097826086956 5.26415094339623  C 7.98097826086956 4.81751179245283  7.73301630434783 4.49469339622642  7.38994565217391 4.49469339622642  L 5.05298913043478 4.49469339622642  L 7.39334239130435 1.44781839622642  C 7.62771739130435 1.14268867924529  7.62771739130435 0.669516509433965  7.39334239130435 0.364386792452833  C 7.15896739130435 0.0592570754717013  6.79551630434782 0.0592570754717013  6.56114130434783 0.364386792452833  L 4.00679347826087 3.68543632075472  L 1.44565217391304 0.262676886792459  C 1.21127717391304 -0.0424528301886728  0.847826086956519 -0.0424528301886728  0.613451086956519 0.262676886792459  C 0.497961956521739 0.413030660377362  0.436820652173913 0.607606132075478  0.436820652173913 0.806603773584912  C 0.440217391304348 1.01002358490567  0.501358695652171 1.20017688679246  0.613451086956519 1.34168632075472  L 2.96399456521739 4.4902712264151  L 0.616847826086957 4.4902712264151  C 0.273777173913041 4.4902712264151  0.0258152173913043 4.81308962264152  0.0258152173913043 5.25972877358491  C 0.0258152173913043 5.7063679245283  0.273777173913043 6.02918632075472  0.616847826086957 6.02918632075472  L 3.41236413043478 6.02918632075472  L 3.41236413043478 7.42659198113208  L 0.616847826086957 7.42659198113208  C 0.273777173913041 7.42659198113208  0.0258152173913043 7.75383254716981  0.0258152173913043 8.20047169811322  C 0.0258152173913043 8.64711084905661  0.273777173913043 8.96992924528302  0.616847826086957 8.96992924528302  L 3.41236413043478 8.96992924528302  L 3.41236413043478 11.1412146226415  C 3.41236413043478 11.5878537735849  3.66032608695652 11.9106721698113  4.00339673913043 11.9106721698113  C 4.34646739130435 11.9106721698113  4.59442934782609 11.5878537735849  4.59442934782609 11.1412146226415  L 4.59442934782609 8.96992924528302  L 7.38994565217391 8.96992924528302  C 7.73301630434783 8.96992924528302  7.98097826086956 8.64711084905661  7.98097826086956 8.20047169811322  C 7.98097826086956 7.75383254716981  7.73301630434783 7.42659198113208  7.38994565217391 7.42659198113208  L 4.59442934782609 7.42659198113208  L 4.59442934782609 6.03360849056604  Z " fill-rule="nonzero" fill="#7f7f7f" stroke="none" transform="matrix(1 0 0 1 271 388 )" />
  </g>
</svg>