<?xml version="1.0" encoding="utf-8"?>
<svg version="1.1" xmlns:xlink="http://www.w3.org/1999/xlink" width="9px" height="15px" xmlns="http://www.w3.org/2000/svg">
  <g transform="matrix(1 0 0 1 -613 -315 )">
    <path d="M 8.84536082474222 0.901803607214418  C 8.94845360824741 1.00200400801603  9 1.11723446893788  9 1.24749498997997  C 9 1.37775551102203  8.94845360824741 1.49298597194388  8.84536082474222 1.59318637274549  L 2.76804123711338 7.5  L 8.84536082474222 13.4068136272545  C 8.94845360824741 13.5070140280561  9 13.622244488978  9 13.75250501002  C 9 13.8827655310621  8.94845360824741 13.997995991984  8.84536082474222 14.0981963927856  L 8.07216494845363 14.8496993987976  C 7.96907216494844 14.9498997995992  7.85051546391753 15  7.71649484536078 15  C 7.58247422680415 15  7.46391752577324 14.9498997995992  7.36082474226805 14.8496993987976  L 0.154639175257785 7.84569138276552  C 0.0515463917525949 7.74549098196394  0 7.63026052104209  0 7.5  C 0 7.36973947895791  0.0515463917525949 7.25450901803606  0.154639175257785 7.15430861723448  L 7.36082474226805 0.150300601202417  C 7.46391752577324 0.0501002004008058  7.58247422680415 0  7.71649484536078 0  C 7.85051546391753 0  7.96907216494844 0.0501002004008058  8.07216494845363 0.150300601202417  L 8.84536082474222 0.901803607214418  Z " fill-rule="nonzero" fill="#7f7f7f" stroke="none" transform="matrix(1 0 0 1 613 315 )" />
  </g>
</svg>