<?xml version="1.0" encoding="utf-8"?>
<svg version="1.1" xmlns:xlink="http://www.w3.org/1999/xlink" width="16px" height="30px" xmlns="http://www.w3.org/2000/svg">
  <g transform="matrix(1 0 0 1 -775 -1276 )">
    <path d="M 9.74488802336904 29.7975852272727  C 9.64621876014281 29.9325284090909  9.52937358000649 30  9.39435248296008 30  L 6.71470301850049 30  C 6.57968192145407 30  6.46283674131775 29.9360795454545  6.36416747809153 29.8082386363636  C 6.2654982148653 29.6803977272727  6.21616358325219 29.5170454545455  6.21616358325219 29.3181818181818  L 6.21616358325219 22.2869318181818  L 1.72930866601753 22.2869318181818  C 1.59428756897111 22.2869318181818  1.47744238883479 22.2230113636364  1.37877312560857 22.0951704545455  C 1.28010386238234 21.9673295454545  1.23076923076923 21.8039772727273  1.23076923076923 21.6051136363636  L 1.23076923076923 19.4105113636364  C 1.23076923076923 19.2258522727273  1.28010386238234 19.0660511363636  1.37877312560857 18.9311079545455  C 1.47744238883479 18.7961647727273  1.59428756897111 18.7286931818182  1.72930866601753 18.7286931818182  L 6.21616358325219 18.7286931818182  L 6.21616358325219 16.9176136363636  L 1.72930866601753 16.9176136363636  C 1.59428756897111 16.9176136363636  1.47744238883479 16.8536931818182  1.37877312560857 16.7258522727273  C 1.28010386238234 16.5980113636364  1.23076923076923 16.4346590909091  1.23076923076923 16.2357954545455  L 1.23076923076923 14.0198863636364  C 1.23076923076923 13.8352272727273  1.28010386238234 13.6754261363636  1.37877312560857 13.5404829545455  C 1.47744238883479 13.4055397727273  1.59428756897111 13.3380681818182  1.72930866601753 13.3380681818182  L 5.06329113924051 13.3380681818182  L 0.062317429406037 1.02272727272727  C -0.020772476468679 0.795454545454545  -0.020772476468679 0.568181818181814  0.062317429406037 0.340909090909091  C 0.166179811749432 0.113636363636364  0.311587147030185 0  0.498539435248296 0  L 3.52093476144109 0  C 3.71827328789354 0  3.86887374229146 0.127840909090909  3.97273612463486 0.383522727272728  L 7.32229795520935 9.43892045454545  C 7.5196364816618 9.97869318181818  7.8104511522233 10.8664772727273  8.19474196689387 12.1022727272727  C 8.29860434923726 11.7613636363636  8.45699448231094 11.2784090909091  8.6699123661149 10.6534090909091  C 8.88283024991886 10.0284090909091  9.02564102564103 9.59517045454545  9.0983446932814 9.35369318181818  L 12.0740019474197 0.404829545454547  C 12.1570918532944 0.134943181818179  12.3076923076923 0  12.5258033106134 0  L 15.5014605647517 0  C 15.6780266147355 0  15.8182408308991 0.113636363636364  15.9221032132425 0.340909090909091  C 16.0155793573515 0.539772727272726  16.0207724764687 0.75994318181818  15.937682570594 1.00142045454545  L 11.0613437195716 13.3380681818182  L 14.4109055501461 13.3380681818182  C 14.5459266471925 13.3380681818182  14.6627718273288 13.4055397727273  14.761441090555 13.5404829545455  C 14.8601103537812 13.6754261363636  14.9094449853944 13.8352272727273  14.9094449853944 14.0198863636364  L 14.9094449853944 16.2357954545455  C 14.9094449853944 16.4346590909091  14.8601103537812 16.5980113636364  14.761441090555 16.7258522727273  C 14.6627718273288 16.8536931818182  14.5459266471925 16.9176136363636  14.4109055501461 16.9176136363636  L 9.89289191820837 16.9176136363636  L 9.89289191820837 18.7286931818182  L 14.4109055501461 18.7286931818182  C 14.5459266471925 18.7286931818182  14.6627718273288 18.7961647727273  14.761441090555 18.9311079545455  C 14.8601103537812 19.0660511363636  14.9094449853944 19.2258522727273  14.9094449853944 19.4105113636364  L 14.9094449853944 21.6051136363636  C 14.9094449853944 21.8039772727273  14.8601103537812 21.9673295454545  14.761441090555 22.0951704545455  C 14.6627718273288 22.2230113636364  14.5459266471925 22.2869318181818  14.4109055501461 22.2869318181818  L 9.89289191820837 22.2869318181818  L 9.89289191820837 29.3181818181818  C 9.89289191820837 29.5028409090909  9.84355728659526 29.6626420454545  9.74488802336904 29.7975852272727  Z " fill-rule="nonzero" fill="#ffffff" stroke="none" fill-opacity="0.764705882352941" transform="matrix(1 0 0 1 775 1276 )" />
  </g>
</svg>