<?xml version="1.0" encoding="utf-8"?>
<svg version="1.1" xmlns:xlink="http://www.w3.org/1999/xlink" width="27px" height="28px" xmlns="http://www.w3.org/2000/svg">
  <g transform="matrix(1 0 0 1 -741 -1281 )">
    <path d="M 26.888671875 0.109375  C 25.7126116071429 2.87512807377049  23.7999441964286 5.21055327868852  21.4352678571429 6.8422131147541  C 21.4771205357143 7.19633709016393  21.5357142857143 7.55046106557377  21.5357142857143 7.91803278688525  C 21.5357142857143 12.6695696721311  17.9363839285714 16.5245901639344  13.5 16.5245901639344  C 9.06361607142857 16.5245901639344  5.46428571428571 12.6695696721311  5.46428571428571 7.91803278688525  C 5.46428571428571 7.55046106557377  5.52287946428571 7.20081967213115  5.56473214285714 6.8422131147541  C 3.19587053571428 5.20607069672131  1.28738839285714 2.87512807377049  0.107142857142856 0.104892418032787  L 0.107142857142856 24.171875  C 0.107142857142856 26.2831711065574  1.70591517857143 27.9955174180328  3.67717633928571 28  L 23.3186383928571 28  C 25.2898995535714 27.9955174180328  26.888671875 26.2831711065574  26.888671875 24.171875  L 26.888671875 0.109375  Z " fill-rule="nonzero" fill="#ffffff" stroke="none" transform="matrix(1 0 0 1 741 1281 )" />
  </g>
</svg>