<?xml version="1.0" encoding="utf-8"?>
<svg version="1.1" xmlns:xlink="http://www.w3.org/1999/xlink" width="716px" height="222px" xmlns="http://www.w3.org/2000/svg">
  <defs>
    <mask fill="white" id="clip194">
      <path d="M 0 207.298013245033  L 0 56.7829563913532  L 0 0  L 716 0  L 716 222  L 15.4144241119483 222  C 6.78234660925727 222  0 215.531125827815  0 207.298013245033  Z " fill-rule="evenodd" />
    </mask>
  </defs>
  <g transform="matrix(1 0 0 1 0 -46 )">
    <path d="M 0 207.298013245033  L 0 56.7829563913532  L 0 0  L 716 0  L 716 222  L 15.4144241119483 222  C 6.78234660925727 222  0 215.531125827815  0 207.298013245033  Z " fill-rule="nonzero" fill="#d7d7d7" stroke="none" transform="matrix(1 0 0 1 0 46 )" />
    <path d="M 0 207.298013245033  L 0 56.7829563913532  L 0 0  L 716 0  L 716 222  L 15.4144241119483 222  C 6.78234660925727 222  0 215.531125827815  0 207.298013245033  Z " stroke-width="2" stroke="#c3c3c3" fill="none" transform="matrix(1 0 0 1 0 46 )" mask="url(#clip194)" />
  </g>
</svg>