<?xml version="1.0" encoding="utf-8"?>
<svg version="1.1" xmlns:xlink="http://www.w3.org/1999/xlink" width="9px" height="15px" xmlns="http://www.w3.org/2000/svg">
  <g transform="matrix(1 0 0 1 -9 -8 )">
    <path d="M 9 2.14019851116625  C 9 2.3014888337469  8.94498069498069 2.44106699751861  8.83494208494209 2.55893300248139  L 4.22200772200772 7.5  L 8.83494208494209 12.4410669975186  C 8.94498069498069 12.5589330024814  9 12.6985111662531  9 12.8598014888337  C 9 13.0210918114144  8.94498069498069 13.1606699751861  8.83494208494209 13.2785359801489  L 7.39285714285714 14.8232009925558  C 7.28281853281853 14.9410669975186  7.15250965250965 15  7.0019305019305 15  C 6.85135135135135 15  6.72104247104247 14.9410669975186  6.61100386100386 14.8232009925558  L 0.165057915057915 7.91873449131514  C 0.0550193050193051 7.80086848635236  0 7.66129032258065  0 7.5  C 0 7.33870967741935  0.0550193050193051 7.19913151364764  0.165057915057915 7.08126550868486  L 6.61100386100386 0.176799007444168  C 6.72104247104247 0.0589330024813889  6.85135135135135 0  7.0019305019305 0  C 7.15250965250965 0  7.28281853281853 0.0589330024813889  7.39285714285714 0.176799007444168  L 8.83494208494209 1.72146401985112  C 8.94498069498069 1.83933002481389  9 1.97890818858561  9 2.14019851116625  Z " fill-rule="nonzero" fill="#000000" stroke="none" transform="matrix(1 0 0 1 9 8 )" />
  </g>
</svg>