<?xml version="1.0" encoding="utf-8"?>
<svg version="1.1" xmlns:xlink="http://www.w3.org/1999/xlink" width="17px" height="17px" xmlns="http://www.w3.org/2000/svg">
  <g transform="matrix(1 0 0 1 -204 0 )">
    <path d="M 212.5 2  C 216.14 2  219 4.86  219 8.5  C 219 12.14  216.14 15  212.5 15  C 208.86 15  206 12.14  206 8.5  C 206 4.86  208.86 2  212.5 2  Z " fill-rule="nonzero" fill="#ffffff" stroke="none" />
    <path d="M 212.5 1.5  C 216.42 1.5  219.5 4.58  219.5 8.5  C 219.5 12.42  216.42 15.5  212.5 15.5  C 208.58 15.5  205.5 12.42  205.5 8.5  C 205.5 4.58  208.58 1.5  212.5 1.5  Z " stroke-width="3" stroke="#797979" fill="none" />
  </g>
</svg>