<?xml version="1.0" encoding="utf-8"?>
<svg version="1.1" xmlns:xlink="http://www.w3.org/1999/xlink" width="39px" height="39px" xmlns="http://www.w3.org/2000/svg">
  <g transform="matrix(1 0 0 1 -823 -3550 )">
    <path d="M 28.4375 26.15234375  C 28.8776041666667 26.15234375  29.2584635416667 25.9915364583333  29.580078125 25.669921875  L 32.169921875 23.080078125  C 32.4915364583333 22.7584635416667  32.65234375 22.3776041666667  32.65234375 21.9375  C 32.65234375 21.4973958333333  32.4915364583333 21.1165364583333  32.169921875 20.794921875  L 20.642578125 9.267578125  C 20.3209635416667 8.94596354166666  19.9401041666667 8.78515625  19.5 8.78515625  C 19.0598958333333 8.78515625  18.6790364583333 8.94596354166666  18.357421875 9.267578125  L 6.830078125 20.794921875  C 6.50846354166667 21.1165364583333  6.34765625 21.4973958333333  6.34765625 21.9375  C 6.34765625 22.3776041666667  6.50846354166667 22.7584635416667  6.830078125 23.080078125  L 9.419921875 25.669921875  C 9.74153645833334 25.9915364583333  10.1223958333333 26.15234375  10.5625 26.15234375  C 11.0026041666667 26.15234375  11.3834635416667 25.9915364583333  11.705078125 25.669921875  L 19.5 17.875  L 27.294921875 25.669921875  C 27.6165364583333 25.9915364583333  27.9973958333333 26.15234375  28.4375 26.15234375  Z M 36.384765625 9.7119140625  C 38.1282552083333 12.6995442708333  39 15.9622395833333  39 19.5  C 39 23.0377604166667  38.1282552083333 26.3004557291667  36.384765625 29.2880859375  C 34.6412760416667 32.2757161458333  32.2757161458333 34.6412760416667  29.2880859375 36.384765625  C 26.3004557291667 38.1282552083333  23.0377604166667 39  19.5 39  C 15.9622395833333 39  12.6995442708333 38.1282552083333  9.7119140625 36.384765625  C 6.72428385416667 34.6412760416667  4.35872395833333 32.2757161458333  2.615234375 29.2880859375  C 0.871744791666667 26.3004557291667  0 23.0377604166667  0 19.5  C 0 15.9622395833333  0.871744791666667 12.6995442708333  2.615234375 9.7119140625  C 4.35872395833333 6.72428385416667  6.72428385416667 4.35872395833333  9.7119140625 2.615234375  C 12.6995442708333 0.871744791666663  15.9622395833333 0  19.5 0  C 23.0377604166667 0  26.3004557291667 0.871744791666663  29.2880859375 2.615234375  C 32.2757161458333 4.35872395833333  34.6412760416667 6.72428385416667  36.384765625 9.7119140625  Z " fill-rule="nonzero" fill="#ffffff" stroke="none" transform="matrix(1 0 0 1 823 3550 )" />
  </g>
</svg>