<?xml version="1.0" encoding="utf-8"?>
<svg version="1.1" xmlns:xlink="http://www.w3.org/1999/xlink" width="9px" height="16px" xmlns="http://www.w3.org/2000/svg">
  <g transform="matrix(1 0 0 1 -371 -602 )">
    <path d="M 0.13124763406808 10.8094835857558  C 0.13124763406808 13.6293488640988  2.0729153609096 15.8566337776163  4.49117423123605 15.8566337776163  C 6.9270846390904 15.8566337776163  8.85110084786551 13.6293488866279  8.85110084786551 10.8094835857558  L 8.85110084786551 5.04715019186046  C 8.85110084786551 2.22728489098837  6.9270846585519 0  4.49117423123605 0  C 2.0729153414481 0  0.13124763406808 2.22728489098837  0.13124763406808 5.04715019186046  L 0.13124763406808 10.8094835857558  Z M 1.38450588385882 10.8094835857558  L 1.38450588385882 5.04715019186046  C 1.38450588385882 3.02420335537791  2.76132481849888 1.45080027034884  4.49117423123605 1.45080024781977  C 6.23867518150112 1.45080024781977  7.61549411614118 3.02420333284884  7.61549411614118 5.04715019186046  L 7.61549411614118 10.8094835857558  C 7.61549411614118 12.8324304222384  6.23867518150111 14.4262673284884  4.49117423123605 14.4262673284884  C 2.76132479903739 14.4262673284884  1.38450588385882 12.8324304222384  1.38450588385882 10.8094835857558  Z " fill-rule="nonzero" fill="#858d9a" stroke="none" transform="matrix(1 0 0 1 371 602 )" />
  </g>
</svg>