<?xml version="1.0" encoding="utf-8"?>
<svg version="1.1" xmlns:xlink="http://www.w3.org/1999/xlink" width="17px" height="24px" xmlns="http://www.w3.org/2000/svg">
  <g transform="matrix(1 0 0 1 -68 -601 )">
    <path d="M 16.8594180704441 9.91191335740072  C 17.0989280245023 9.45559566787004  16.9583460949464 8.87220216606498  16.5444104134763 8.60938628158845  C 16.133078101072 8.34657039711191  15.6045941807044 8.50252707581228  15.3676875957121 8.95884476534296  L 14.9381316998469 9.78483754512636  L 14.5085758039816 10.6108303249097  L 11.0617151607963 17.2187725631769  L 9.77044410413476 19.6967509025271  C 8.58070444104134 21.9783393501805  5.94609494640122 22.7610108303249  3.88683001531393 21.4440433212996  C 3.66033690658499 21.2996389891697  3.45467075038285 21.1292418772563  3.26202143950995 20.9472924187726  C 3.2021439509954 20.8924187725632  3.14747320061256 20.8346570397112  3.09280245022971 20.7768953068592  C 2.95742725880551 20.6353790613718  2.83246554364472 20.4851985559567  2.71791730474732 20.3263537906137  C 2.65803981623277 20.2454873646209  2.59816232771822 20.1646209386282  2.54088820826952 20.0779783393502  C 2.43415007656968 19.9104693140794  2.33782542113323 19.7371841155235  2.25191424196018 19.5581227436823  C 2.18422664624808 19.4166064981949  2.12955589586524 19.2750902527076  2.07488514548239 19.127797833935  C 2.05145482388974 19.0613718411552  2.02802450229709 18.9949458483754  2.00719754977029 18.9256317689531  C 1.59326186830015 17.6490974729242  1.65053598774885 16.1963898916967  2.30918836140888 14.9285198555957  L 3.17090352220521 13.2765342960289  L 3.60045941807044 12.4505415162455  L 6.61516079632465 6.66570397111913  L 7.04471669218989 5.83971119133574  L 8.33598774885145 3.36173285198556  C 9.04931087289433 1.9927797833935  10.6295558958652 1.52490974729242  11.8661562021439 2.31335740072202  C 13.1027565084227 3.10469314079422  13.5271056661562 4.85487364620938  12.8111791730475 6.22382671480144  L 12.3816232771822 7.04981949458483  L 11.8739663093415 8.02888086642599  L 11.5225114854518 8.70180505415162  L 11.0903522205207 9.52779783393501  L 6.7843797856049 17.7906137184115  C 6.54747320061256 18.2469314079422  6.01898928024502 18.4028880866426  5.60765696784074 18.1400722021661  C 5.19632465543645 17.8772563176895  5.0531393568147 17.2938628158845  5.29264931087289 16.8375451263538  L 7.87779479326187 11.8815884476534  L 8.38805513016845 10.9025270758123  L 10.0307810107198 7.74873646209386  C 10.2676875957121 7.29241877256318  10.1271056661562 6.70902527075812  9.71577335375192 6.44620938628159  C 9.30444104134763 6.18339350180505  8.77595712098009 6.33935018050542  8.53905053598775 6.7956678700361  L 6.89632465543645 9.94945848375451  L 6.38606431852986 10.9285198555957  L 3.80091883614089 15.884476534296  C 3.08759571209801 17.2534296028881  3.51194486983155 19.0036101083032  4.74594180704441 19.7949458483755  C 5.98254211332312 20.5862815884477  7.56278713629403 20.115523465704  8.27611026033691 18.7465703971119  L 11.2830015313936 12.9819494584838  L 12.1551301684533 11.3097472924188  L 14.3081163859112 7.17978339350181  C 15.4978560490046 4.89819494584838  14.7923430321593 1.98122743682311  12.7304747320061 0.664259927797835  C 10.6712098009188 -0.652707581227436  8.03660030627871 0.129963898916968  6.8468606431853 2.4115523465704  L 5.98514548238897 4.06353790613719  L 2.53828483920368 10.6685920577617  L 1.67656967840735 12.3205776173285  L 0.814854517611026 13.9725631768953  C -0.851301684532925 17.1667870036101  0.137978560490046 21.2505415162455  3.02251148545176 23.0960288808664  C 5.90704441041348 24.9386281588448  9.59601837672282 23.8469314079422  11.2621745788668 20.6527075812274  L 16.0003062787136 11.5638989169675  L 16.4298621745789 10.7379061371841  L 16.8594180704441 9.91191335740072  Z " fill-rule="nonzero" fill="#858d9a" stroke="none" transform="matrix(1 0 0 1 68 601 )" />
  </g>
</svg>