<?xml version="1.0" encoding="utf-8"?>
<svg version="1.1" xmlns:xlink="http://www.w3.org/1999/xlink" width="23px" height="17px" xmlns="http://www.w3.org/2000/svg">
  <g transform="matrix(1 0 0 1 -328 -605 )">
    <path d="M 22.9819506726457 13.4861370716511  C 22.9819506726457 15.4138629283489  21.4580717488789 16.9788161993769  19.5835201793722 17  L 3.4164798206278 17  C 1.54192825112108 16.9788161993769  0.0154708520179371 15.4138629283489  0.0154708520179371 13.4861370716511  L 0.0154708520179371 3.51121495327103  C 0.0154708520179371 1.58613707165109  1.53934977578475 0.0185358255451718  3.4164798206278 0  L 19.5809417040359 0  C 21.4554932735426 0.0185358255451718  22.9819506726457 1.58348909657321  22.9819506726457 3.51121495327103  L 22.9819506726457 13.4861370716511  Z M 3.4164798206278 1  L 3.4164798206278 1.01947040498442  C 2.07825112107623 1.01947040498442  0.987556053811659 2.13691588785047  0.987556053811659 3.51386292834891  L 0.987556053811659 13.488785046729  C 0.987556053811659 14.8630841121495  2.07825112107623 15.9831775700935  3.4164798206278 16  L 19.5809417040359 16  C 20.9191704035874 15.9831775700935  22.009865470852 14.8657320872274  22.009865470852 13.488785046729  L 22.009865470852 3.51121495327103  C 22.009865470852 2.13691588785047  20.9191704035874 1.01682242990654  19.5809417040359 1  L 3.4164798206278 1  Z " fill-rule="nonzero" fill="#858d9a" stroke="none" transform="matrix(1 0 0 1 328 605 )" />
  </g>
</svg>