<?xml version="1.0" encoding="utf-8"?>
<svg version="1.1" xmlns:xlink="http://www.w3.org/1999/xlink" width="16px" height="9px" xmlns="http://www.w3.org/2000/svg">
  <g transform="matrix(1 0 0 1 -331 -609 )">
    <path d="M 0.54569536423841 9  L 0.54569536423841 8  L 14.553642384106 8  L 14.553642384106 9  L 0.54569536423841 9  Z M 15.9841059602649 0  L 15.9841059602649 1.01586826347305  L 13.9894039735099 1.01586826347305  L 13.9894039735099 0  L 15.9841059602649 0  Z M 12.4927152317881 0  L 12.4927152317881 1.01586826347305  L 10.4980132450331 1.01586826347305  L 10.4980132450331 0  L 12.4927152317881 0  Z M 8.99867549668874 0  L 8.99867549668874 1.01586826347305  L 7.00397350993377 1.01586826347305  L 7.00397350993377 0  L 8.99867549668874 0  Z M 5.50728476821192 0  L 5.50728476821192 1.01586826347305  L 3.51258278145695 1.01586826347305  L 3.51258278145695 0  L 5.50728476821192 0  Z M 2.01324503311258 0  L 2.01324503311258 1.01586826347305  L 0.0185430463576126 1.01586826347305  L 0.0185430463576126 0  L 2.01324503311258 0  Z M 15.9841059602649 4.28982035928144  L 15.9841059602649 5.30568862275449  L 13.9894039735099 5.30568862275449  L 13.9894039735099 4.28982035928144  L 15.9841059602649 4.28982035928144  Z M 12.4927152317881 4.28982035928144  L 12.4927152317881 5.30568862275449  L 10.4980132450331 5.30568862275449  L 10.4980132450331 4.28982035928144  L 12.4927152317881 4.28982035928144  Z M 8.99867549668874 4.28982035928144  L 8.99867549668874 5.30568862275449  L 7.00397350993377 5.30568862275449  L 7.00397350993377 4.28982035928144  L 8.99867549668874 4.28982035928144  Z M 5.50728476821192 4.28982035928144  L 5.50728476821192 5.30568862275449  L 3.51258278145695 5.30568862275449  L 3.51258278145695 4.28982035928144  L 5.50728476821192 4.28982035928144  Z M 2.01324503311258 4.28982035928144  L 2.01324503311258 5.30568862275449  L 0.0185430463576126 5.30568862275449  L 0.0185430463576126 4.28982035928144  L 2.01324503311258 4.28982035928144  Z " fill-rule="nonzero" fill="#858d9a" stroke="none" transform="matrix(1 0 0 1 331 609 )" />
  </g>
</svg>