<?xml version="1.0" encoding="utf-8"?>
<svg version="1.1" xmlns:xlink="http://www.w3.org/1999/xlink" width="58px" height="82px" xmlns="http://www.w3.org/2000/svg">
  <defs>
    <mask fill="white" id="clip204">
      <path d="M 0.5 1  C 0.333221304272229 1  0.166559613016943 1.00050095570077  0 0.998728755535922  L 0 82  L 57.6255644469757 24.3714955876949  C 42.918475623319 9.91659083706327  22.7505284998288 1  0.5 1  Z " fill-rule="evenodd" />
    </mask>
  </defs>
  <g transform="matrix(1 0 0 1 -900 -679 )">
    <path d="M 0.5 1  C 0.333221304272229 1  0.166559613016943 1.00050095570077  0 0.998728755535922  L 0 82  L 57.6255644469757 24.3714955876949  C 42.918475623319 9.91659083706327  22.7505284998288 1  0.5 1  Z " fill-rule="nonzero" fill="#3436c7" stroke="none" fill-opacity="0.8" transform="matrix(1 0 0 1 900 679 )" />
    <path d="M 0.5 1  C 0.333221304272229 1  0.166559613016943 1.00050095570077  0 0.998728755535922  L 0 82  L 57.6255644469757 24.3714955876949  C 42.918475623319 9.91659083706327  22.7505284998288 1  0.5 1  Z " stroke-width="2" stroke="#ffffff" fill="none" transform="matrix(1 0 0 1 900 679 )" mask="url(#clip204)" />
  </g>
</svg>