<?xml version="1.0" encoding="utf-8"?>
<svg version="1.1" xmlns:xlink="http://www.w3.org/1999/xlink" width="99px" height="138px" xmlns="http://www.w3.org/2000/svg">
  <defs>
    <mask fill="white" id="clip71">
      <path d="M 0.5 0  C 0.333263888094734 0  0.166596592041969 0.00029357202220126  0 0.0010813567078003  L 0 138  L 98.0032994732737 39.9917002961447  C 72.9745258204293 15.2699929259834  38.5269729290239 0  0.5 0  Z " fill-rule="evenodd" />
    </mask>
  </defs>
  <g transform="matrix(1 0 0 1 -889 -778 )">
    <path d="M 0.5 0  C 0.333263888094734 0  0.166596592041969 0.00029357202220126  0 0.0010813567078003  L 0 138  L 98.0032994732737 39.9917002961447  C 72.9745258204293 15.2699929259834  38.5269729290239 0  0.5 0  Z " fill-rule="nonzero" fill="#facc14" stroke="none" fill-opacity="0.8" transform="matrix(1 0 0 1 889 778 )" />
    <path d="M 0.5 0  C 0.333263888094734 0  0.166596592041969 0.00029357202220126  0 0.0010813567078003  L 0 138  L 98.0032994732737 39.9917002961447  C 72.9745258204293 15.2699929259834  38.5269729290239 0  0.5 0  Z " stroke-width="2" stroke="#ffffff" fill="none" transform="matrix(1 0 0 1 889 778 )" mask="url(#clip71)" />
  </g>
</svg>