<?xml version="1.0" encoding="utf-8"?>
<svg version="1.1" xmlns:xlink="http://www.w3.org/1999/xlink" width="145px" height="144px" xmlns="http://www.w3.org/2000/svg">
  <defs>
    <mask fill="white" id="clip67">
      <path d="M 0 72  C 0 111.7645019856  32.4593556395 144  72.5 144  C 112.5406443605 144  145 111.7645019856  145 72  C 145 32.2354980144  112.5406443605 0  72.5 0  C 32.4593556395 0  0 32.2354980144  0 72  Z " fill-rule="evenodd" />
    </mask>
  </defs>
  <g transform="matrix(1 0 0 1 -883 -692 )">
    <path d="M 0 72  C 0 111.7645019856  32.4593556395 144  72.5 144  C 112.5406443605 144  145 111.7645019856  145 72  C 145 32.2354980144  112.5406443605 0  72.5 0  C 32.4593556395 0  0 32.2354980144  0 72  Z " fill-rule="nonzero" fill="#ffffff" stroke="none" fill-opacity="0" transform="matrix(1 0 0 1 883 692 )" />
    <path d="M 0 72  C 0 111.7645019856  32.4593556395 144  72.5 144  C 112.5406443605 144  145 111.7645019856  145 72  C 145 32.2354980144  112.5406443605 0  72.5 0  C 32.4593556395 0  0 32.2354980144  0 72  Z " stroke-width="2" stroke="#000000" fill="none" stroke-opacity="0.0901960784313725" transform="matrix(1 0 0 1 883 692 )" mask="url(#clip67)" />
  </g>
</svg>