<?xml version="1.0" encoding="utf-8"?>
<svg version="1.1" xmlns:xlink="http://www.w3.org/1999/xlink" width="69px" height="68px" xmlns="http://www.w3.org/2000/svg">
  <defs>
    <mask fill="white" id="clip2">
      <path d="M 0 34  C 0 52.7776814932  15.4461761319 68  34.5 68  C 53.5538238681 68  69 52.7776814932  69 34  C 69 15.2223185068  53.5538238681 0  34.5 0  C 15.4461761319 0  0 15.2223185068  0 34  Z " fill-rule="evenodd" />
    </mask>
  </defs>
  <g transform="matrix(1 0 0 1 -922 -730 )">
    <path d="M 0 34  C 0 52.7776814932  15.4461761319 68  34.5 68  C 53.5538238681 68  69 52.7776814932  69 34  C 69 15.2223185068  53.5538238681 0  34.5 0  C 15.4461761319 0  0 15.2223185068  0 34  Z " fill-rule="nonzero" fill="#ffffff" stroke="none" fill-opacity="0" transform="matrix(1 0 0 1 922 730 )" />
    <path d="M 0 34  C 0 52.7776814932  15.4461761319 68  34.5 68  C 53.5538238681 68  69 52.7776814932  69 34  C 69 15.2223185068  53.5538238681 0  34.5 0  C 15.4461761319 0  0 15.2223185068  0 34  Z " stroke-width="2" stroke="#000000" fill="none" stroke-opacity="0.0901960784313725" transform="matrix(1 0 0 1 922 730 )" mask="url(#clip2)" />
  </g>
</svg>