<?xml version="1.0" encoding="utf-8"?>
<svg version="1.1" xmlns:xlink="http://www.w3.org/1999/xlink" width="40px" height="33px" xmlns="http://www.w3.org/2000/svg">
  <g transform="matrix(1 0 0 1 -42 -17 )">
    <path d="M 34.2503097893432 18.8534684333593  C 34.2668318876497 18.887763055339  34.275092936803 18.9392049883087  34 19.0077942322681  L 34 31.3538581449727  C 34.275092936803 31.7996882307093  34.1181330028914 32.1855027279813  33.8042131350682 32.5113016367888  C 33.4902932672449 32.8371005455963  33.118546055349 33  32.6889714993804 33  L 23.1722428748451 33  L 23.1722428748451 23.1231488698363  L 16.8277571251549 23.1231488698363  L 16.8277571251549 33  L 7.31102850061958 33  C 6.88145394465097 33  6.50970673275506 32.8371005455963  6.19578686493185 32.5113016367888  C 5.88186699710863 32.1855027279813  5.72490706319703 31.7996882307093  6 31.3538581449727  L 6 19.0077942322681  C 5.72490706319703 18.9906469212783  5.72903758777365 18.9649259547935  5.73729863692689 18.9306313328137  C 5.74555968608013 18.896336710834  5.74969021065675 18.8706157443492  5.74969021065675 18.8534684333593  L 20 6.66173031956352  L 34.2503097893432 18.8534684333593  Z M 39.9752168525403 16.628604832424  C 39.9917389508468 16.8600935307872  39.9339116067741 17.0615744349182  39.8017348203222 17.2330475448168  L 38.2651796778191 19.1363990646921  C 38.1330028913672 19.2907248636009  37.9595208591491 19.3850350740452  37.7447335811648 19.4193296960249  L 37.6703841387856 19.4193296960249  C 37.4555968608013 19.4193296960249  37.2821148285832 19.3593141075604  37.1499380421314 19.2392829306313  L 20 4.39828526890101  L 2.85006195786865 19.2392829306313  C 2.65179677819083 19.3764614185503  2.45353159851301 19.4364770070148  2.25526641883519 19.4193296960249  C 2.04047914085089 19.3850350740452  1.8669971086328 19.2907248636009  1.73482032218092 19.1363990646921  L 0.198265179677819 17.2330475448168  C 0.0660883932259397 17.0615744349182  0.00826104915324252 16.8600935307872  0.0247831474597274 16.628604832424  C 0.0413052457662124 16.3971161340608  0.132176786451879 16.2127825409197  0.297397769516729 16.0756040530008  L 18.1164807930607 0.668745128604833  C 18.6451879388682 0.222915042868274  19.2730276745147 0  20 0  C 20.7269723254853 0  21.3548120611318 0.222915042868274  21.8835192069393 0.668745128604833  L 27.9306071871128 5.91582229150429  L 27.9306071871128 0.900233826968042  C 27.9306071871128 0.660171473109895  28.0049566294919 0.462977396726421  28.1536555142503 0.308651597817617  C 28.3023543990087 0.154325798908808  28.4923585295332 0.0771628994544041  28.723667905824 0.0771628994544041  L 33.4820322180917 0.0771628994544041  C 33.7133415943825 0.0771628994544041  33.9033457249071 0.154325798908808  34.0520446096654 0.308651597817617  C 34.2007434944238 0.462977396726421  34.275092936803 0.660171473109895  34 0.900233826968042  L 34 11.394388152767  L 39.7026022304833 16.0756040530008  C 39.8678232135481 16.2127825409197  39.9586947542338 16.3971161340608  39.9752168525403 16.628604832424  Z " fill-rule="nonzero" fill="#ffffff" stroke="none" transform="matrix(1 0 0 1 42 17 )" />
  </g>
</svg>