<?xml version="1.0" encoding="utf-8"?>
<svg version="1.1" xmlns:xlink="http://www.w3.org/1999/xlink" width="6px" height="6px" xmlns="http://www.w3.org/2000/svg">
  <g transform="matrix(1 0 0 1 -257 -663 )">
    <path d="M 260 663  C 261.68 663  263 664.32  263 666  C 263 667.68  261.68 669  260 669  C 258.32 669  257 667.68  257 666  C 257 664.32  258.32 663  260 663  Z " fill-rule="nonzero" fill="#483505" stroke="none" />
    <path d="M 260 663.5  C 261.4 663.5  262.5 664.6  262.5 666  C 262.5 667.4  261.4 668.5  260 668.5  C 258.6 668.5  257.5 667.4  257.5 666  C 257.5 664.6  258.6 663.5  260 663.5  Z " stroke-width="1" stroke="#797979" fill="none" />
  </g>
</svg>