<?xml version="1.0" encoding="utf-8"?>
<svg version="1.1" xmlns:xlink="http://www.w3.org/1999/xlink" width="18px" height="18px" viewBox="400 2004.5  18 18" xmlns="http://www.w3.org/2000/svg">
  <path d="M 409 2004.5  C 414.04 2004.5  418 2008.46  418 2013.5  C 418 2018.54  414.04 2022.5  409 2022.5  C 403.96 2022.5  400 2018.54  400 2013.5  C 400 2008.46  403.96 2004.5  409 2004.5  Z " fill-rule="nonzero" fill="#f0f0f0" stroke="none" />
  <path d="M 409 2005  C 413.76 2005  417.5 2008.74  417.5 2013.5  C 417.5 2018.26  413.76 2022  409 2022  C 404.24 2022  400.5 2018.26  400.5 2013.5  C 400.5 2008.74  404.24 2005  409 2005  Z " stroke-width="1" stroke="#797979" fill="none" />
  <path d="M 409 2018  C 406.48 2018  404.5 2016.02  404.5 2013.5  C 404.5 2010.98  406.48 2009  409 2009  C 411.52 2009  413.5 2010.98  413.5 2013.5  C 413.5 2016.02  411.52 2018  409 2018  " fill-rule="nonzero" fill="#797979" stroke="none" />
</svg>