<?xml version="1.0" encoding="utf-8"?>
<svg version="1.1" xmlns:xlink="http://www.w3.org/1999/xlink" width="18px" height="18px" viewBox="505 2051.5  18 18" xmlns="http://www.w3.org/2000/svg">
  <path d="M 514 2051.5  C 519.04 2051.5  523 2055.46  523 2060.5  C 523 2065.54  519.04 2069.5  514 2069.5  C 508.96 2069.5  505 2065.54  505 2060.5  C 505 2055.46  508.96 2051.5  514 2051.5  Z " fill-rule="nonzero" fill="#f0f0f0" stroke="none" />
  <path d="M 514 2052  C 518.76 2052  522.5 2055.74  522.5 2060.5  C 522.5 2065.26  518.76 2069  514 2069  C 509.24 2069  505.5 2065.26  505.5 2060.5  C 505.5 2055.74  509.24 2052  514 2052  Z " stroke-width="1" stroke="#797979" fill="none" />
  <path d="M 514 2065  C 511.48 2065  509.5 2063.02  509.5 2060.5  C 509.5 2057.98  511.48 2056  514 2056  C 516.52 2056  518.5 2057.98  518.5 2060.5  C 518.5 2063.02  516.52 2065  514 2065  " fill-rule="nonzero" fill="#797979" stroke="none" />
</svg>