<?xml version="1.0" encoding="utf-8"?>
<svg version="1.1" xmlns:xlink="http://www.w3.org/1999/xlink" width="38px" height="24px" xmlns="http://www.w3.org/2000/svg">
  <g transform="matrix(1 0 0 1 -353 -2746 )">
    <path d="M 0.9462890625 16.659375  C 0.3154296875 15.178125  0 13.625  0 12  C 0 10.375  0.3154296875 8.821875  0.9462890625 7.340625  C 1.5771484375 5.859375  2.42138671875 4.584375  3.47900390625 3.515625  C 4.53662109375 2.446875  5.79833984375 1.59375  7.26416015625 0.956249999999999  C 8.72998046875 0.318750000000001  10.2669270833333 0  11.875 0  L 26.125 0  C 27.7330729166667 0  29.27001953125 0.318750000000001  30.73583984375 0.956249999999999  C 32.20166015625 1.59375  33.46337890625 2.446875  34.52099609375 3.515625  C 35.57861328125 4.584375  36.4228515625 5.859375  37.0537109375 7.340625  C 37.6845703125 8.821875  38 10.375  38 12  C 38 13.625  37.6845703125 15.178125  37.0537109375 16.659375  C 36.4228515625 18.140625  35.57861328125 19.415625  34.52099609375 20.484375  C 33.46337890625 21.553125  32.20166015625 22.40625  30.73583984375 23.04375  C 29.27001953125 23.68125  27.7330729166667 24  26.125 24  L 11.875 24  C 10.2669270833333 24  8.72998046875 23.68125  7.26416015625 23.04375  C 5.79833984375 22.40625  4.53662109375 21.553125  3.47900390625 20.484375  C 2.42138671875 19.415625  1.5771484375 18.140625  0.9462890625 16.659375  Z M 22.44189453125 20.840625  C 23.61083984375 21.346875  24.8385416666667 21.6  26.125 21.6  C 27.4114583333333 21.6  28.63916015625 21.346875  29.80810546875 20.840625  C 30.97705078125 20.334375  31.98828125 19.65  32.841796875 18.7875  C 33.6953125 17.925  34.37255859375 16.903125  34.87353515625 15.721875  C 35.37451171875 14.540625  35.625 13.3  35.625 12  C 35.625 10.7  35.37451171875 9.459375  34.87353515625 8.278125  C 34.37255859375 7.096875  33.6953125 6.075  32.841796875 5.2125  C 31.98828125 4.35  30.97705078125 3.665625  29.80810546875 3.159375  C 28.63916015625 2.653125  27.4114583333333 2.4  26.125 2.4  C 24.8385416666667 2.4  23.61083984375 2.653125  22.44189453125 3.159375  C 21.27294921875 3.665625  20.26171875 4.35  19.408203125 5.2125  C 18.5546875 6.075  17.87744140625 7.096875  17.37646484375 8.278125  C 16.87548828125 9.459375  16.625 10.7  16.625 12  C 16.625 13.3  16.87548828125 14.540625  17.37646484375 15.721875  C 17.87744140625 16.903125  18.5546875 17.925  19.408203125 18.7875  C 20.26171875 19.65  21.27294921875 20.334375  22.44189453125 20.840625  Z " fill-rule="nonzero" fill="#000000" stroke="none" transform="matrix(1 0 0 1 353 2746 )" />
  </g>
</svg>